<svg width="738" height="587" viewBox="0 0 738 587" fill="none" xmlns="http://www.w3.org/2000/svg">
<path d="M738 520.054H0V520.423H738V520.054Z" fill="#EBEBEB"/>
<path d="M164.81 532.438H115.925V532.806H164.81V532.438Z" fill="#EBEBEB"/>
<path d="M241.326 543.079H196.795V543.448H241.326V543.079Z" fill="#EBEBEB"/>
<path d="M140.367 546.135H83.9102V546.504H140.367V546.135Z" fill="#EBEBEB"/>
<path d="M664.052 545.338H640.584V545.707H664.052V545.338Z" fill="#EBEBEB"/>
<path d="M635.846 545.338H577.81V545.707H635.846V545.338Z" fill="#EBEBEB"/>
<path d="M413.767 532.246H369V532.615H413.767V532.246Z" fill="#EBEBEB"/>
<path d="M526.592 532.246H420.173V532.615H526.592V532.246Z" fill="#EBEBEB"/>
<path d="M349.812 454.224H64.8116C62.579 454.22 60.4391 453.331 58.8617 451.751C57.2844 450.17 56.3984 448.029 56.3984 445.796V45.1657C56.4179 42.9458 57.3124 40.8233 58.8876 39.2591C60.4629 37.6948 62.5917 36.8153 64.8116 36.8115H349.812C352.048 36.8115 354.191 37.6995 355.772 39.28C357.353 40.8606 358.24 43.0042 358.24 45.2395V445.796C358.24 448.032 357.353 450.175 355.772 451.756C354.191 453.336 352.048 454.224 349.812 454.224ZM64.8116 37.1067C62.6768 37.1106 60.6308 37.9614 59.1226 39.4723C57.6145 40.9833 56.7674 43.0309 56.7674 45.1657V445.796C56.7674 447.931 57.6145 449.979 59.1226 451.49C60.6308 453.001 62.6768 453.851 64.8116 453.855H349.812C351.949 453.851 353.996 453.001 355.507 451.491C357.017 449.98 357.868 447.932 357.871 445.796V45.1657C357.868 43.0295 357.017 40.9819 355.507 39.4714C353.996 37.9609 351.949 37.1106 349.812 37.1067H64.8116Z" fill="#EBEBEB"/>
<path d="M669.085 454.224H384.07C381.836 454.22 379.694 453.331 378.114 451.751C376.535 450.172 375.646 448.03 375.642 445.796V45.1657C375.665 42.9445 376.563 40.8219 378.14 39.2581C379.718 37.6943 381.848 36.8153 384.07 36.8115H669.085C671.303 36.8192 673.428 37.7004 675 39.2642C676.572 40.828 677.464 42.9484 677.484 45.1657V445.796C677.484 448.026 676.6 450.166 675.026 451.745C673.451 453.325 671.315 454.216 669.085 454.224ZM384.07 37.1067C381.933 37.1106 379.886 37.9609 378.375 39.4714C376.865 40.9819 376.015 43.0295 376.011 45.1657V445.796C376.015 447.932 376.865 449.98 378.375 451.491C379.886 453.001 381.933 453.851 384.07 453.855H669.085C671.221 453.851 673.269 453.001 674.779 451.491C676.29 449.98 677.14 447.932 677.144 445.796V45.1657C677.14 43.0295 676.29 40.9819 674.779 39.4714C673.269 37.9609 671.221 37.1106 669.085 37.1067H384.07Z" fill="#EBEBEB"/>
<path d="M633.615 304.128L610.998 281.512L402.605 489.905L425.221 512.522L633.615 304.128Z" fill="#EBEBEB"/>
<path d="M534.209 403.524L511.596 380.896L480.763 411.73L501.5 444.807L534.209 403.524Z" fill="#E0E0E0"/>
<path d="M425.217 512.521L432.752 520.057L641.145 311.663L633.61 304.128L425.217 512.521Z" fill="#E0E0E0"/>
<path d="M425.225 289.039L402.608 311.655L611.002 520.049L633.619 497.432L425.225 289.039Z" fill="#EBEBEB"/>
<path d="M633.617 497.435L641.152 489.899L432.759 281.506L425.223 289.041L633.617 497.435Z" fill="#E0E0E0"/>
<path d="M260.074 352.009L242.467 334.402L80.2775 496.592L97.8845 514.199L260.074 352.009Z" fill="#EBEBEB"/>
<path d="M182.699 429.354L165.09 411.76L141.105 435.76L157.238 461.486L182.699 429.354Z" fill="#E0E0E0"/>
<path d="M97.8718 514.193L103.737 520.059L265.927 357.869L260.061 352.004L97.8718 514.193Z" fill="#E0E0E0"/>
<path d="M97.8932 340.266L80.2861 357.873L242.475 520.062L260.083 502.455L97.8932 340.266Z" fill="#EBEBEB"/>
<path d="M260.053 502.445L265.919 496.579L103.73 334.39L97.8641 340.255L260.053 502.445Z" fill="#E0E0E0"/>
<path d="M470.652 361.693H444.66V520.039H470.652V361.693Z" fill="#F5F5F5"/>
<path d="M470.652 427.494H444.66V446.49L470.652 440.881V427.494Z" fill="#EBEBEB"/>
<path d="M470.638 520.054H479.302V361.708H470.638V520.054Z" fill="#EBEBEB"/>
<path d="M198.374 361.693H172.382V520.039H198.374V361.693Z" fill="#F5F5F5"/>
<path d="M198.359 427.494H172.382V446.49L198.359 440.881V427.494Z" fill="#EBEBEB"/>
<path d="M198.359 520.054H207.023L207.023 361.708H198.359L198.359 520.054Z" fill="#EBEBEB"/>
<path d="M484.291 384.911H152.56V433.649H484.291V384.911Z" fill="#F5F5F5"/>
<path d="M484.29 433.634H489.161V384.896H484.29V433.634Z" fill="#EBEBEB"/>
<path d="M358.269 335.215H293.414L247.555 381.074V445.93L293.414 491.789H358.269L404.129 445.93V381.074L358.269 335.215Z" fill="#FAFAFA"/>
<path d="M355.302 342.373H296.38L254.713 384.041V442.962L296.38 484.63H355.302L396.97 442.962V384.041L355.302 342.373Z" fill="#E0E0E0"/>
<path d="M268.912 420.306L277.207 419.568C277.276 421.101 277.647 422.606 278.299 423.996C278.641 424.728 279.186 425.346 279.869 425.778C280.552 426.209 281.344 426.436 282.152 426.431C282.707 426.475 283.265 426.386 283.779 426.17C284.292 425.954 284.747 425.619 285.104 425.191C285.791 424.363 286.153 423.314 286.122 422.239C286.13 421.22 285.786 420.23 285.148 419.435C283.904 418.279 282.376 417.474 280.72 417.103C277.58 416.307 274.738 414.614 272.543 412.232C270.827 410.018 269.953 407.266 270.078 404.468C270.058 402.432 270.486 400.416 271.333 398.564C272.137 396.776 273.458 395.27 275.126 394.239C277.246 393.075 279.649 392.528 282.063 392.66C283.561 392.557 285.063 392.758 286.481 393.25C287.899 393.742 289.203 394.515 290.314 395.523C292.203 397.427 293.266 400.468 293.694 404.63L285.473 405.324C285.395 403.903 284.92 402.532 284.1 401.368C283.733 400.953 283.277 400.627 282.766 400.415C282.254 400.203 281.701 400.11 281.148 400.143C280.723 400.115 280.296 400.182 279.9 400.341C279.504 400.499 279.149 400.744 278.86 401.058C278.343 401.684 278.07 402.476 278.093 403.287C278.085 403.921 278.311 404.536 278.727 405.014C279.556 405.77 280.578 406.281 281.679 406.49C284.576 407.242 287.34 408.437 289.871 410.033C291.457 411.148 292.704 412.681 293.473 414.461C294.24 416.333 294.622 418.341 294.594 420.365C294.629 422.815 294.125 425.244 293.118 427.479C292.238 429.512 290.774 431.238 288.912 432.438C286.853 433.63 284.499 434.213 282.122 434.121C277.33 434.121 274.009 432.802 272.159 430.165C270.178 427.246 269.053 423.831 268.912 420.306Z" fill="white"/>
<path d="M296.927 393.413H323.495V403.347H314.639V433.59H305.916V403.347H297.06L296.927 393.413Z" fill="white"/>
<path d="M324.927 413.531C324.927 406.977 326.211 401.87 328.779 398.21C330.021 396.52 331.642 395.144 333.512 394.193C335.382 393.242 337.449 392.742 339.546 392.734C341.644 392.725 343.715 393.208 345.592 394.143C347.47 395.079 349.102 396.441 350.358 398.121C352.946 401.713 354.24 406.736 354.24 413.191C354.363 417.111 353.798 421.023 352.572 424.748C351.652 427.488 349.985 429.916 347.76 431.759C345.518 433.479 342.747 434.366 339.923 434.269C337.129 434.38 334.37 433.622 332.026 432.099C329.706 430.356 327.942 427.977 326.949 425.25C325.518 421.513 324.832 417.532 324.927 413.531ZM333.65 413.531C333.65 417.595 334.181 420.507 335.244 422.269C335.657 423.061 336.279 423.724 337.043 424.188C337.807 424.651 338.683 424.896 339.576 424.896C340.469 424.896 341.345 424.651 342.109 424.188C342.873 423.724 343.495 423.061 343.908 422.269C344.941 420.527 345.384 417.413 345.384 412.926C345.581 410.069 345.031 407.211 343.79 404.631C343.362 403.831 342.723 403.164 341.942 402.703C341.161 402.243 340.269 402.006 339.362 402.018C338.48 402.028 337.618 402.282 336.87 402.751C336.123 403.22 335.519 403.885 335.126 404.675C334.142 406.525 333.65 409.496 333.65 413.59V413.531Z" fill="white"/>
<path d="M358.831 393.413H373.325C374.682 393.322 376.04 393.569 377.279 394.13C378.517 394.692 379.598 395.551 380.424 396.63C382.153 399.346 382.974 402.54 382.771 405.752C382.97 409.115 382.069 412.452 380.203 415.258C379.274 416.423 378.075 417.345 376.709 417.942C375.343 418.538 373.852 418.793 372.365 418.682H367.524V433.589H358.771L358.831 393.413ZM367.524 410.549H369.664C370.311 410.62 370.966 410.544 371.579 410.327C372.192 410.109 372.749 409.757 373.207 409.294C373.913 408.386 374.274 407.256 374.225 406.106C374.297 404.968 374.019 403.835 373.428 402.859C373.03 402.378 372.517 402.005 371.936 401.776C371.356 401.546 370.727 401.467 370.107 401.545H367.524V410.549Z" fill="white"/>
<path d="M607.153 107.291C605.612 107.297 604.076 107.481 602.577 107.837C600.629 103.409 596.304 100.649 590.474 100.649C586.01 100.758 581.675 102.169 578.002 104.708C575.522 96.3829 568.098 90.8184 557.736 90.8184C542.976 90.8184 527.552 102.095 521.973 116.501C520.609 116.181 519.212 116.022 517.81 116.028H516.423C503.715 116.885 504.615 136.073 517.412 136.073H608.112C609.682 136.078 611.231 135.713 612.634 135.008C614.037 134.303 615.254 133.277 616.186 132.014C617.751 129.888 618.944 127.513 619.713 124.988C622.518 115.217 616.968 107.291 607.153 107.291Z" fill="#F0F0F0"/>
<path d="M252.928 22.2433C250.95 9.13644 240.5 0 225.223 0C212.707 0 199.806 6.1254 190.198 15.557C187.395 13.1268 183.78 11.8411 180.072 11.9556C169.474 11.9556 158.36 20.5459 155.231 31.1436C154.767 32.7077 154.504 34.3247 154.449 35.9554L154.227 36.103C145.46 42.007 149.799 55.8666 160.486 55.8666H253.872C255.654 55.881 257.411 55.4497 258.983 54.6119C260.556 53.7741 261.894 52.5564 262.876 51.0696C264.335 48.8432 265.463 46.417 266.226 43.8667C269.488 32.5901 263.629 23.306 252.928 22.2433Z" fill="#F0F0F0"/>
<path d="M364.395 168.618C361.68 150.596 347.318 138.035 326.315 138.035C309.09 138.035 291.363 146.463 278.167 159.422C274.326 156.072 269.358 154.301 264.263 154.463C249.71 154.463 234.404 166.271 230.109 180.839C229.47 182.989 229.108 185.211 229.031 187.452L228.736 187.644C216.648 195.865 222.64 214.817 237.253 214.817H360.144C365.127 214.852 369.99 213.284 374.014 210.345C378.038 207.405 381.01 203.25 382.491 198.492V198.315C387.185 182.832 379.111 170.064 364.395 168.618Z" fill="#F5F5F5"/>
<path d="M369 586.71C527.054 586.71 655.182 579.229 655.182 570.001C655.182 560.774 527.054 553.293 369 553.293C210.946 553.293 82.8184 560.774 82.8184 570.001C82.8184 579.229 210.946 586.71 369 586.71Z" fill="#F5F5F5"/>
<path d="M190.02 145.918H115.925V112.471L190.02 24.3984H225.444V114.434H243.82V145.991H225.474V173.356H190.05L190.02 145.918ZM190.02 114.361V68.2947L150.876 114.361H190.02Z" fill="#263238"/>
<path d="M538.607 24.3984V173.283H497.412V75.719C491.402 80.3866 484.98 84.4971 478.224 87.9993C470.678 91.6391 462.843 94.6457 454.8 96.9881V63.6453C468.645 59.1681 479.395 53.8053 487.05 47.5569C494.715 41.2937 500.861 33.3762 505.028 24.3984H538.607Z" fill="#263238"/>
<path d="M460.246 211.26C459.597 212.426 459.095 213.268 458.519 214.212C457.944 215.157 457.368 216.043 456.792 216.958C455.626 218.758 454.386 220.5 453.132 222.242C450.601 225.734 447.886 229.089 444.999 232.293C442.06 235.581 438.899 238.663 435.538 241.518C432.046 244.545 428.252 247.206 424.217 249.459C422.947 250.2 421.619 250.837 420.247 251.363C418.811 251.91 417.329 252.325 415.819 252.603C413.124 253.069 410.382 253.198 407.656 252.987C402.939 252.575 398.303 251.502 393.885 249.799C389.807 248.244 385.859 246.368 382.077 244.19C378.36 242.068 374.808 239.67 371.45 237.016C370.5 236.245 369.854 235.161 369.629 233.958C369.403 232.755 369.612 231.511 370.218 230.448C370.824 229.384 371.788 228.57 372.938 228.152C374.088 227.733 375.35 227.736 376.498 228.16L376.764 228.264C383.713 231.043 390.888 233.22 398.21 234.773C401.436 235.446 404.733 235.718 408.025 235.585C409.311 235.529 410.582 235.296 411.804 234.891C412.259 234.742 412.699 234.549 413.118 234.315C413.531 234.079 413.605 234.005 414.446 233.43C420.095 229.277 425.164 224.388 429.516 218.891C431.833 216.057 434.091 213.12 436.232 210.035C437.324 208.559 438.357 206.98 439.405 205.445L440.881 203.142L442.269 200.973L442.505 200.604C443.966 198.369 446.235 196.787 448.837 196.189C451.439 195.591 454.172 196.024 456.462 197.396C458.752 198.768 460.422 200.974 461.122 203.55C461.822 206.126 461.498 208.874 460.217 211.216L460.246 211.26Z" fill="#FF8B7B"/>
<path d="M378.949 229.37L367.628 221.872L362.831 236.927C365.099 238.123 367.648 238.685 370.209 238.555C372.77 238.426 375.249 237.608 377.384 236.189L378.949 229.37Z" fill="#FF8B7B"/>
<path d="M357.193 224.131L356.307 228.928C356.146 229.778 356.23 230.657 356.549 231.461C356.868 232.266 357.408 232.964 358.108 233.474L362.787 236.928L367.584 221.872L363.038 220.544C362.417 220.362 361.766 220.312 361.125 220.397C360.485 220.482 359.869 220.701 359.318 221.039C358.767 221.377 358.293 221.827 357.927 222.359C357.561 222.892 357.311 223.495 357.193 224.131Z" fill="#FF8B7B"/>
<path d="M460.601 187.275C449.074 189.09 437.413 202.625 430.402 215.245C435.006 223.272 441.982 229.675 450.373 233.577C450.373 233.577 464.04 220.647 469.561 211.083C475.081 201.518 471.45 185.548 460.601 187.275Z" fill="#A7BDE9"/>
<path opacity="0.2" d="M460.601 187.275C449.074 189.09 437.413 202.625 430.402 215.245C435.006 223.272 441.982 229.675 450.373 233.577C450.373 233.577 464.04 220.647 469.561 211.083C475.081 201.518 471.45 185.548 460.601 187.275Z" fill="black"/>
<path d="M430.845 212.353C429.777 213.562 428.941 214.958 428.38 216.471C431.258 220.899 438.092 232.707 450.845 235.216C452.084 234.523 453.033 233.407 453.516 232.072C453.516 232.072 438.845 224.839 430.845 212.353Z" fill="#263238"/>
<path d="M507.05 186.877C493.116 184.544 478.927 184.137 464.881 185.666C454.401 187.01 446.579 196.648 446.652 207.201C446.705 218.212 447.692 229.199 449.604 240.042C445.752 260.337 444.365 287.924 448.424 294.005L521.028 295.023C524.143 286.344 520.231 248.78 524.379 209.563C524.941 204.282 523.458 198.987 520.235 194.767C517.011 190.547 512.293 187.723 507.05 186.877Z" fill="#A7BDE9"/>
<path opacity="0.2" d="M479.7 294.093C475.552 261.429 479.7 206.802 479.7 206.241L481.176 206.359C481.176 206.905 477.058 261.385 481.176 293.901L479.7 294.093Z" fill="black"/>
<path d="M471.804 186.684C474.298 185.755 473.368 184.367 473.368 184.367C473.368 184.367 462.033 184.367 454.18 186.478C452.985 187.747 454.269 189.43 454.269 189.43C454.269 189.43 464.379 189.459 471.804 186.684Z" fill="#263238"/>
<path opacity="0.2" d="M476.438 184.411C476.438 184.411 471.759 193.061 478.017 200.928C473.058 200.928 469.855 209.385 469.855 209.385C469.855 209.385 460.173 195.924 472.556 185.164C473.25 184.086 476.438 184.411 476.438 184.411Z" fill="black"/>
<path d="M471.435 188.604C470.224 193.888 480.866 203.851 480.866 203.851C480.866 203.851 499.685 194.758 500.881 189.548L471.435 188.604Z" fill="white"/>
<path opacity="0.2" d="M513.914 219.525C511.906 223.393 514.578 240.189 522.327 247.289C522.415 240.352 522.622 232.987 523.065 225.415L513.914 219.525Z" fill="black"/>
<path d="M496.955 158.213L477.531 170.966C479.833 176.604 480.911 182.478 474.269 185.194C473.416 185.537 472.685 186.127 472.171 186.888C471.656 187.65 471.381 188.548 471.381 189.467C471.381 190.386 471.656 191.284 472.171 192.046C472.685 192.807 473.416 193.398 474.269 193.74C476.225 194.452 478.273 194.884 480.35 195.024C486.594 195.63 492.888 194.613 498.623 192.072C499.227 191.771 499.758 191.341 500.179 190.813C500.6 190.285 500.901 189.672 501.062 189.016C501.222 188.36 501.237 187.677 501.106 187.014C500.976 186.352 500.703 185.726 500.306 185.179C495.213 177.977 495.833 165.46 496.955 158.213Z" fill="#FF8B7B"/>
<path opacity="0.2" d="M489.043 163.408L477.545 170.951C478.191 172.493 478.685 174.095 479.021 175.733C483.611 175.467 489.604 171.836 489.722 168.043C489.836 166.467 489.604 164.885 489.043 163.408Z" fill="black"/>
<path d="M475.39 133.888C480.335 133.784 481.678 140.884 479.818 143.29C483.568 144.102 485.383 148.485 484.246 150.67C483.11 152.854 478.771 155.319 474.903 154.345C468.276 152.692 467.14 147.186 468.999 144.677C465.457 141.755 467.258 132.751 475.39 133.888Z" fill="#263238"/>
<path opacity="0.2" d="M475.39 133.888C480.335 133.784 481.678 140.884 479.818 143.29C483.568 144.102 485.383 148.485 484.246 150.67C483.11 152.854 478.771 155.319 474.903 154.345C468.276 152.692 467.14 147.186 468.999 144.677C465.457 141.755 467.258 132.751 475.39 133.888Z" fill="white"/>
<path d="M503.317 145.593C501.841 157.239 501.56 164.131 495.258 169.711C485.767 178.08 471.642 171.644 469.634 159.748C467.804 149.047 470.535 131.792 482.299 127.984C484.905 127.155 487.679 126.997 490.362 127.526C493.046 128.055 495.552 129.254 497.649 131.01C499.745 132.767 501.364 135.024 502.355 137.574C503.346 140.123 503.677 142.882 503.317 145.593Z" fill="#FF8B7B"/>
<path d="M501.914 154.493C496.969 154.493 495.877 147.29 497.766 144.958C494.047 143.999 492.393 139.556 493.545 137.371C494.696 135.187 499.168 132.943 503.006 134.021C509.574 135.91 510.533 141.401 508.629 143.895C512.172 146.995 510.002 155.881 501.914 154.493Z" fill="#263238"/>
<path opacity="0.2" d="M501.914 154.493C496.969 154.493 495.877 147.29 497.766 144.958C494.047 143.999 492.393 139.556 493.545 137.371C494.696 135.187 499.168 132.943 503.006 134.021C509.574 135.91 510.533 141.401 508.629 143.895C512.172 146.995 510.002 155.881 501.914 154.493Z" fill="white"/>
<path opacity="0.2" d="M490.032 147.511C490.626 147.35 491.246 147.307 491.856 147.386C492.467 147.464 493.056 147.663 493.589 147.969C492.385 148.046 491.178 147.89 490.032 147.511Z" fill="black"/>
<path opacity="0.2" d="M490.032 148.309C490.594 148.277 491.157 148.369 491.679 148.578C492.202 148.787 492.673 149.109 493.058 149.519C491.976 149.333 490.945 148.92 490.032 148.309Z" fill="black"/>
<path opacity="0.2" d="M471.538 146.611C471.402 146.531 471.251 146.479 471.095 146.459C470.939 146.439 470.78 146.45 470.628 146.493C470.476 146.536 470.335 146.609 470.212 146.708C470.089 146.807 469.988 146.93 469.914 147.069C470.494 147.137 471.078 146.972 471.538 146.611Z" fill="black"/>
<path opacity="0.2" d="M471.552 147.511C471.552 147.511 470.652 147.379 470.18 148.722C470.744 148.459 471.221 148.039 471.552 147.511Z" fill="black"/>
<path d="M506.829 157.46C505.475 159.896 503.25 161.73 500.601 162.596C497.235 163.57 495.892 160.205 497.103 156.692C498.21 153.548 501.265 149.238 504.483 149.814C507.7 150.39 508.601 154.345 506.829 157.46Z" fill="#FF8B7B"/>
<path d="M487.67 147.512C487.67 148.456 487.065 149.194 486.431 149.15C485.796 149.106 485.353 148.294 485.427 147.335C485.501 146.375 486.032 145.652 486.667 145.696C487.301 145.741 487.744 146.582 487.67 147.512Z" fill="#263238"/>
<path d="M482.948 164.854C481.737 165.09 480.63 164.618 480.483 163.821C480.335 163.024 481.221 162.197 482.431 161.961C483.642 161.725 484.749 162.198 484.896 162.995C485.044 163.792 484.129 164.633 482.948 164.854Z" fill="#263238"/>
<path d="M474.755 146.493C474.755 147.438 474.135 148.176 473.515 148.132C472.895 148.087 472.423 147.275 472.497 146.316C472.571 145.357 473.117 144.633 473.737 144.678C474.357 144.722 474.814 145.534 474.755 146.493Z" fill="#263238"/>
<path d="M477.693 155.998C470.785 156.471 469.457 159.836 470.667 161.312C471.877 162.788 474.829 161.312 474.829 161.312C474.829 161.312 480.423 162.508 482.062 160.722C484.704 161.843 488.733 159.747 487.597 158.153C486.46 156.559 483.612 155.585 477.693 155.998Z" fill="#263238"/>
<path opacity="0.2" d="M477.693 155.998C470.785 156.471 469.457 159.836 470.667 161.312C471.877 162.788 474.829 161.312 474.829 161.312C474.829 161.312 480.423 162.508 482.062 160.722C484.704 161.843 488.733 159.747 487.597 158.153C486.46 156.559 483.612 155.585 477.693 155.998Z" fill="white"/>
<path d="M477.9 147.512C476.573 150.338 474.859 152.966 472.808 155.32C473.427 155.832 474.15 156.205 474.927 156.411C475.705 156.618 476.517 156.653 477.309 156.515L477.9 147.512Z" fill="#FF5652"/>
<path d="M489.752 142.552C489.846 142.54 489.936 142.51 490.018 142.463C490.08 142.423 490.134 142.371 490.176 142.309C490.218 142.248 490.248 142.179 490.263 142.106C490.278 142.033 490.278 141.958 490.264 141.885C490.25 141.812 490.222 141.743 490.18 141.681C489.709 140.917 489.061 140.278 488.29 139.818C487.519 139.358 486.648 139.091 485.752 139.039C485.604 139.039 485.461 139.098 485.356 139.203C485.25 139.309 485.191 139.451 485.191 139.6C485.191 139.749 485.25 139.891 485.356 139.997C485.461 140.102 485.604 140.161 485.752 140.161C486.458 140.212 487.142 140.432 487.745 140.802C488.349 141.171 488.855 141.681 489.221 142.286C489.276 142.376 489.355 142.448 489.449 142.495C489.542 142.542 489.648 142.562 489.752 142.552Z" fill="#263238"/>
<path d="M470.52 141.445C470.613 141.443 470.704 141.419 470.786 141.376C470.868 141.332 470.939 141.27 470.992 141.194C471.37 140.603 471.882 140.11 472.488 139.756C473.094 139.401 473.775 139.196 474.475 139.157C474.624 139.157 474.767 139.098 474.872 138.993C474.977 138.887 475.036 138.745 475.036 138.596C475.036 138.447 474.977 138.305 474.872 138.199C474.767 138.094 474.624 138.035 474.475 138.035C473.587 138.071 472.721 138.32 471.95 138.762C471.179 139.204 470.527 139.826 470.047 140.574C470.006 140.635 469.978 140.703 469.964 140.775C469.95 140.847 469.951 140.92 469.966 140.992C469.981 141.064 470.01 141.131 470.052 141.191C470.094 141.251 470.148 141.302 470.21 141.341C470.298 141.41 470.407 141.447 470.52 141.445Z" fill="#263238"/>
<path d="M489.575 414.373C492.881 361.119 492.143 306.477 486.402 294.581L448.395 294.005C448.395 294.005 453.132 383.037 454.608 418.505C456.158 455.405 459.465 551.345 459.465 551.345L481.457 551.611C481.457 551.611 494.357 455.568 489.575 414.373Z" fill="#263238"/>
<path opacity="0.2" d="M491.213 332.971C478.239 347.14 484.306 386.372 489.959 407.981C491.509 380.955 491.922 354.048 491.213 332.971Z" fill="black"/>
<path d="M481.176 554.386L461.841 554.135C460.616 554.073 459.408 554.432 458.416 555.153C452.808 559.581 448.542 559.714 442.18 560.851C434.55 562.223 438.328 569.899 443.952 569.987C453.25 570.135 452.468 569.795 460.409 569.913L465.9 569.987L468.379 567.463L470.579 569.987H480.734C480.997 569.993 481.259 569.942 481.502 569.839C481.745 569.735 481.962 569.582 482.141 569.388C482.32 569.194 482.455 568.964 482.538 568.713C482.621 568.463 482.65 568.198 482.623 567.935L481.176 554.386Z" fill="#263238"/>
<path d="M482.653 556.363C482.313 556.363 457.28 555.566 457.28 555.566L456.262 546.577L484.025 547.197L482.653 556.363Z" fill="#A7BDE9"/>
<path d="M534.209 414.372C530.135 361.118 528.408 306.92 521.028 295.023L475.198 294.433C475.198 294.433 493.427 382.993 499.833 418.505C506.489 455.405 524.408 551.345 524.408 551.345L546.445 551.611C546.445 551.611 544.644 455.568 534.209 414.372Z" fill="#263238"/>
<path d="M547.493 554.385L528.143 554.134C526.923 554.074 525.72 554.434 524.733 555.153C519.125 559.581 521.693 559.714 515.331 560.85C507.7 562.223 511.464 569.898 517.088 569.987C526.386 570.134 525.619 569.795 533.545 569.913L542.165 569.987L543.301 567.463L544.777 569.987H547.05C547.31 569.986 547.567 569.931 547.805 569.825C548.042 569.719 548.255 569.564 548.428 569.37C548.602 569.177 548.734 568.949 548.814 568.702C548.895 568.455 548.922 568.194 548.895 567.935L547.493 554.385Z" fill="#263238"/>
<path d="M548.954 556.363C548.6 556.363 523.464 555.566 523.464 555.566L521.028 546.519L548.88 547.138L548.954 556.363Z" fill="#A7BDE9"/>
<path d="M477.205 183.363C477.205 183.363 471.759 193.061 478.017 200.928C473.058 200.928 469.811 206.3 469.811 206.3C469.811 206.3 463.213 193.016 472.969 184.16C473.648 183.157 477.205 183.363 477.205 183.363Z" fill="#A7BDE9"/>
<path d="M522.992 299.067C497.058 300.144 467.317 300.469 448.719 299.067C448.617 299.063 448.518 299.035 448.428 298.987C448.339 298.938 448.262 298.87 448.203 298.786C446.983 296.72 446.422 294.331 446.594 291.938C446.609 291.761 446.691 291.598 446.822 291.48C446.954 291.362 447.126 291.299 447.302 291.303C471.848 291.967 496.246 291.938 521.899 291.303C522.04 291.3 522.178 291.34 522.297 291.416C522.415 291.492 522.508 291.602 522.564 291.731C523.421 293.856 523.794 296.145 523.656 298.432C523.645 298.602 523.57 298.761 523.447 298.879C523.324 298.996 523.162 299.063 522.992 299.067Z" fill="#263238"/>
<path opacity="0.2" d="M522.992 299.067C497.058 300.144 467.317 300.469 448.719 299.067C448.617 299.063 448.518 299.035 448.428 298.987C448.339 298.938 448.262 298.87 448.203 298.786C446.983 296.72 446.422 294.331 446.594 291.938C446.609 291.761 446.691 291.598 446.822 291.48C446.954 291.362 447.126 291.299 447.302 291.303C471.848 291.967 496.246 291.938 521.899 291.303C522.04 291.3 522.178 291.34 522.297 291.416C522.415 291.492 522.508 291.602 522.564 291.731C523.421 293.856 523.794 296.145 523.656 298.432C523.645 298.602 523.57 298.761 523.447 298.879C523.324 298.996 523.162 299.063 522.992 299.067Z" fill="black"/>
<path d="M472.32 290.89C472.013 294.153 472.278 297.445 473.103 300.617C478.726 301.488 490.268 300.838 490.268 300.838C490.436 297.567 490.317 294.288 489.914 291.038C481.058 290.683 472.32 290.89 472.32 290.89Z" fill="white"/>
<path d="M524.172 201.71L525.013 202.463L525.677 203.083L526.932 204.293C527.744 205.09 528.482 205.887 529.234 206.699C530.71 208.308 532.113 209.976 533.441 211.659C536.095 214.991 538.559 218.47 540.821 222.079C545.228 229.209 548.949 236.741 551.935 244.573C552.334 245.621 552.644 246.256 553.205 248.042C553.649 249.487 553.965 250.969 554.149 252.47C554.421 255.097 554.386 257.747 554.046 260.367C553.411 264.88 552.221 269.297 550.503 273.518C548.932 277.436 547.087 281.238 544.983 284.898C542.922 288.494 540.619 291.946 538.09 295.23C537.339 296.194 536.269 296.86 535.073 297.11C533.876 297.36 532.629 297.178 531.555 296.595C530.48 296.012 529.647 295.068 529.203 293.928C528.759 292.789 528.734 291.53 529.131 290.374L529.22 290.123C531.779 283.193 533.865 276.096 535.463 268.883C536.187 265.661 536.563 262.37 536.585 259.068C536.588 257.788 536.429 256.514 536.112 255.274C535.75 254.152 535.255 253.076 534.636 252.072C531.382 245.546 527.688 239.249 523.581 233.223C521.559 230.271 519.404 227.319 517.19 224.633C516.083 223.245 514.932 221.932 513.795 220.633L512.083 218.758L511.257 217.887L510.873 217.489L510.622 217.253C508.553 215.454 507.284 212.907 507.093 210.172C506.902 207.437 507.805 204.739 509.604 202.67C511.402 200.601 513.949 199.331 516.684 199.14C519.419 198.949 522.118 199.853 524.186 201.651L524.172 201.71Z" fill="#FF8B7B"/>
<path d="M511.449 188.928C522.947 190.921 534.401 204.618 541.235 217.341C536.522 225.294 529.464 231.595 521.029 235.378C521.029 235.378 507.538 222.241 502.151 212.618C496.763 202.994 500.63 187.053 511.449 188.928Z" fill="#A7BDE9"/>
<path d="M540.837 214.434C541.883 215.665 542.698 217.075 543.242 218.596C540.29 223.024 533.294 234.729 520.497 237.016C519.272 236.302 518.344 235.17 517.885 233.828C517.885 233.828 532.66 226.802 540.837 214.434Z" fill="#263238"/>
<path d="M503.125 187.895C500.748 186.876 501.649 185.533 501.649 185.533C501.649 185.533 512.586 185.917 520.069 188.293C521.176 189.607 519.877 191.245 519.877 191.245C519.877 191.245 510.18 190.921 503.125 187.895Z" fill="#263238"/>
<path opacity="0.2" d="M500.261 185.238C500.261 185.238 497.781 193.888 486.445 200.943C491.405 200.943 494.726 209.991 494.726 209.991C494.726 209.991 505.058 197.858 502.667 185.888C501.973 184.825 500.261 185.238 500.261 185.238Z" fill="black"/>
<path d="M499.936 183.674C499.936 183.674 496.984 193.032 486.445 200.943C491.405 200.943 494.844 206.301 494.844 206.301C494.844 206.301 504.999 197.858 502.667 185.888C501.895 184.994 500.97 184.244 499.936 183.674Z" fill="#A7BDE9"/>
<path d="M510.564 219.201C509.885 231.954 501.811 234.994 500.674 234.994C499.538 234.994 491.818 231.954 492.497 219.201L501.722 215.57L510.564 219.201Z" fill="white"/>
<path d="M530.43 289.355L521.338 297.178L533.397 305.016C533.397 305.016 540.777 296.927 537.116 292.322L530.43 289.355Z" fill="#FF8B7B"/>
<path d="M520.319 309.591L524.998 311.613C525.902 312.006 526.915 312.066 527.858 311.782C528.801 311.498 529.613 310.889 530.15 310.063L533.397 305.015L521.338 297.178L518.194 304.041C517.964 304.544 517.836 305.088 517.819 305.641C517.801 306.194 517.894 306.745 518.092 307.262C518.29 307.779 518.589 308.251 518.971 308.651C519.354 309.051 519.812 309.37 520.319 309.591Z" fill="#FF8B7B"/>
<path d="M468.925 131.467C460.822 132.574 463.538 135.142 481.604 137.445C499.67 139.747 504.201 137.932 504.201 137.932C504.201 137.932 483.449 131.423 468.925 131.467Z" fill="#263238"/>
<path d="M509.796 141.446C509.796 141.446 493.929 134.995 468.925 131.468C468.615 127.793 471.641 123.896 471.641 123.896C471.641 123.896 466.062 121.106 467.789 115.778C469.516 110.45 477.501 111.143 486.814 106.922C490.224 110.671 499.597 116.767 506.002 117.549C507.582 120.811 511.714 128.973 518.416 132.117C518.312 135.674 511.655 136.545 511.655 136.545C511.686 137.444 511.537 138.341 511.217 139.182C510.898 140.023 510.415 140.793 509.796 141.446Z" fill="#A7BDE9"/>
<path opacity="0.3" d="M511.641 136.545C505.84 131.276 485.235 121.652 471.641 123.896C471.641 123.896 468.616 127.807 468.926 131.468C493.929 134.995 509.796 141.445 509.796 141.445C510.413 140.791 510.893 140.022 511.21 139.18C511.527 138.339 511.673 137.443 511.641 136.545Z" fill="black"/>
<path d="M489.206 117.755C487.42 126.847 481.221 128.486 480.35 128.397C479.479 128.309 474.165 125.622 475.922 116.589L483.051 114.611L489.206 117.755Z" fill="white"/>
<path d="M371.583 266.743C370.681 266.742 369.811 266.411 369.137 265.813C368.463 265.215 368.031 264.39 367.922 263.495L357.384 177.607C357.264 176.628 357.539 175.642 358.146 174.866C358.754 174.089 359.645 173.586 360.624 173.467C361.602 173.347 362.588 173.622 363.365 174.229C364.141 174.837 364.644 175.728 364.764 176.707L375.243 262.639C375.305 263.12 375.272 263.609 375.144 264.077C375.016 264.545 374.797 264.982 374.499 265.365C374.202 265.748 373.831 266.068 373.409 266.307C372.987 266.546 372.522 266.699 372.04 266.757L371.583 266.743Z" fill="#263238"/>
<path d="M369.237 228.102C368.336 224.795 370.034 224.308 368.395 219.615C367.525 217.12 370.388 215.187 370.742 217.194C372.071 224.5 381.768 228.589 378.403 233.209C375.037 237.828 370.122 231.408 369.237 228.102Z" fill="#FF8B7B"/>
<path d="M435.02 104.392C437.915 58.2543 402.859 18.5057 356.721 15.6111C310.584 12.7164 270.835 47.7718 267.94 93.9095C265.046 140.047 300.101 179.796 346.239 182.69C392.377 185.585 432.125 150.53 435.02 104.392Z" fill="#A7BDE9"/>
<path d="M415.179 121.711C427.647 86.5202 409.227 47.8841 374.036 35.4154C338.845 22.9466 300.209 41.3667 287.74 76.558C275.271 111.749 293.691 150.385 328.882 162.854C364.074 175.323 402.71 156.903 415.179 121.711Z" fill="white"/>
<path d="M395.376 87.7189C389.826 80.2208 379.14 87.7189 375.937 95.6007C375.067 97.5561 374.495 99.6308 374.24 101.756L370.712 77.6821L367.923 54.8631C367.629 52.905 366.582 51.1389 365.006 49.9405C363.43 48.7421 361.448 48.2061 359.483 48.4465C357.517 48.6869 355.723 49.6847 354.482 51.2277C353.241 52.7706 352.651 54.7369 352.838 56.7081L352.144 51.0255C352.022 50.036 351.706 49.0803 351.215 48.2128C350.723 47.3454 350.066 46.5832 349.28 45.9699C348.494 45.3565 347.595 44.904 346.634 44.6382C345.673 44.3723 344.669 44.2983 343.679 44.4204C342.69 44.5426 341.734 44.8584 340.867 45.3499C339.999 45.8413 339.237 46.4989 338.624 47.2849C338.01 48.0709 337.558 48.9701 337.292 49.931C337.026 50.8919 336.952 51.8958 337.074 52.8853L338.048 60.7967C337.916 59.7259 337.557 58.6955 336.996 57.7741C336.435 56.8526 335.684 56.0612 334.793 55.4525C333.902 54.8437 332.892 54.4316 331.83 54.2434C330.767 54.0553 329.677 54.0955 328.632 54.3613C326.841 54.8207 325.279 55.9156 324.236 57.4418C323.193 58.968 322.741 60.8214 322.964 62.6564L324.174 72.5309C324.044 71.4591 323.687 70.4273 323.126 69.5047C322.566 68.582 321.814 67.7896 320.923 67.1804C320.032 66.5713 319.021 66.1594 317.957 65.9723C316.894 65.7852 315.803 65.8272 314.757 66.0955C312.969 66.552 311.408 67.6446 310.368 69.1688C309.327 70.693 308.878 72.5442 309.104 74.3759L311.525 94.11L313.252 108.265L315.539 126.848C317.163 140.132 322.344 147.63 330.034 151.01C341.842 156.191 363.465 156.25 373.177 148.368C381.679 141.475 387.14 124.87 388.454 114.582C389.767 104.294 397.635 90.7447 395.376 87.7189Z" fill="#263238"/>
<path d="M408.133 40.8615L394.353 30.0908L294.799 157.468L308.579 168.239L408.133 40.8615Z" fill="#A7BDE9"/>
<path d="M118.729 221.43V194.566H138.168V197.696H122.287V205.932H137.15V209.09H122.287V218.227H138.744V221.4L118.729 221.43Z" fill="#263238"/>
<path d="M143.246 221.43V201.961H146.198V204.913C146.695 203.865 147.41 202.934 148.294 202.183C148.911 201.746 149.649 201.514 150.405 201.519C151.615 201.552 152.791 201.925 153.799 202.596L152.663 205.651C151.936 205.2 151.099 204.955 150.242 204.943C149.542 204.932 148.86 205.161 148.309 205.592C147.716 206.047 147.282 206.677 147.069 207.393C146.698 208.643 146.513 209.941 146.523 211.245V221.43H143.246Z" fill="#263238"/>
<path d="M155.748 221.429V201.961H158.7V204.913C159.216 203.835 159.962 202.883 160.885 202.123C161.502 201.688 162.24 201.456 162.995 201.459C164.206 201.492 165.382 201.866 166.39 202.536L165.253 205.592C164.526 205.14 163.689 204.895 162.833 204.883C162.133 204.872 161.45 205.101 160.899 205.533C160.306 205.987 159.873 206.618 159.659 207.333C159.288 208.584 159.104 209.882 159.113 211.186V221.37L155.748 221.429Z" fill="#263238"/>
<path d="M167.054 211.703C167.054 208.101 168.038 205.43 170.006 203.688C171.703 202.231 173.881 201.457 176.116 201.518C177.335 201.475 178.549 201.688 179.681 202.143C180.812 202.598 181.835 203.285 182.685 204.16C183.568 205.143 184.248 206.29 184.686 207.536C185.125 208.783 185.312 210.103 185.238 211.422C185.33 213.452 184.94 215.475 184.102 217.326C183.369 218.742 182.227 219.904 180.825 220.662C179.385 221.461 177.763 221.873 176.116 221.857C174.895 221.907 173.677 221.7 172.541 221.25C171.405 220.8 170.375 220.117 169.519 219.245C167.74 217.151 166.855 214.443 167.054 211.703ZM170.449 211.703C170.299 213.702 170.875 215.688 172.072 217.297C172.583 217.88 173.213 218.347 173.92 218.667C174.626 218.988 175.393 219.153 176.168 219.153C176.944 219.153 177.71 218.988 178.417 218.667C179.123 218.347 179.753 217.88 180.264 217.297C181.478 215.651 182.06 213.623 181.902 211.584C182.043 209.625 181.46 207.682 180.264 206.123C179.752 205.542 179.121 205.077 178.415 204.758C177.709 204.439 176.943 204.274 176.168 204.274C175.393 204.274 174.627 204.439 173.921 204.758C173.215 205.077 172.585 205.542 172.072 206.123C170.878 207.728 170.302 209.708 170.449 211.703Z" fill="#263238"/>
<path d="M189.12 221.43V201.961H192.072V204.913C192.564 203.862 193.28 202.93 194.168 202.183C194.785 201.746 195.523 201.514 196.279 201.519C197.489 201.552 198.665 201.925 199.674 202.596L198.537 205.651C197.809 205.202 196.972 204.957 196.116 204.943C195.412 204.932 194.725 205.161 194.168 205.592C193.58 206.048 193.151 206.679 192.943 207.393C192.564 208.642 192.38 209.941 192.397 211.245V221.43H189.12Z" fill="#263238"/>
<path d="M130.995 254.802V251.939C130.337 252.978 129.422 253.83 128.339 254.411C127.256 254.993 126.04 255.286 124.811 255.26C123.708 255.268 122.616 255.042 121.608 254.596C120.732 254.251 119.963 253.68 119.379 252.943C118.88 252.202 118.533 251.369 118.361 250.493C118.204 249.472 118.14 248.44 118.169 247.408V235.334H121.46V246.124C121.423 247.289 121.492 248.454 121.667 249.607C121.845 250.426 122.311 251.154 122.981 251.659C123.712 252.165 124.586 252.423 125.475 252.397C126.455 252.399 127.419 252.139 128.265 251.644C129.091 251.171 129.74 250.44 130.11 249.563C130.517 248.341 130.697 247.056 130.641 245.769V235.334H133.947V254.802H130.995Z" fill="#263238"/>
<path d="M139.113 254.802V235.334H142.065V238.094C142.73 237.067 143.652 236.23 144.739 235.669C145.826 235.107 147.042 234.839 148.264 234.891C149.374 234.874 150.476 235.091 151.497 235.526C152.372 235.865 153.137 236.437 153.711 237.179C154.216 237.918 154.567 238.752 154.744 239.629C154.892 240.69 154.951 241.761 154.921 242.832V254.802H151.63V242.994C151.669 241.995 151.534 240.996 151.231 240.042C150.973 239.372 150.494 238.81 149.873 238.448C149.176 238.04 148.378 237.835 147.571 237.858C146.233 237.835 144.935 238.309 143.925 239.186C142.907 240.087 142.449 241.784 142.449 244.279V254.906L139.113 254.802Z" fill="#263238"/>
<path d="M172.692 252.396C171.647 253.328 170.449 254.072 169.149 254.595C167.989 255.032 166.758 255.253 165.519 255.244C163.735 255.36 161.973 254.796 160.589 253.665C160.025 253.166 159.579 252.548 159.28 251.857C158.982 251.166 158.839 250.418 158.862 249.665C158.853 248.778 159.064 247.903 159.476 247.117C159.889 246.332 160.489 245.66 161.223 245.163C161.948 244.668 162.752 244.299 163.6 244.071C164.574 243.852 165.559 243.69 166.552 243.584C168.552 243.401 170.53 243.021 172.456 242.447C172.456 241.99 172.456 241.709 172.456 241.577C172.51 241.065 172.455 240.548 172.295 240.06C172.135 239.571 171.873 239.122 171.526 238.743C170.452 237.917 169.112 237.518 167.762 237.621C166.56 237.534 165.36 237.817 164.323 238.433C163.45 239.196 162.871 240.24 162.685 241.385L159.467 240.942C159.685 239.728 160.191 238.584 160.943 237.606C161.717 236.68 162.742 235.998 163.895 235.643C165.32 235.157 166.818 234.923 168.323 234.949C169.7 234.902 171.075 235.102 172.382 235.54C173.26 235.824 174.049 236.333 174.67 237.016C175.19 237.669 175.544 238.439 175.703 239.259C175.836 240.267 175.891 241.284 175.865 242.3V246.728C175.816 248.698 175.885 250.67 176.072 252.632C176.224 253.45 176.508 254.237 176.913 254.964H173.459C173.039 254.166 172.778 253.293 172.692 252.396ZM172.411 245.016C170.669 245.633 168.861 246.049 167.024 246.255C166.017 246.358 165.026 246.581 164.072 246.92C163.54 247.139 163.087 247.515 162.773 247.997C162.467 248.461 162.308 249.006 162.316 249.562C162.308 249.979 162.392 250.392 162.563 250.772C162.734 251.153 162.987 251.49 163.305 251.761C164.144 252.414 165.197 252.73 166.257 252.647C167.442 252.668 168.613 252.378 169.651 251.805C170.6 251.289 171.364 250.489 171.836 249.517C172.244 248.47 172.425 247.348 172.367 246.226L172.411 245.016Z" fill="#263238"/>
<path d="M193.636 254.802V251.939C192.979 252.978 192.064 253.83 190.98 254.411C189.897 254.993 188.681 255.286 187.452 255.26C186.345 255.267 185.248 255.04 184.234 254.596C183.365 254.247 182.602 253.677 182.02 252.943C181.509 252.209 181.161 251.373 181.002 250.493C180.839 249.473 180.77 248.44 180.795 247.408V235.334H184.101V246.124C184.064 247.289 184.134 248.454 184.308 249.607C184.486 250.426 184.952 251.154 185.622 251.659C186.353 252.165 187.227 252.423 188.116 252.397C189.097 252.399 190.06 252.139 190.906 251.644C191.732 251.171 192.381 250.44 192.751 249.563C193.158 248.341 193.339 247.056 193.282 245.769V235.334H196.588V254.802H193.636Z" fill="#263238"/>
<path d="M208.958 251.85L209.445 254.802C208.627 254.99 207.79 255.089 206.95 255.097C205.988 255.147 205.029 254.954 204.161 254.536C203.549 254.206 203.057 253.689 202.759 253.06C202.411 251.798 202.277 250.486 202.36 249.179V237.976H199.939V235.334H202.36V230.507L205.637 228.529V235.334H208.958V237.902H205.637V249.356C205.597 249.966 205.657 250.58 205.814 251.171C205.93 251.44 206.133 251.664 206.39 251.806C206.734 251.99 207.122 252.077 207.511 252.057C207.998 252.022 208.481 251.953 208.958 251.85Z" fill="#263238"/>
<path d="M212.19 254.802V227.924H215.497V237.547C216.205 236.692 217.097 236.008 218.106 235.545C219.116 235.083 220.217 234.854 221.327 234.876C222.633 234.841 223.928 235.135 225.091 235.732C226.091 236.241 226.895 237.066 227.378 238.079C227.908 239.492 228.139 241 228.057 242.507V254.846H224.766V242.507C224.876 241.213 224.491 239.926 223.688 238.905C223.288 238.516 222.811 238.216 222.287 238.023C221.763 237.829 221.205 237.748 220.648 237.784C219.677 237.783 218.724 238.043 217.888 238.536C217.066 239.004 216.423 239.731 216.058 240.603C215.639 241.75 215.449 242.969 215.497 244.189V254.846L212.19 254.802Z" fill="#263238"/>
<path d="M231.836 245.06C231.836 241.459 232.82 238.792 234.788 237.06C236.49 235.602 238.673 234.829 240.913 234.891C242.14 234.846 243.362 235.059 244.502 235.517C245.641 235.975 246.671 236.666 247.526 237.547C248.411 238.532 249.092 239.681 249.53 240.93C249.969 242.179 250.155 243.503 250.079 244.824C250.17 246.853 249.786 248.874 248.957 250.728C248.225 252.152 247.077 253.321 245.666 254.079C244.231 254.876 242.614 255.288 240.972 255.274C239.747 255.325 238.525 255.118 237.386 254.665C236.247 254.213 235.215 253.525 234.36 252.647C232.547 250.552 231.64 247.824 231.836 245.06ZM235.231 245.06C235.081 247.064 235.657 249.055 236.854 250.669C237.359 251.266 237.991 251.742 238.703 252.064C239.416 252.386 240.191 252.545 240.972 252.529C241.751 252.544 242.523 252.383 243.231 252.058C243.938 251.734 244.564 251.254 245.061 250.654C246.266 249.011 246.842 246.989 246.684 244.957C246.826 242.993 246.243 241.045 245.046 239.481C244.535 238.898 243.905 238.43 243.199 238.11C242.492 237.79 241.726 237.624 240.95 237.624C240.175 237.624 239.408 237.79 238.702 238.11C237.995 238.43 237.365 238.898 236.854 239.481C235.654 241.082 235.077 243.065 235.231 245.06Z" fill="#263238"/>
<path d="M253.872 254.802V235.333H256.824V238.285C257.312 237.231 258.028 236.299 258.92 235.555C259.537 235.118 260.275 234.886 261.031 234.891C262.24 234.919 263.416 235.287 264.425 235.953L263.289 239.023C262.565 238.561 261.727 238.311 260.868 238.3C260.169 238.294 259.488 238.522 258.935 238.95C258.346 239.408 257.912 240.037 257.695 240.75C257.325 242.001 257.141 243.299 257.149 244.603V254.802H253.872Z" fill="#263238"/>
<path d="M266.463 231.717V227.924H269.769V231.717H266.463ZM266.463 254.802V235.333H269.769V254.802H266.463Z" fill="#263238"/>
<path d="M273.061 254.802V252.131L285.459 237.902C283.983 237.902 282.802 238.006 281.739 238.006H273.799V235.334H289.71V237.548L279.171 249.902L277.134 252.16C278.61 252.042 279.998 251.983 281.297 251.983H290.3V254.832L273.061 254.802Z" fill="#263238"/>
<path d="M306.89 248.529L310.299 248.957C309.866 250.79 308.826 252.424 307.347 253.592C305.726 254.742 303.769 255.323 301.783 255.245C300.531 255.309 299.28 255.107 298.112 254.651C296.944 254.196 295.886 253.497 295.008 252.603C293.232 250.569 292.33 247.917 292.499 245.223C292.328 242.447 293.238 239.712 295.037 237.592C295.87 236.695 296.887 235.988 298.018 235.519C299.149 235.05 300.368 234.831 301.591 234.876C302.784 234.835 303.972 235.052 305.075 235.51C306.178 235.968 307.169 236.658 307.982 237.533C309.733 239.618 310.616 242.298 310.447 245.016C310.447 245.208 310.447 245.503 310.447 245.902H295.923C295.929 247.698 296.572 249.435 297.739 250.802C298.26 251.357 298.892 251.796 299.593 252.091C300.295 252.386 301.051 252.53 301.812 252.514C302.923 252.543 304.012 252.206 304.912 251.555C305.851 250.759 306.538 249.708 306.89 248.529ZM296.056 243.2H306.919C306.884 241.874 306.452 240.589 305.679 239.51C305.191 238.899 304.568 238.408 303.859 238.078C303.15 237.748 302.373 237.586 301.591 237.606C300.887 237.582 300.186 237.7 299.529 237.954C298.872 238.208 298.273 238.591 297.768 239.082C296.69 240.185 296.077 241.659 296.056 243.2Z" fill="#263238"/>
<path d="M327.067 254.802V252.307C326.51 253.245 325.71 254.015 324.751 254.535C323.792 255.055 322.71 255.305 321.62 255.259C320.098 255.266 318.607 254.819 317.34 253.975C316.015 253.086 314.967 251.844 314.314 250.388C313.579 248.726 313.216 246.922 313.251 245.104C313.227 243.291 313.558 241.491 314.226 239.806C314.8 238.313 315.834 237.041 317.178 236.175C318.468 235.334 319.977 234.892 321.517 234.905C322.61 234.887 323.69 235.141 324.661 235.643C325.537 236.116 326.298 236.776 326.89 237.577V227.938H330.181V254.816L327.067 254.802ZM316.646 245.09C316.491 247.076 317.045 249.053 318.211 250.669C318.651 251.239 319.214 251.702 319.858 252.024C320.502 252.346 321.21 252.519 321.93 252.529C322.637 252.532 323.336 252.375 323.973 252.068C324.609 251.761 325.168 251.313 325.606 250.757C326.724 249.189 327.247 247.274 327.082 245.355C327.275 243.277 326.754 241.194 325.606 239.451C325.162 238.866 324.588 238.392 323.93 238.067C323.271 237.742 322.547 237.574 321.812 237.577C321.102 237.57 320.399 237.729 319.761 238.042C319.123 238.354 318.567 238.812 318.137 239.377C317.001 241.055 316.475 243.071 316.646 245.09Z" fill="#263238"/>
</svg>
