<svg width="40" height="40" viewBox="0 0 40 40" fill="none" xmlns="http://www.w3.org/2000/svg">
<path d="M26.6663 3.33301V9.99967M13.333 3.33301V9.99967" stroke="#142938" stroke-width="2.5" stroke-linecap="round" stroke-linejoin="round"/>
<path d="M35 21.667V20.0003C35 13.7149 35 10.5722 33.0473 8.61961C31.0948 6.66699 27.952 6.66699 21.6667 6.66699H18.3333C12.0479 6.66699 8.90525 6.66699 6.95262 8.61961C5 10.5722 5 13.7149 5 20.0003V23.3337C5 29.619 5 32.7618 6.95262 34.7143C8.90525 36.667 12.0479 36.667 18.3333 36.667" stroke="#142938" stroke-width="2.5" stroke-linecap="round" stroke-linejoin="round"/>
<path d="M5 16.667H35" stroke="#142938" stroke-width="2.5" stroke-linecap="round" stroke-linejoin="round"/>
<path d="M21.667 32.5003C21.667 32.5003 23.9145 33.3448 25.0003 36.667C25.0003 36.667 30.2945 28.3337 35.0003 26.667" stroke="#142938" stroke-width="2.5" stroke-linecap="round" stroke-linejoin="round"/>
</svg>
