<svg width="972" height="1053" viewBox="0 0 972 1053" fill="none" xmlns="http://www.w3.org/2000/svg">
<mask id="path-1-inside-1_2047_996" fill="white">
<path d="M832 0C854.091 0 872 17.9086 872 40V60C872 82.0914 889.909 100 912 100H932C954.091 100 972 117.909 972 140V993C972 1026.14 945.137 1053 912 1053H60C26.8629 1053 8.94028e-07 1026.14 0 993V60C9.37521e-06 26.8629 26.8629 2.41598e-07 60 0H832Z"/>
</mask>
<path d="M972 993L973 993V993H972ZM912 1053L912 1054L912 1053ZM60 1053L60 1054H60V1053ZM0 993L-1 993L-1 993L0 993ZM0 60L-1 60V60H0ZM60 0L60 -1L60 0ZM872 40H871V60H872H873V40H872ZM912 100V101H932V100V99H912V100ZM972 140H971V993H972H973V140H972ZM972 993L971 993C971 1025.58 944.585 1052 912 1052L912 1053L912 1054C945.689 1054 973 1026.69 973 993L972 993ZM912 1053V1052H60V1053V1054H912V1053ZM60 1053L60 1052C27.4152 1052 1 1025.58 1 993L0 993L-1 993C-0.999999 1026.69 26.3106 1054 60 1054L60 1053ZM0 993H1V60H0H-1V993H0ZM0 60L1 60C1.00001 27.4152 27.4152 1 60 1L60 0L60 -1C26.3106 -1 -0.99999 26.3106 -1 60L0 60ZM60 0V1H832V0V-1H60V0ZM932 100V101C953.539 101 971 118.461 971 140H972H973C973 117.356 954.644 99 932 99V100ZM872 60H871C871 82.6437 889.356 101 912 101V100V99C890.461 99 873 81.5391 873 60H872ZM872 40H873C873 17.3563 854.644 -1 832 -1V0V1C853.539 1 871 18.4609 871 40H872Z" fill="black" mask="url(#path-1-inside-1_2047_996)"/>
</svg>
