<svg width="40" height="40" viewBox="0 0 40 40" fill="none" xmlns="http://www.w3.org/2000/svg">
<path d="M33.3327 36.6667V31.6667C33.3327 28.524 33.3327 26.9527 32.3563 25.9763C31.38 25 29.8087 25 26.666 25H23.3327L19.9993 28.3333L16.666 25H13.3327C10.19 25 8.61863 25 7.64233 25.9763C6.66602 26.9527 6.66602 28.524 6.66602 31.6667V36.6667" stroke="#142938" stroke-width="2.5" stroke-linecap="round" stroke-linejoin="round"/>
<path d="M26.666 25V36.6667" stroke="#142938" stroke-width="2.5" stroke-linecap="round" stroke-linejoin="round"/>
<path d="M13.334 25V36.6667" stroke="#142938" stroke-width="2.5" stroke-linecap="round" stroke-linejoin="round"/>
<path d="M25.8327 15.0002V11.6668C25.8327 8.44516 23.221 5.8335 19.9993 5.8335C16.7777 5.8335 14.166 8.44516 14.166 11.6668V15.0002C14.166 18.2218 16.7777 20.8335 19.9993 20.8335C23.221 20.8335 25.8327 18.2218 25.8327 15.0002Z" stroke="#142938" stroke-width="2.5" stroke-linecap="round" stroke-linejoin="round"/>
<path d="M12.5 12.5H27.5" stroke="#142938" stroke-width="2.5" stroke-linecap="round" stroke-linejoin="round"/>
<path d="M20 3.3335V5.8335" stroke="#142938" stroke-width="2.5" stroke-linecap="round" stroke-linejoin="round"/>
</svg>
