<svg width="466" height="132" viewBox="0 0 466 132" fill="none" xmlns="http://www.w3.org/2000/svg">
<path d="M59.93 85.9098H46.48L30.63 49.3398L30.39 49.3798L24.96 85.9098H11.47L20.17 27.7798H33.66L49.47 64.3098L49.71 64.2698L55.18 27.7798H68.63L59.93 85.9098Z" fill="#231F20"/>
<path d="M87.44 86.7498C81.16 86.7498 76.39 84.7498 73.15 80.7398C69.9 76.7398 68.73 71.7398 69.64 65.7498L69.84 64.2298C70.85 57.3898 73.4 51.9498 77.49 47.9198C81.58 43.8898 86.96 41.8898 93.64 41.9098C99.23 41.9098 103.42 43.6698 106.22 47.1998C109.01 50.7298 109.97 55.4798 109.09 61.4698L108.01 68.5398H83.22L83.14 68.7798C83.01 71.0998 83.57 72.9398 84.82 74.3098C86.07 75.6798 88.08 76.3698 90.85 76.3698C93.33 76.3698 95.49 76.1498 97.36 75.7098C99.22 75.2698 101.3 74.5998 103.59 73.6898L105.59 81.9098C103.54 83.2698 100.87 84.4098 97.59 85.3398C94.3 86.2698 90.93 86.7398 87.47 86.7398L87.44 86.7498ZM92.07 52.2998C89.99 52.2998 88.34 52.9898 87.1 54.3598C85.86 55.7298 84.96 57.5698 84.41 59.8898L84.49 60.1298H96.11L96.27 59.0898C96.62 56.7698 96.48 55.0698 95.85 53.9598C95.22 52.8598 93.97 52.2998 92.08 52.2998H92.07Z" fill="#231F20"/>
<path d="M139.78 64.0802L155.51 42.7202H140.38L133 55.4602L132.76 55.4102L129.41 42.7202H114.36L123.55 63.6502L123.8 63.9802L126.77 60.1602L124.3 58.2402L134.97 58.0002L137.36 68.3902L135.08 66.6202L130.44 72.5702L130.51 72.6502L130.33 72.7802H130.57L134.36 85.9202H149.49L140.24 65.1102L139.78 64.0802Z" fill="#231F20"/>
<path d="M182.98 48.2299C184.63 46.2099 186.57 44.6499 188.79 43.5599C191.01 42.4699 193.47 41.9199 196.16 41.9199C198.85 41.9199 200.88 42.4999 202.67 43.6599C204.45 44.8199 205.68 46.5799 206.34 48.9499C207.99 46.6899 209.96 44.9499 212.25 43.7399C214.54 42.5299 217.11 41.9199 219.96 41.9199C224.01 41.9199 227.05 43.4399 229.08 46.4899C231.12 49.5399 231.67 54.1799 230.74 60.3999L226.91 85.9099H213.38L217.21 60.3999C217.69 57.1799 217.59 55.0199 216.91 53.9299C216.23 52.8399 215 52.2899 213.22 52.2899C211.94 52.2899 210.77 52.5399 209.69 53.0299C208.61 53.5199 207.66 54.1899 206.84 55.0499L206.6 57.0899L202.29 85.9099H188.8L192.63 60.3999C193.11 57.1799 193.01 55.0199 192.33 53.9299C191.65 52.8399 190.41 52.2899 188.6 52.2899C187.43 52.2899 186.31 52.5299 185.25 53.0099C184.19 53.4899 183.21 54.1499 182.34 55.0099L177.71 85.9099H164.22L170.69 42.7099H183.39L183.03 48.2199L182.98 48.2299Z" fill="#231F20"/>
<path d="M259.56 85.8699C259.21 84.9699 258.94 83.9399 258.74 82.7999C258.54 81.6599 258.44 80.4599 258.44 79.2099C256.92 81.4999 255.21 83.3299 253.29 84.6999C251.37 86.0699 249.03 86.7599 246.26 86.7599C241.9 86.7599 238.59 85.5799 236.36 83.2299C234.12 80.8699 233.3 77.7099 233.88 73.7499C234.55 69.3099 236.63 65.9599 240.15 63.7099C243.66 61.4599 248.73 60.3399 255.36 60.3399H260.91L261.39 57.2699C261.66 55.3499 261.43 53.9199 260.71 52.9799C259.99 52.0399 258.71 51.5599 256.88 51.5599C255.36 51.5599 254.15 51.9299 253.25 52.6799C252.35 53.4299 251.79 54.5599 251.57 56.0699L238.48 56.0299L238.44 55.7899C238.89 51.6899 241.03 48.3599 244.85 45.7899C248.67 43.2199 253.45 41.9399 259.2 41.9399C264.36 41.9399 268.45 43.2799 271.46 45.9699C274.47 48.6599 275.6 52.4499 274.85 57.3499L272.41 73.6399C272.04 76.0099 271.9 78.1499 272.01 80.0499C272.12 81.9499 272.41 83.9199 272.89 85.9399L259.56 85.8999V85.8699ZM251.38 77.1299C252.95 77.1299 254.45 76.7399 255.87 75.9499C257.29 75.1699 258.34 74.2399 259 73.1799L259.84 67.5099H254.41C252.36 67.5099 250.75 68.0399 249.58 69.0899C248.41 70.1399 247.7 71.4499 247.46 73.0199C247.27 74.2999 247.55 75.2999 248.28 76.0299C249.01 76.7599 250.04 77.1299 251.37 77.1299H251.38Z" fill="#231F20"/>
<path d="M296.48 48.5802C298.21 46.4502 300.2 44.8102 302.45 43.6502C304.7 42.4902 307.1 41.9102 309.66 41.9102C313.73 41.9102 316.78 43.3602 318.8 46.2602C320.82 49.1602 321.38 53.7102 320.48 59.9102L316.57 85.9002H303.08L306.99 59.8702C307.42 57.0202 307.28 55.0502 306.57 53.9402C305.86 52.8402 304.66 52.2802 302.96 52.2802C301.55 52.2802 300.23 52.5502 299.01 53.0802C297.79 53.6102 296.71 54.3402 295.78 55.2802L291.19 85.9002H277.74L284.21 42.7002H296.86L296.5 48.5702L296.48 48.5802Z" fill="#231F20"/>
<path d="M348.86 85.8699C348.51 84.9699 348.24 83.9399 348.04 82.7999C347.84 81.6599 347.74 80.4599 347.74 79.2099C346.22 81.4999 344.51 83.3299 342.59 84.6999C340.67 86.0699 338.33 86.7599 335.56 86.7599C331.2 86.7599 327.89 85.5799 325.66 83.2299C323.42 80.8699 322.6 77.7099 323.18 73.7499C323.85 69.3099 325.93 65.9599 329.45 63.7099C332.96 61.4599 338.03 60.3399 344.66 60.3399H350.21L350.69 57.2699C350.96 55.3499 350.73 53.9199 350.01 52.9799C349.29 52.0399 348.01 51.5599 346.18 51.5599C344.66 51.5599 343.45 51.9299 342.55 52.6799C341.65 53.4299 341.09 54.5599 340.87 56.0699L327.78 56.0299L327.74 55.7899C328.19 51.6899 330.33 48.3599 334.15 45.7899C337.97 43.2199 342.75 41.9399 348.5 41.9399C353.66 41.9399 357.75 43.2799 360.76 45.9699C363.77 48.6599 364.9 52.4499 364.15 57.3499L361.71 73.6399C361.34 76.0099 361.2 78.1499 361.31 80.0499C361.42 81.9499 361.71 83.9199 362.19 85.9399L348.86 85.8999V85.8699ZM340.68 77.1299C342.25 77.1299 343.75 76.7399 345.17 75.9499C346.59 75.1699 347.64 74.2399 348.3 73.1799L349.14 67.5099H343.71C341.66 67.5099 340.05 68.0399 338.88 69.0899C337.71 70.1399 337 71.4499 336.76 73.0199C336.57 74.2999 336.85 75.2999 337.58 76.0299C338.31 76.7599 339.34 77.1299 340.67 77.1299H340.68Z" fill="#231F20"/>
<path d="M368.66 64.3902C369.7 57.4202 371.97 51.9302 375.49 47.9202C379 43.9102 383.46 41.9102 388.86 41.9102C391.07 41.9102 392.95 42.4702 394.51 43.5902C396.07 44.7102 397.34 46.2902 398.32 48.3402L400.08 42.7102H411.98L405.59 85.4302C404.68 91.3402 402.08 95.8002 397.76 98.8202C393.45 101.84 387.83 103.35 380.91 103.35C378.75 103.35 376.47 103.04 374.04 102.43C371.62 101.82 369.4 100.99 367.37 99.9602L371.2 89.9802C373.01 90.8302 374.77 91.4602 376.47 91.8802C378.17 92.2902 380.17 92.5002 382.46 92.5002C385.23 92.5002 387.42 91.9202 389.05 90.7602C390.67 89.6002 391.67 87.8002 392.04 85.3502L392.52 82.0402C391.06 83.5802 389.46 84.7502 387.73 85.5502C386 86.3502 384.11 86.7502 382.06 86.7502C376.95 86.7502 373.17 84.7502 370.72 80.7602C368.27 76.7702 367.54 71.5902 368.52 65.2302L368.64 64.3902H368.66ZM381.99 65.2302C381.43 68.8502 381.52 71.6102 382.25 73.5102C382.98 75.4102 384.59 76.3602 387.06 76.3602C388.5 76.3602 389.78 76.1202 390.91 75.6402C392.04 75.1602 393.01 74.4402 393.8 73.4802L396.51 55.4802C396 54.4402 395.27 53.6502 394.31 53.1002C393.35 52.5602 392.15 52.2802 390.72 52.2802C388.43 52.2802 386.55 53.4002 385.09 55.6502C383.63 57.9002 382.63 60.8102 382.1 64.3702L381.98 65.2102L381.99 65.2302Z" fill="#231F20"/>
<path d="M432.26 86.7498C425.98 86.7498 421.22 84.7498 417.97 80.7398C414.72 76.7398 413.55 71.7398 414.46 65.7498L414.66 64.2298C415.67 57.3898 418.22 51.9498 422.31 47.9198C426.39 43.8898 431.78 41.8898 438.46 41.9098C444.05 41.9098 448.24 43.6698 451.04 47.1998C453.83 50.7298 454.79 55.4798 453.91 61.4698L452.83 68.5398H428.04L427.96 68.7798C427.83 71.0998 428.39 72.9398 429.64 74.3098C430.89 75.6798 432.9 76.3698 435.67 76.3698C438.15 76.3698 440.31 76.1498 442.18 75.7098C444.04 75.2698 446.12 74.5998 448.41 73.6898L450.41 81.9098C448.36 83.2698 445.69 84.4098 442.41 85.3398C439.12 86.2698 435.75 86.7398 432.29 86.7398L432.26 86.7498ZM436.89 52.2998C434.81 52.2998 433.16 52.9898 431.92 54.3598C430.68 55.7298 429.78 57.5698 429.23 59.8898L429.31 60.1298H440.93L441.09 59.0898C441.44 56.7698 441.3 55.0698 440.67 53.9598C440.04 52.8598 438.79 52.2998 436.9 52.2998H436.89Z" fill="#231F20"/>
</svg>
