<svg width="539" height="577" viewBox="0 0 539 577" fill="none" xmlns="http://www.w3.org/2000/svg">
<path d="M479.365 399.488H513.583V384.237H479.365V399.488Z" fill="#EBEBEB"/>
<path d="M498.46 418.719L515.711 418.337L524.214 418.188C527.044 418.119 529.862 418.188 532.679 418.106L532.097 418.719V403.468L532.743 404.149L515.634 404.068C509.935 404.068 504.223 403.904 498.524 403.836L498.873 403.468C498.873 405.962 498.77 408.47 498.705 411.005L498.46 418.719ZM498.46 418.719L498.227 411.237C498.162 408.702 498.072 406.126 498.059 403.536V403.059H498.421C504.12 402.977 509.832 402.841 515.53 402.827L532.64 402.746H533.286V403.427L533.208 418.678V419.292H532.64C529.758 419.292 526.863 419.292 523.982 419.223L515.375 419.073L498.46 418.719Z" fill="#EBEBEB"/>
<path d="M246.419 268.92L263.683 268.539L272.173 268.389C275.003 268.321 277.821 268.389 280.638 268.321L280.056 268.92L279.992 253.669L280.638 254.351L263.528 254.269C257.829 254.269 252.118 254.119 246.419 254.037L246.768 253.669C246.768 256.163 246.664 258.671 246.6 261.22L246.419 268.92ZM246.419 268.92L246.238 261.315C246.173 258.78 246.096 256.204 246.07 253.615V253.247H246.432C252.131 253.178 257.842 253.029 263.541 253.015L280.651 252.933H281.297V253.615L281.232 268.866V269.493H280.664C277.782 269.493 274.887 269.493 272.018 269.411L263.399 269.261L246.419 268.92Z" fill="#EBEBEB"/>
<path d="M265.508 288.15H299.727V272.899H265.508V288.15Z" fill="#EBEBEB"/>
<path d="M227.036 288.15L244.301 287.769L252.804 287.619C255.634 287.551 258.438 287.619 261.255 287.551L260.687 288.15L260.609 272.899L261.255 273.581L244.146 273.499C238.447 273.499 232.748 273.349 227.036 273.267L227.398 272.899C227.398 275.393 227.282 277.901 227.23 280.45L227.036 288.15ZM227.036 288.15L226.855 280.6C226.855 278.065 226.713 275.489 226.688 272.899V272.531H227.036C232.748 272.531 238.447 272.313 244.146 272.3L261.255 272.218H261.914V272.899L261.85 288.15V288.764H261.268C258.387 288.764 255.492 288.764 252.623 288.682L244.017 288.532L227.036 288.15Z" fill="#EBEBEB"/>
<path d="M299.103 94.9839H333.322V79.7327H299.103V94.9839Z" fill="#EBEBEB"/>
<path d="M6.31864 418.719L23.5832 418.337L32.0862 418.188C34.9033 418.119 37.7205 418.188 40.5376 418.106L39.969 418.719L39.8914 403.468L40.5376 404.149L23.4281 404.068C17.7293 404.068 12.0175 403.904 6.31864 403.836L6.66755 403.468C6.66755 405.962 6.56416 408.47 6.49955 411.005L6.31864 418.719ZM6.31864 418.719L6.13772 411.237C6.07311 408.702 5.99557 406.126 5.96973 403.536V403.059H6.31864C12.0175 402.977 17.7293 402.841 23.4281 402.827L40.5376 402.746H41.1837V403.427V418.678V419.292H40.6022C37.7205 419.292 34.8258 419.292 31.957 419.223L23.3506 419.073L6.31864 418.719Z" fill="#EBEBEB"/>
<path d="M25.4054 32.6157L42.6699 32.2341L51.173 32.0842C54.003 32.016 56.8072 32.0842 59.6243 32.0024L59.0557 32.6157L58.9782 17.3509L59.6243 18.0324L42.5148 17.9506C36.816 17.9506 31.1171 17.7871 25.4054 17.7189L25.7672 17.3509C25.7672 19.8451 25.6509 22.3529 25.5863 24.9016L25.4054 32.6157ZM25.4054 32.6157L25.2632 25.0651C25.2632 22.5301 25.1211 19.9541 25.0952 17.3646V16.9966H25.4441C31.1559 16.9284 36.8547 16.7785 42.5536 16.7649L59.6631 16.6831H60.3221V17.3509L60.1541 32.6157V33.229H59.5726C56.6909 33.229 53.7962 33.229 50.9274 33.1473L42.321 32.9973L25.4054 32.6157Z" fill="#EBEBEB"/>
<path d="M6.3167 51.8467L40.5356 51.8467V36.5955H6.3167V51.8467Z" fill="#EBEBEB"/>
<path d="M498.46 32.6157L515.711 32.2341L524.214 32.0842C527.044 32.016 529.862 32.0842 532.679 32.0024L532.097 32.6157V17.3646L532.743 18.046L515.634 17.9643C509.935 17.9643 504.223 17.8007 498.524 17.7326L498.873 17.3646C498.873 19.8587 498.77 22.3665 498.705 24.9152L498.46 32.6157ZM498.46 32.6157L498.227 25.0651C498.162 22.5301 498.072 19.9541 498.059 17.3646V16.9966H498.421C504.12 16.9284 509.832 16.7785 515.53 16.7649L532.64 16.6831H533.286V17.3509L533.247 32.6157V33.229H532.679C529.797 33.229 526.902 33.229 524.021 33.1473L515.414 32.9973L498.46 32.6157Z" fill="#EBEBEB"/>
<path d="M165.176 468.167H72.1982V576.751H165.176V468.167Z" fill="#EBEBEB"/>
<path d="M24.2022 576.764H72.2095L72.2095 468.166H24.2022L24.2022 576.764Z" fill="#DBDBDB"/>
<path d="M27.4961 569.336C31.0627 561.613 34.5863 553.889 38.0668 546.166L48.5211 522.683L58.8591 499.227C62.3052 491.395 65.6823 483.535 68.9904 475.648C65.4238 483.372 61.9003 491.118 58.4198 498.886L48.0042 522.247L37.6661 545.703C34.2287 553.544 30.8387 561.422 27.4961 569.336Z" fill="#EBEBEB"/>
<path d="M27.4961 475.648C30.8387 483.544 34.2158 491.404 37.6274 499.227L47.9654 522.683L58.381 546.044C61.8701 553.812 65.3937 561.536 68.9517 569.213C65.609 561.327 62.2319 553.467 58.8204 545.635L48.4823 522.179L38.0668 498.818C34.5777 491.095 31.0541 483.372 27.4961 475.648Z" fill="#EBEBEB"/>
<path d="M165.176 304.165H72.1982V405.267H165.176V304.165Z" fill="#EBEBEB"/>
<path d="M24.2022 405.281H72.2095L72.2095 304.165H24.2022L24.2022 405.281Z" fill="#DBDBDB"/>
<path d="M110.798 327.635H112.775H114.249L115.089 325.822L116.277 327.635L117.88 323.914L119.405 327.635H123.76H125.737L126.46 325.154L127.132 327.635H128.425V304.165H110.798V327.635Z" fill="#DBDBDB"/>
<path d="M27.4961 398.834C31.0627 391.656 34.5863 384.433 38.0668 377.164L48.4823 355.357L58.8204 333.55C62.2664 326.281 65.6435 318.962 68.9517 311.593C65.385 318.79 61.8615 326.004 58.381 333.237L47.9654 354.975L37.6274 376.782C34.2158 384.133 30.8387 391.483 27.4961 398.834Z" fill="#EBEBEB"/>
<path d="M27.4961 311.648C30.8387 318.98 34.2158 326.281 37.6274 333.55L47.9654 355.357L58.381 377.164C61.8701 384.433 65.3937 391.647 68.9517 398.807C65.609 391.465 62.2319 384.147 58.8204 376.85L48.4823 355.044L38.0668 333.305C34.5777 326.063 31.0541 318.844 27.4961 311.648Z" fill="#EBEBEB"/>
<path d="M78.3218 398.998H88.647V388.108H78.3218V398.998Z" fill="white"/>
<path d="M158.982 405.281H66.0044V468.166H158.982V405.281Z" fill="#DBDBDB"/>
<path d="M17.9971 468.167H66.0044L66.0044 405.281H17.9971L17.9971 468.167Z" fill="#C7C7C7"/>
<path d="M104.608 428.75H106.573H108.059L108.899 426.938L110.088 428.75L111.69 425.03L113.215 428.75H117.557H119.547L120.258 426.27L120.943 428.75H122.235V405.281H104.608V428.75Z" fill="white"/>
<path d="M21.3101 464.39C24.8681 459.847 28.3916 455.263 31.8807 450.638L42.2963 436.818L52.6344 422.93C56.0287 418.296 59.4015 413.644 62.7527 408.974C59.2033 413.517 55.6798 418.101 52.1821 422.726L41.7665 436.559L31.4284 450.434C28.0255 455.095 24.6527 459.747 21.3101 464.39Z" fill="#DBDBDB"/>
<path d="M21.3101 409.014C24.6613 413.684 28.0384 418.336 31.4413 422.97L41.7794 436.858L52.195 450.678C55.641 455.276 59.1559 459.846 62.7398 464.389C59.4058 459.719 56.033 455.067 52.6214 450.433L42.2834 436.558L31.8678 422.725C28.3873 418.163 24.8681 413.593 21.3101 409.014Z" fill="#DBDBDB"/>
<path d="M520.996 481.768H428.019V576.764H520.996V481.768Z" fill="#DBDBDB"/>
<path d="M380.026 576.764H428.034V481.768H380.026V576.764Z" fill="#C7C7C7"/>
<path d="M466.623 505.238H468.587H470.073L470.913 503.425L472.102 505.238L473.704 501.517L475.229 505.238H479.571H481.561L482.285 502.744L482.957 505.238H484.249V481.768H466.623V505.238Z" fill="white"/>
<path d="M383.32 571.108C386.878 564.211 390.402 557.287 393.891 550.337L404.307 529.456L414.645 508.495C418.091 501.489 421.463 494.466 424.763 487.424C421.214 494.32 417.69 501.244 414.192 508.195L403.777 529.061L393.503 550.037C390.092 557.042 386.697 564.066 383.32 571.108Z" fill="#DBDBDB"/>
<path d="M383.32 487.424C386.672 494.466 390.049 501.489 393.452 508.495L403.725 529.456L414.141 550.337C417.63 557.287 421.153 564.211 424.711 571.108C421.377 564.057 418.004 557.033 414.593 550.037L404.255 529.061L393.839 508.195C390.385 501.244 386.878 494.32 383.32 487.424Z" fill="#DBDBDB"/>
<path d="M359.336 11.8989V243.733H510.607V11.8989H359.336ZM505.025 237.777H364.918V17.7186H505.025V237.777Z" fill="#EBEBEB"/>
<path d="M505.026 17.7183H364.919V237.776H505.026V17.7183Z" fill="white"/>
<path d="M364.921 137.507L505.027 137.507V131.619L364.921 131.619V137.507Z" fill="#EBEBEB"/>
<path d="M349.05 260.551H520.881V243.651L349.05 243.651V260.551Z" fill="#DBDBDB"/>
<path d="M353.61 267.311L516.331 270.909V260.551H353.61V267.311Z" fill="#EBEBEB"/>
<path d="M364.919 17.7183H505.026V168.908H364.919V17.7183ZM499.857 23.17H370.088V163.456H499.857V23.17Z" fill="#DBDBDB"/>
<path d="M460.313 17.7183H457.522V163.456H460.313V17.7183Z" fill="#DBDBDB"/>
<path d="M412.421 17.7183H409.629V163.456H412.421V17.7183Z" fill="#DBDBDB"/>
<path d="M28.3896 11.8989V243.733H179.661V11.8989H28.3896ZM174.079 237.777H33.9722V17.7186H174.079V237.777Z" fill="#EBEBEB"/>
<path d="M174.08 17.7183H33.9736V237.776H174.08V17.7183Z" fill="white"/>
<path d="M33.9712 137.507L174.078 137.507V131.619L33.9712 131.619V137.507Z" fill="#EBEBEB"/>
<path d="M18.1042 260.551H189.936V243.651L18.1042 243.651V260.551Z" fill="#DBDBDB"/>
<path d="M22.6641 267.311L185.385 270.909V260.551H22.6641V267.311Z" fill="#EBEBEB"/>
<path d="M33.9736 17.7183H174.08V168.908H33.9736V17.7183ZM168.911 23.17H39.1427V163.456H168.911V23.17Z" fill="#DBDBDB"/>
<path d="M129.367 17.7183H126.576V163.456H129.367V17.7183Z" fill="#DBDBDB"/>
<path d="M81.4744 17.7183H78.6831V163.456H81.4744V17.7183Z" fill="#DBDBDB"/>
<path d="M384.135 464.459H255.323V576.71H384.135V464.459Z" fill="#8FA3FF"/>
<path opacity="0.1" d="M384.135 464.459H255.323V576.71H384.135V464.459Z" fill="black"/>
<path d="M435.18 464.471H384.136V576.722H435.18V464.471Z" fill="#8FA3FF"/>
<path opacity="0.2" d="M435.18 464.471H384.136V576.722H435.18V464.471Z" fill="black"/>
<path d="M431.651 568.981C427.877 561.003 424.134 552.999 420.421 544.966L409.346 520.815L398.414 496.569C394.796 488.473 391.207 480.35 387.649 472.2C391.44 480.186 395.188 488.191 398.892 496.214L409.954 520.366L420.886 544.612C424.522 552.708 428.11 560.831 431.651 568.981Z" fill="#8FA3FF"/>
<path d="M431.651 472.2C428.101 480.377 424.513 488.5 420.886 496.569L409.954 520.815L398.892 544.966C395.179 552.989 391.431 560.994 387.649 568.981C391.207 560.804 394.796 552.68 398.414 544.612L409.346 520.366L420.421 496.228C424.134 488.187 427.877 480.177 431.651 472.2Z" fill="#8FA3FF"/>
<path d="M328.842 488.718H326.814H325.276L324.41 486.85L323.182 488.718L321.515 484.874L319.952 488.718H315.455H313.4L312.65 486.155L311.953 488.718H310.622V464.471H328.842V488.718Z" fill="white"/>
<path d="M391.904 352.221H295.799V464.458H391.904V352.221Z" fill="#8FA3FF"/>
<path d="M441.525 352.221H391.902V464.472H441.525V352.221Z" fill="#8FA3FF"/>
<path opacity="0.1" d="M441.525 352.221H391.902V464.472H441.525V352.221Z" fill="black"/>
<g opacity="0.1">
<path d="M384.86 456.731C377.805 448.745 370.809 440.74 363.874 432.717L343.159 408.511L322.754 384.265C315.983 376.169 309.281 368.046 302.647 359.896C309.711 367.882 316.707 375.892 323.633 383.924L344.309 408.061L364.714 432.308C371.511 440.44 378.227 448.581 384.86 456.731Z" fill="black"/>
<path d="M384.856 359.95C378.214 368.128 371.511 376.251 364.748 384.319L344.344 408.511L323.667 432.662C316.775 440.685 309.78 448.69 302.681 456.677C309.323 448.5 316.026 440.376 322.789 432.308L343.155 408.116L363.831 383.979C370.783 375.937 377.791 367.928 384.856 359.95Z" fill="black"/>
</g>
<path d="M434.544 445.474H425.847V458.421H434.544V445.474Z" fill="white"/>
<path d="M0 576.764L67.3782 576.423L134.756 576.314L269.5 576.083L404.244 576.314L471.622 576.423L539 576.764L471.622 577.091L404.244 577.214L269.5 577.445L134.756 577.214L67.3782 577.091L0 576.764Z" fill="#263238"/>
<path d="M320.83 190.17C320.106 189.679 319.382 189.202 318.659 188.738L319.163 187.853L321.36 189.311L320.83 190.17Z" fill="#263238"/>
<path d="M289.273 326.734H288.342V325.712C290.068 325.752 291.794 325.684 293.511 325.507L293.615 326.53C292.206 326.639 290.733 326.734 289.273 326.734ZM298.861 325.616L298.655 324.622C300.335 324.22 301.985 323.687 303.591 323.027L303.94 323.981C302.287 324.649 300.59 325.187 298.861 325.589V325.616ZM308.721 321.528L308.243 320.642C309.728 319.727 311.141 318.688 312.469 317.534L313.089 318.311C311.721 319.515 310.26 320.595 308.721 321.541V321.528ZM316.901 314.441L316.19 313.745C317.35 312.401 318.417 310.971 319.382 309.466L320.183 310.038C319.193 311.597 318.096 313.077 316.901 314.468V314.441ZM322.82 305.186L321.941 304.75C322.678 303.109 323.279 301.403 323.737 299.653L324.668 299.925C324.198 301.737 323.58 303.502 322.82 305.2V305.186ZM325.611 294.392L324.642 294.31C324.642 293.574 324.732 292.824 324.732 292.102C324.729 291.091 324.672 290.081 324.564 289.076C323.559 289.005 322.558 288.873 321.566 288.681L321.734 287.673C323.312 287.973 324.912 288.128 326.516 288.136H326.852V289.158H326.503H325.533C325.637 290.145 325.689 291.137 325.689 292.129C325.701 292.865 325.663 293.642 325.611 294.405V294.392ZM332.163 288.477L331.943 287.482C333.605 287.067 335.215 286.444 336.737 285.628L337.177 286.541C335.584 287.398 333.901 288.052 332.163 288.49V288.477ZM316.423 287.209C314.752 286.574 313.132 285.799 311.577 284.892L312.055 284.006C313.56 284.883 315.128 285.63 316.746 286.242L316.423 287.209ZM323.375 283.611C322.808 281.907 322.063 280.275 321.153 278.745L321.967 278.2C322.924 279.791 323.705 281.492 324.293 283.27L323.375 283.611ZM341.622 283.393L341.002 282.616C342.313 281.448 343.512 280.147 344.581 278.732L345.331 279.372C344.227 280.854 342.984 282.215 341.622 283.434V283.393ZM307.196 281.758L306.925 281.485C305.646 280.3 304.627 278.835 303.94 277.192L304.844 276.81C305.475 278.314 306.41 279.654 307.584 280.735L307.842 280.981L307.196 281.758ZM348.329 274.793L347.502 274.261C348.406 272.68 349.246 271.059 349.983 269.464L350.862 269.914C350.112 271.536 349.259 273.185 348.329 274.793ZM317.935 274.589C316.754 273.383 315.455 272.313 314.058 271.399L313.864 271.263L314.368 270.391L314.575 270.527C316.016 271.486 317.354 272.605 318.568 273.866L317.935 274.589ZM305.103 271.958L304.302 271.386C304.855 270.566 305.588 269.899 306.439 269.444C307.29 268.988 308.232 268.756 309.186 268.769V269.791C308.392 269.786 307.607 269.98 306.898 270.357C306.188 270.733 305.573 271.282 305.103 271.958ZM352.916 264.775L352.012 264.421C352.61 262.711 353.123 260.968 353.55 259.201L354.48 259.446C354.063 261.254 353.545 263.033 352.929 264.775H352.916ZM355.501 253.967L354.532 253.831C354.762 252.023 354.896 250.203 354.932 248.379H355.901C355.866 250.249 355.732 252.114 355.501 253.967ZM354.751 242.928C354.596 241.098 354.35 239.279 354.015 237.476L354.971 237.272C355.308 239.097 355.559 240.939 355.721 242.791L354.751 242.928ZM352.748 232.215C352.257 230.498 351.676 228.767 351.004 227.05L351.908 226.668C352.58 228.399 353.201 230.171 353.679 231.915L352.748 232.215ZM348.872 222.061C348.096 220.467 347.23 218.858 346.287 217.277L347.114 216.746C348.045 218.341 348.923 219.976 349.699 221.598L348.872 222.061ZM343.431 212.712C342.436 211.24 341.364 209.781 340.252 208.364L341.002 207.71C342.126 209.141 343.212 210.626 344.219 212.112L343.431 212.712ZM336.815 204.234C335.639 202.871 334.398 201.604 333.132 200.35L333.791 199.6C335.083 200.881 336.375 202.204 337.513 203.539L336.815 204.234ZM329.229 196.697C327.937 195.539 326.528 194.394 325.146 193.304L325.714 192.486C327.123 193.576 328.519 194.735 329.85 195.92L329.229 196.697Z" fill="#263238"/>
<path d="M282.927 326.244C282.057 326.13 281.195 325.967 280.342 325.754L280.575 324.759C280.575 324.759 281.505 325.004 283.056 325.236L282.927 326.244Z" fill="#263238"/>
<path d="M269.886 324.214C269.279 329.666 279.836 332.719 280.638 325.577C281.439 318.435 270.493 318.721 269.886 324.214Z" fill="#263238"/>
<path d="M283.717 333.236C282.735 335.294 279.259 335.58 275.666 332.936C273.227 330.971 271.165 328.533 269.593 325.753C272.631 325.419 275.701 325.702 278.639 326.585C282.89 328.097 284.751 331.15 283.717 333.236Z" fill="#EBEBEB"/>
<path d="M269.627 325.753C271.669 326.721 273.672 327.77 275.675 328.806C277.678 329.842 279.655 330.946 281.606 332.091C279.564 331.123 277.561 330.073 275.558 329.038C273.555 328.002 271.578 326.898 269.627 325.753Z" fill="#263238"/>
<path d="M279.013 333.194C278.549 332.627 278.117 332.031 277.72 331.409C277.33 330.792 276.976 330.15 276.661 329.487C277.125 330.055 277.556 330.651 277.953 331.273C278.346 331.888 278.7 332.53 279.013 333.194Z" fill="#263238"/>
<path d="M274.67 328.411C275.381 328.216 276.102 328.061 276.828 327.948C277.561 327.838 278.299 327.77 279.038 327.743C277.607 328.119 276.144 328.343 274.67 328.411Z" fill="#263238"/>
<path d="M273.545 329.311C273.101 328.728 272.783 328.048 272.615 327.321C273.059 327.905 273.377 328.584 273.545 329.311Z" fill="#263238"/>
<path d="M285.419 318.966C284.915 316.717 281.607 315.599 277.536 317.289C274.727 318.608 272.183 320.482 270.041 322.809C272.946 323.87 276.017 324.333 279.087 324.172C283.442 323.791 285.936 321.283 285.419 318.966Z" fill="#EBEBEB"/>
<path d="M270.041 322.81C272.238 322.373 274.422 321.828 276.593 321.297C278.764 320.765 280.935 320.193 283.054 319.552C280.87 319.988 278.686 320.534 276.515 321.065C274.344 321.597 272.199 322.169 270.041 322.81Z" fill="#263238"/>
<path d="M280.81 317.848C280.248 318.27 279.708 318.725 279.195 319.211C278.682 319.72 278.194 320.257 277.734 320.819C278.302 320.406 278.842 319.95 279.35 319.456C279.866 318.951 280.353 318.414 280.81 317.848Z" fill="#263238"/>
<path d="M275.506 321.446C276.816 322.165 278.193 322.736 279.616 323.15C278.309 322.425 276.931 321.854 275.506 321.446Z" fill="#263238"/>
<path d="M274.672 320.301C274.391 320.523 274.135 320.78 273.91 321.065C273.686 321.357 273.492 321.672 273.328 322.005C273.61 321.778 273.866 321.517 274.091 321.228C274.325 320.95 274.521 320.638 274.672 320.301Z" fill="#263238"/>
<path d="M269.887 324.213C270.257 324.258 270.606 324.418 270.89 324.673C271.174 324.927 271.381 325.265 271.483 325.642C271.585 326.02 271.579 326.422 271.466 326.796C271.352 327.17 271.136 327.501 270.844 327.746C270.553 327.991 270.199 328.139 269.828 328.172C269.456 328.205 269.084 328.121 268.758 327.931C268.431 327.742 268.166 327.454 267.994 327.105C267.822 326.756 267.753 326.361 267.794 325.971C267.852 325.446 268.105 324.966 268.497 324.637C268.889 324.308 269.389 324.155 269.887 324.213Z" fill="#455A64"/>
<path d="M270.329 320.246C270.575 320.277 270.814 320.358 271.031 320.486C271.248 320.614 271.44 320.785 271.594 320.991C271.748 321.197 271.862 321.432 271.93 321.685C271.998 321.937 272.018 322.201 271.989 322.461C271.96 322.722 271.883 322.973 271.762 323.202C271.641 323.431 271.478 323.633 271.283 323.796C271.088 323.958 270.865 324.079 270.625 324.15C270.386 324.222 270.136 324.243 269.889 324.213C269.391 324.151 268.935 323.883 268.624 323.468C268.313 323.053 268.17 322.524 268.229 321.998C268.287 321.472 268.541 320.992 268.935 320.663C269.328 320.335 269.83 320.185 270.329 320.246Z" fill="#455A64"/>
<path d="M153.192 452.547C153.192 452.547 125.641 510.73 125.629 510.73C123.354 522.738 121.571 533.328 121.119 538.888C121.112 538.92 121.112 538.952 121.119 538.984C120.88 540.273 120.929 541.602 121.261 542.868C121.254 542.899 121.254 542.932 121.261 542.963C124.194 546.098 214.73 568.082 218.18 567.728C221.63 567.373 220.894 557.111 218.025 553.308C215.156 549.505 184.051 524.687 184.051 524.687L210.982 466.408L153.192 452.547Z" fill="#D3766A"/>
<path d="M216.813 567.782C213.415 568.136 124.236 546.138 121.316 543.017C121.311 542.986 121.311 542.953 121.316 542.922C120.977 541.658 120.924 540.327 121.161 539.037C121.15 539.007 121.15 538.973 121.161 538.942C121.6 533.381 123.396 522.791 125.658 510.77L132.248 496.841L189.379 513.36L184.106 524.781C184.106 524.781 213.828 549.546 216.71 553.403C219.592 557.26 220.225 567.441 216.813 567.782Z" fill="#EBEBEB"/>
<path d="M218.057 566.256C214.607 566.528 123.852 542.132 120.957 538.888C119.846 537.675 122.443 523.514 126.048 506.505L126.165 505.974L184.885 521.034L184.613 522.07C184.613 522.07 215.382 547.802 218.212 551.727C221.042 555.652 221.494 565.997 218.057 566.256Z" fill="#263238"/>
<path d="M217.911 562.262C202.714 557.765 140.996 541.083 125.644 537.839C125.515 537.839 125.489 537.907 125.644 537.948C140.621 542.759 202.469 558.91 217.885 562.481C218.182 562.603 218.234 562.358 217.911 562.262Z" fill="white"/>
<path d="M189.484 523.582C183.747 520.774 176.148 519.766 170.462 523.064C170.243 523.187 170.462 523.514 170.617 523.5C176.845 523.088 183.096 523.381 189.265 524.372C189.355 524.378 189.445 524.351 189.519 524.296C189.593 524.241 189.648 524.161 189.673 524.07C189.699 523.978 189.694 523.879 189.66 523.791C189.625 523.702 189.564 523.629 189.484 523.582Z" fill="white"/>
<path d="M193.154 527.508C187.429 524.714 179.831 523.705 174.132 526.99C173.912 527.113 174.132 527.44 174.3 527.44C180.527 527.021 186.779 527.313 192.947 528.312C193.041 528.322 193.136 528.296 193.214 528.239C193.292 528.182 193.348 528.098 193.373 528.002C193.397 527.906 193.389 527.803 193.349 527.713C193.309 527.622 193.24 527.55 193.154 527.508Z" fill="white"/>
<path d="M196.836 531.447C191.098 528.639 183.499 527.63 177.814 530.915C177.594 531.051 177.814 531.378 177.982 531.365C184.205 530.953 190.452 531.246 196.616 532.237C196.706 532.243 196.796 532.216 196.87 532.161C196.945 532.106 196.999 532.026 197.024 531.934C197.05 531.842 197.045 531.744 197.011 531.656C196.977 531.567 196.915 531.493 196.836 531.447Z" fill="white"/>
<path d="M220.264 563.203C221.724 564.293 219.98 569.949 218.7 570.099C217.421 570.249 118.576 543.182 117.013 542.323C115.449 541.464 117.594 535.277 119.597 535.508C121.6 535.74 220.264 563.203 220.264 563.203Z" fill="#8FA3FF"/>
<path d="M138.552 520.72C132.814 515.487 125.086 524.891 130.798 530.138C136.51 535.385 144.302 525.968 138.552 520.72Z" fill="white"/>
<path d="M132.417 492.195L198.633 509.804C198.633 509.804 260.351 392.333 258.968 362.471C257.069 321.284 211.219 194.641 211.219 194.641H156.324C156.324 194.641 192.753 331.547 193.257 354.58C193.477 366.628 132.417 492.195 132.417 492.195Z" fill="#455A64"/>
<path d="M201.464 495.63C197.937 494.144 166.418 484.549 142.899 479.275C142.874 479.284 142.851 479.301 142.835 479.324C142.819 479.348 142.811 479.376 142.811 479.404C142.811 479.433 142.819 479.461 142.835 479.484C142.851 479.508 142.874 479.525 142.899 479.534C150.304 482.26 197.032 495.248 201.413 495.889C201.516 495.93 201.62 495.739 201.464 495.63Z" fill="#263238"/>
<path d="M197.805 325.168C193.438 305.841 188.76 286.57 183.849 267.421C178.939 248.271 173.679 228.945 167.903 209.946C167.205 207.615 166.468 205.312 165.758 202.995C165.737 202.921 165.689 202.858 165.625 202.821C165.561 202.784 165.485 202.776 165.415 202.797C165.345 202.819 165.286 202.869 165.25 202.937C165.215 203.005 165.207 203.084 165.228 203.159C170.397 222.09 175.566 240.98 180.463 259.979C185.361 278.978 190.026 298.032 194.42 317.222C195.518 321.965 196.591 326.694 197.637 331.451C198.854 336.326 199.795 341.273 200.455 346.266C200.998 351.037 200.687 355.872 199.537 360.522C198.29 365.091 196.66 369.533 194.665 373.797C186.748 391.924 178.835 410.055 170.927 428.191C163.018 446.373 161.739 450.516 154.127 468.847C153.184 471.123 152.241 473.4 151.336 475.662C151.336 475.812 151.478 475.948 151.556 475.785C160.214 457.821 161.545 453.501 169.647 435.21C177.75 416.92 185.8 398.411 193.838 379.998C197.457 371.684 201.708 363.207 202.251 353.912C202.794 344.208 199.899 334.477 197.805 325.168Z" fill="#263238"/>
<path d="M200.801 475.554L202.92 539.611C203.269 551.878 203.773 562.604 204.535 568.124C204.529 568.155 204.529 568.188 204.535 568.219C204.579 569.529 204.906 570.811 205.492 571.967L205.569 572.049C209.097 574.407 301.997 574.352 305.241 573.194C308.484 572.035 305.616 562.222 302.01 559.183C298.405 556.144 262.816 539.393 262.816 539.393L260.115 475.404L200.801 475.554Z" fill="#D3766A"/>
<path d="M202.48 526.5C202.48 526.5 202.92 539.611 202.92 539.652C203.269 551.918 203.773 562.645 204.535 568.164C204.529 568.196 204.529 568.228 204.535 568.26C204.712 569.545 205.033 570.803 205.491 572.008L205.569 572.09C209.097 574.447 301.997 574.393 305.241 573.234C308.484 572.076 305.615 562.263 302.01 559.224C298.405 556.184 262.816 539.434 262.816 539.434L262.545 526.091L202.48 526.5Z" fill="#EBEBEB"/>
<path d="M305.296 573.125C302.013 574.229 208.376 572.702 204.836 570.249C203.543 569.336 202.897 554.943 202.665 537.539V536.994L263.09 537.266V538.357C263.09 538.357 298.692 555.843 302.298 558.964C305.903 562.085 308.591 572.062 305.296 573.125Z" fill="#263238"/>
<path d="M304.298 569.336C288.52 568.668 224.812 567.55 209.162 568.164C209.033 568.164 209.033 568.259 209.162 568.259C224.786 569.281 288.507 569.867 304.298 569.622C304.621 569.54 304.634 569.336 304.298 569.336Z" fill="white"/>
<path d="M268.13 538.603C261.94 537.24 254.316 538.153 249.509 542.692C249.315 542.869 249.509 543.141 249.767 543.087C255.733 541.167 261.876 539.919 268.092 539.366C268.166 539.341 268.232 539.292 268.28 539.227C268.328 539.161 268.356 539.081 268.36 538.999C268.365 538.916 268.345 538.834 268.304 538.763C268.263 538.692 268.202 538.637 268.13 538.603Z" fill="white"/>
<path d="M272.575 541.519C266.373 540.156 258.761 541.083 253.954 545.676C253.76 545.853 253.954 546.125 254.2 546.057C260.169 544.135 266.316 542.892 272.537 542.35C272.63 542.338 272.717 542.291 272.781 542.218C272.845 542.145 272.883 542.051 272.887 541.952C272.892 541.852 272.863 541.754 272.806 541.675C272.749 541.596 272.667 541.541 272.575 541.519Z" fill="white"/>
<path d="M277.007 544.449C270.817 543.086 263.205 543.999 258.385 548.537C258.204 548.715 258.385 548.987 258.644 548.933C264.61 547.013 270.752 545.766 276.968 545.212C277.043 545.187 277.108 545.138 277.156 545.072C277.204 545.007 277.232 544.927 277.237 544.844C277.241 544.762 277.221 544.679 277.18 544.609C277.139 544.538 277.078 544.482 277.007 544.449Z" fill="white"/>
<path d="M306.782 569.609C308.449 570.317 307.997 576.246 306.782 576.696C305.568 577.146 203.402 575.006 201.735 574.57C200.068 574.134 200.74 567.578 202.769 567.264C204.798 566.951 306.782 569.609 306.782 569.609Z" fill="#8FA3FF"/>
<path d="M217.964 548.279C211.232 544.585 205.778 555.625 212.524 559.318C219.269 563.012 224.71 551.972 217.964 548.279Z" fill="white"/>
<path d="M210.535 194.532C210.29 195.718 196.605 252.784 194.899 253.847C192.961 255.06 244.625 328.371 250.75 364.366C254.627 387.386 263.673 521.566 263.673 521.566H197.794C197.794 521.566 191.333 407.612 189.187 370.063C188.347 355.494 136.528 288.138 131.604 243.229C130.054 229.082 139.694 194.478 139.694 194.478L210.535 194.532Z" fill="#455A64"/>
<path d="M196.124 467.348C195.349 448.472 194.638 429.554 193.333 410.705C192.596 400.02 191.149 389.675 190.141 379.031C190.141 378.472 189.663 378.336 189.676 378.908C190.141 397.866 191.627 416.62 192.583 435.565C193.539 454.509 194.457 458.925 195.478 477.816C196.046 488.501 196.55 499.186 197.339 509.858C197.347 509.885 197.364 509.909 197.386 509.926C197.408 509.943 197.434 509.952 197.461 509.952C197.489 509.952 197.515 509.943 197.537 509.926C197.559 509.909 197.576 509.885 197.584 509.858C197.623 490.886 196.912 486.293 196.124 467.348Z" fill="#263238"/>
<path d="M250.812 365.265C250.249 360.28 249.333 355.346 248.073 350.505C246.716 345.812 244.928 341.27 242.736 336.944C238.252 327.867 233.147 319.089 228.224 310.271C223.3 301.453 218.17 292.444 212.975 283.64C210.055 278.697 207.121 273.758 204.175 268.825C201.177 263.85 198.011 258.971 194.922 254.064C194.898 254.023 194.86 253.993 194.815 253.981C194.77 253.97 194.723 253.978 194.683 254.003C194.644 254.028 194.615 254.069 194.605 254.116C194.594 254.163 194.601 254.213 194.625 254.255C199.665 263.169 204.653 272.096 209.693 281.009C214.732 289.923 219.695 298.864 224.657 307.804C229.619 316.745 234.439 325.413 239.117 334.354C241.421 338.599 243.404 343.029 245.049 347.602C246.579 352.34 247.69 357.217 248.37 362.171C250.127 373.715 251.562 385.341 253.759 396.776C253.767 396.803 253.784 396.827 253.806 396.844C253.828 396.861 253.854 396.87 253.881 396.87C253.909 396.87 253.935 396.861 253.957 396.844C253.979 396.827 253.996 396.803 254.004 396.776C253.319 386.254 252.13 375.719 250.812 365.265Z" fill="#263238"/>
<path d="M257.871 509.654C254.111 509.136 225.41 508.087 201.4 509.177C201.245 509.177 201.257 509.422 201.4 509.436C209.218 510.158 253.426 510.486 257.832 509.94C257.949 509.927 258 509.681 257.871 509.654Z" fill="#263238"/>
<path d="M203.493 249.947C196.781 252.527 190.295 255.719 184.109 259.488C184.056 259.513 184.015 259.56 183.994 259.617C183.974 259.675 183.975 259.738 183.999 259.794C184.023 259.851 184.068 259.894 184.122 259.916C184.177 259.938 184.237 259.936 184.29 259.91C190.829 256.939 197.51 254.104 203.894 250.765C203.997 250.709 204.074 250.612 204.109 250.496C204.144 250.38 204.134 250.253 204.081 250.145C204.028 250.037 203.936 249.955 203.826 249.918C203.716 249.881 203.596 249.891 203.493 249.947Z" fill="#263238"/>
<path d="M205.471 202.709C205.471 202.478 205.058 202.423 205.058 202.709C205.059 210.411 204.692 218.108 203.959 225.77C203.649 229.327 200.935 248.94 195.094 247.577C194.112 247.332 193.621 246.323 193.466 244.756C193.482 242.721 193.743 240.697 194.241 238.732C194.888 234.643 195.404 230.554 195.74 226.343C196.426 218.604 196.348 210.812 195.508 203.091C195.497 203.047 195.473 203.009 195.439 202.981C195.405 202.954 195.363 202.939 195.32 202.939C195.278 202.939 195.236 202.954 195.202 202.981C195.168 203.009 195.144 203.047 195.133 203.091C195.302 213.817 194.706 224.542 193.35 235.174C192.613 240.285 190.171 247.986 195.249 248.804C200.328 249.621 203.752 236.714 204.373 233.184C205.989 223.119 206.358 212.875 205.471 202.709Z" fill="#263238"/>
<path d="M195.242 248C194.725 249.33 194.293 250.696 193.95 252.088C193.578 253.157 193.394 254.289 193.407 255.428C193.414 255.474 193.433 255.518 193.463 255.552C193.494 255.587 193.533 255.611 193.577 255.621C193.62 255.631 193.665 255.628 193.707 255.61C193.748 255.593 193.783 255.562 193.808 255.523C194.418 254.518 194.876 253.419 195.165 252.266C195.617 250.998 196.082 249.758 196.457 248.477C196.517 248.307 196.511 248.119 196.439 247.954C196.368 247.789 196.237 247.661 196.076 247.598C195.915 247.534 195.737 247.541 195.58 247.617C195.424 247.692 195.302 247.83 195.242 248Z" fill="#263238"/>
<path d="M197.998 388.38C197.377 378.676 197.416 368.441 193.501 359.445C191.421 355.062 189.028 350.852 186.342 346.852C183.671 342.545 181.035 338.215 178.433 333.863C168.095 316.459 158.119 298.7 149.034 280.505C144.653 271.741 140.622 262.691 138.425 253.014C136.282 242.831 135.876 232.327 137.223 221.994C137.533 219.418 137.869 216.856 138.27 214.294C138.271 214.259 138.261 214.225 138.241 214.197C138.221 214.169 138.193 214.15 138.161 214.142C138.129 214.134 138.095 214.138 138.065 214.153C138.036 214.168 138.012 214.194 137.998 214.225C135.872 224.052 135.145 234.157 135.84 244.21C136.835 253.821 139.401 263.177 143.426 271.864C147.432 281.009 152.2 289.813 156.904 298.577C161.754 307.663 166.747 316.618 171.881 325.44C177.05 334.245 182.374 342.872 187.711 351.54C190.434 355.629 192.555 360.127 194.005 364.883C195.18 369.846 195.855 374.926 196.021 380.039C197.313 401.492 202.482 472.813 204.317 494.157C204.537 496.883 204.769 499.609 205.015 502.334C205.007 502.363 205.006 502.392 205.012 502.421C205.017 502.45 205.028 502.477 205.045 502.501C205.062 502.524 205.084 502.543 205.109 502.556C205.134 502.569 205.161 502.576 205.189 502.576C205.217 502.576 205.244 502.569 205.269 502.556C205.294 502.543 205.316 502.524 205.333 502.501C205.35 502.477 205.361 502.45 205.367 502.421C205.372 502.392 205.371 502.363 205.364 502.334C204.588 480.909 199.329 409.764 197.998 388.38Z" fill="#263238"/>
<path d="M166.379 213.34C166.379 213.19 166.147 213.244 166.147 213.34C165.953 219.296 166.147 225.456 163.937 231.058C161.947 236.223 157.941 239.849 153.457 242.561C150.849 244.104 148.161 245.492 145.406 246.718C145.212 246.813 145.29 247.14 145.509 247.072C150.678 245.328 156.015 243.433 160.345 239.78C164.971 235.855 167 230.172 167.219 224.039C167.299 220.451 167.017 216.865 166.379 213.34Z" fill="#263238"/>
<path d="M195.054 116.259C202.445 140.192 222.411 180.957 229.544 185.877C235.863 190.225 265.598 185.373 278.65 182.061C283.508 180.82 272.576 141.759 267.394 143.19C261.178 144.907 242.66 149.31 241.316 148.219C239.972 147.129 221.299 122.869 208.067 108.585C196.023 95.6511 192.262 107.209 195.054 116.259Z" fill="#D3766A"/>
<path d="M275.792 182.361C278.287 182.034 299.389 180.998 309.068 175.451C314.237 172.493 327.431 162.707 326.113 159.191C324.911 155.988 320.673 157.733 320.673 157.733C320.673 157.733 326.501 153.276 324.795 148.833C323.089 144.39 316.046 147.729 316.046 147.729C316.046 147.729 321.719 142.686 319.716 138.393C317.713 134.1 311.174 138.693 311.174 138.693C311.174 138.693 316.563 134.345 313.5 131.537C309.805 128.157 300.72 137.371 294.582 139.524C293.186 140.015 265.687 147.347 265.687 147.347L275.792 182.361Z" fill="#D3766A"/>
<path d="M310.943 138.569C304.249 145.316 300.204 147.047 291.262 148.955C291.094 148.955 291.107 149.282 291.262 149.254C300.178 148.232 305.541 146.828 311.24 138.896C311.55 138.501 311.253 138.242 310.943 138.569Z" fill="#263238"/>
<path d="M315.829 147.564C308.295 153.943 303.927 155.851 294.7 158.577C294.571 158.577 294.623 158.863 294.765 158.836C304.018 156.955 309.342 155.429 316.074 148.014C316.385 147.687 316.178 147.278 315.829 147.564Z" fill="#263238"/>
<path d="M320.219 157.84C312.466 163.456 307.801 165.786 298.522 167.217C298.478 167.217 298.435 167.236 298.404 167.269C298.372 167.302 298.354 167.348 298.354 167.395C298.354 167.442 298.372 167.487 298.404 167.52C298.435 167.553 298.478 167.572 298.522 167.572C308.124 167.081 314.03 164.233 320.323 158.113C320.788 157.731 320.698 157.5 320.219 157.84Z" fill="#263238"/>
<path d="M258.477 148.601C258.477 148.601 266.166 139.428 270.379 136.184C274.591 132.941 294.544 126.944 296.017 131.414C297.917 137.193 287.049 143.04 281.376 145.166C281.376 145.166 285.782 158.523 278.791 164.492C271.8 170.462 258.477 148.601 258.477 148.601Z" fill="#D3766A"/>
<path d="M296.054 133.2C294.18 139.783 286.556 142.072 281.193 144.567C281.114 144.603 281.043 144.658 280.988 144.728C280.932 144.797 280.893 144.88 280.873 144.968C280.853 145.057 280.853 145.149 280.872 145.238C280.892 145.327 280.931 145.41 280.986 145.48C282.485 151.204 283.002 159.736 279.203 164.561C279.1 164.697 279.268 164.888 279.397 164.765C284.139 160.186 284.269 151.749 282.253 145.589C287.797 143.122 295.343 140.464 296.106 133.227C296.119 133.2 296.067 133.2 296.054 133.2Z" fill="#263238"/>
<path d="M275.784 189.08L266.04 142.277L241.927 146.897C232.416 135.408 213.407 112.443 205.744 105.546C196.698 97.4503 190.779 103.529 194.113 115.795C201.647 143.831 223.68 184.991 229.444 188.875C237.805 194.532 275.784 189.08 275.784 189.08Z" fill="#8FA3FF"/>
<path opacity="0.1" d="M241.351 161.14C242.545 161.413 243.761 161.564 244.982 161.589C247.567 161.957 248.704 165.978 246.352 167.505C245.117 168.307 243.721 168.793 242.276 168.923C240.83 169.053 239.376 168.824 238.03 168.254C235.445 167.191 233.262 164.547 233.817 161.44C233.913 160.86 234.15 160.317 234.504 159.863C234.859 159.409 235.318 159.059 235.839 158.848C236.359 158.636 236.922 158.571 237.474 158.657C238.026 158.743 238.547 158.979 238.986 159.341C239.702 160.039 240.496 160.643 241.351 161.14ZM234.683 150.005C233.753 154.639 240.55 158.618 244.026 156.151C244.306 155.928 244.535 155.64 244.695 155.31C244.856 154.98 244.943 154.616 244.952 154.246C244.961 153.875 244.89 153.507 244.746 153.169C244.601 152.832 244.386 152.532 244.116 152.294C243.096 151.422 242.243 151.286 241.338 150.495C241.022 150.235 240.743 149.927 240.511 149.582C239.999 148.837 239.342 148.215 238.586 147.756C238.192 147.578 237.765 147.497 237.338 147.519C236.91 147.541 236.493 147.665 236.117 147.881C235.741 148.098 235.417 148.401 235.168 148.769C234.92 149.137 234.754 149.559 234.683 150.005ZM223.841 150.25C222.445 152.172 223.492 155.061 224.72 156.806C225.272 157.674 226.034 158.373 226.926 158.83C227.818 159.288 228.809 159.487 229.798 159.409C230.159 159.355 230.497 159.193 230.772 158.941C231.047 158.69 231.247 158.36 231.348 157.991C231.449 157.622 231.447 157.23 231.341 156.863C231.236 156.495 231.032 156.168 230.755 155.92C229.977 155.296 229.356 154.482 228.945 153.548C228.338 152.103 227.937 150.236 226.361 149.609C225.93 149.423 225.455 149.384 225.003 149.499C224.55 149.614 224.143 149.877 223.841 150.25ZM252.464 180.561C250.642 184.446 256.186 188.862 259.546 188.098C260.67 187.839 261.756 186.286 260.761 185.168C259.96 184.269 259.003 183.56 258.254 182.606C257.336 181.447 256.832 179.962 255.398 179.376C254.858 179.137 254.252 179.128 253.706 179.349C253.16 179.569 252.715 180.004 252.464 180.561ZM200.412 132.927C200.094 132.289 199.654 131.727 199.12 131.278C199.844 133.231 200.606 135.19 201.407 137.152C201.45 135.674 201.106 134.212 200.412 132.927ZM207.61 128.838C207.357 125.472 206.11 122.273 204.044 119.693C202.493 117.581 199.805 114.241 196.962 114.964C196.66 115.063 196.396 115.263 196.21 115.533C196.024 115.803 195.925 116.129 195.928 116.463C195.747 118.766 198.254 121.233 199.34 123.073C200.632 125.39 201.653 127.952 203.049 130.256C203.34 130.729 203.769 131.091 204.272 131.286C204.774 131.481 205.323 131.499 205.836 131.338C206.35 131.177 206.8 130.845 207.119 130.392C207.439 129.939 207.611 129.389 207.61 128.825V128.838ZM206.77 143.49C207.275 143.462 207.759 143.265 208.149 142.926C208.54 142.588 208.818 142.126 208.941 141.609C209.142 140.551 209.075 139.456 208.747 138.433C208.554 137.46 208.107 136.563 207.455 135.844C207.222 135.616 206.937 135.456 206.627 135.38C206.318 135.303 205.995 135.313 205.69 135.408C205.385 135.503 205.109 135.679 204.888 135.921C204.668 136.162 204.51 136.459 204.431 136.784C204.328 137.58 204.328 138.387 204.431 139.183C204.431 139.524 204.431 139.864 204.431 140.219C204.425 140.732 204.477 141.245 204.586 141.745C204.725 142.243 205.013 142.68 205.406 142.992C205.8 143.304 206.278 143.474 206.77 143.476V143.49Z" fill="#030402"/>
<path d="M267.343 184.991C266.231 182.266 263.466 170.163 262.859 167.151C262.251 164.139 260.003 151.954 259.344 148.86C259.344 148.683 259.525 148.588 259.563 148.751C260.261 151.804 263.376 163.825 264.06 166.824C264.745 169.822 267.317 181.911 267.498 184.951C267.5 184.961 267.501 184.972 267.499 184.983C267.498 184.994 267.494 185.005 267.489 185.014C267.478 185.034 267.46 185.047 267.44 185.053C267.419 185.058 267.397 185.055 267.379 185.043C267.361 185.032 267.348 185.013 267.343 184.991Z" fill="#263238"/>
<path opacity="0.1" d="M244.945 191.424C238.16 191.424 232.203 190.743 229.437 188.875C223.635 184.923 201.602 143.899 194.017 115.809C192.104 108.776 193.254 103.761 196.278 102.302L244.945 191.424Z" fill="black"/>
<path d="M135.594 200.952C135.762 201.21 216.399 212.114 217.265 211.323C217.721 208.956 218.044 206.562 218.234 204.154C218.234 204.154 210.842 111.557 207.017 106.119C203.67 101.376 193.513 97.9415 186.6 101.035C172.088 107.523 137.339 190.253 137.714 193.714C137.688 193.673 135.387 200.624 135.594 200.952Z" fill="#8FA3FF"/>
<path opacity="0.1" d="M164.671 189.68C165.915 190.317 167.213 190.828 168.548 191.206C171.236 192.337 171.482 197.067 168.548 198.021C166.989 198.543 165.335 198.673 163.72 198.4C162.104 198.128 160.572 197.461 159.244 196.453C156.659 194.545 154.992 191.002 156.388 187.84C156.644 187.238 157.043 186.716 157.546 186.324C158.048 185.932 158.638 185.682 159.259 185.6C159.879 185.518 160.509 185.606 161.088 185.855C161.667 186.104 162.176 186.506 162.565 187.022C163.289 187.908 163.728 189.08 164.671 189.68ZM160.252 175.601C158.042 180.412 164.439 186.695 168.871 184.991C169.243 184.835 169.574 184.589 169.841 184.275C170.107 183.96 170.3 183.584 170.405 183.177C170.51 182.77 170.525 182.343 170.447 181.93C170.369 181.516 170.201 181.127 169.957 180.793C169.078 179.553 168.173 179.158 167.372 178.067C167.096 177.691 166.874 177.273 166.713 176.827C166.331 175.876 165.773 175.014 165.072 174.292C163.534 172.725 161.066 173.829 160.252 175.601ZM152.783 170.476C150.366 171.43 149.746 174.865 149.927 177.291C149.964 178.469 150.297 179.616 150.892 180.615C151.487 181.613 152.322 182.427 153.313 182.974C153.686 183.15 154.101 183.208 154.505 183.141C154.91 183.075 155.287 182.886 155.592 182.597C155.897 182.309 156.116 181.934 156.223 181.517C156.33 181.1 156.32 180.659 156.194 180.248C155.784 179.158 155.642 177.977 155.781 176.814C156 175.069 156.659 173.025 155.561 171.457C155.255 171.005 154.822 170.667 154.323 170.491C153.824 170.315 153.285 170.309 152.783 170.476ZM179.274 186.695C178.662 186.64 178.054 186.833 177.573 187.236C177.093 187.639 176.776 188.221 176.689 188.862C176.623 189.551 176.787 190.242 177.153 190.817C177.519 191.392 178.063 191.814 178.692 192.01C179.574 192.317 180.525 192.317 181.406 192.01C181.857 191.822 182.229 191.469 182.453 191.015C182.712 190.576 182.818 190.056 182.75 189.543C182.679 189.065 182.471 188.622 182.155 188.271C181.839 187.921 181.429 187.68 180.98 187.581C180.898 187.467 180.803 187.367 180.695 187.281C180.285 186.945 179.792 186.741 179.274 186.695ZM159.464 153.807C157.293 156.152 158.171 161.481 160.653 163.28C160.972 163.536 161.349 163.699 161.747 163.754C162.145 163.809 162.55 163.753 162.921 163.591C163.292 163.43 163.616 163.17 163.862 162.835C164.108 162.501 164.267 162.104 164.323 161.685C164.361 161.145 164.361 160.603 164.323 160.063C164.323 159.477 164.245 159.109 164.323 158.7C164.516 157.535 164.555 156.347 164.439 155.17C164.338 154.612 164.09 154.096 163.722 153.681C163.354 153.266 162.882 152.97 162.36 152.827C161.839 152.684 161.29 152.701 160.777 152.874C160.264 153.048 159.809 153.371 159.464 153.807ZM145.443 187.717C142.458 191.451 147.381 197.857 151.245 197.98C152.537 197.98 154.127 196.617 153.325 195.118C152.679 193.918 151.814 192.855 151.245 191.615C150.547 190.088 150.379 188.303 148.958 187.267C148.428 186.856 147.769 186.674 147.116 186.758C146.463 186.841 145.864 187.184 145.443 187.717ZM216.736 186.531C216.25 186.608 215.796 186.836 215.433 187.185C215.069 187.535 214.812 187.99 214.695 188.494C214.281 190.007 214.229 191.356 213.157 192.583C211.996 193.546 210.954 194.658 210.056 195.895C209.906 196.203 209.834 196.548 209.848 196.894C209.862 197.241 209.962 197.577 210.136 197.871C210.311 198.165 210.555 198.407 210.844 198.571C211.133 198.736 211.458 198.819 211.787 198.811C214.044 198.519 216.11 197.329 217.564 195.486C217.305 192.896 217.047 189.857 216.749 186.477L216.736 186.531ZM210.275 175.287C209.552 177.141 209.681 179.24 209.073 181.175C208.54 182.949 207.906 184.688 207.174 186.381C206.631 187.608 207.717 189.543 209.125 188.889C211.416 187.962 213.29 186.156 214.372 183.833C215.354 181.693 216.439 178.095 215.496 175.819C214.553 173.543 211.348 172.548 210.249 175.233L210.275 175.287ZM202.909 193.864C201.835 195.327 200.461 196.515 198.89 197.339C198.516 197.462 198.171 197.667 197.877 197.941C197.584 198.215 197.349 198.552 197.188 198.929C197.027 199.306 196.944 199.714 196.945 200.128C196.945 200.541 197.029 200.95 197.19 201.327C197.352 201.703 197.587 202.039 197.882 202.313C198.176 202.586 198.521 202.79 198.896 202.912C199.271 203.034 199.665 203.07 200.054 203.019C200.443 202.967 200.817 202.829 201.152 202.614C202.489 202.009 203.684 201.103 204.653 199.958C205.622 198.814 206.341 197.459 206.76 195.99C207.368 193.632 204.344 192.092 202.883 193.809L202.909 193.864ZM191.098 127.08C191.82 127.242 192.573 127.102 193.2 126.69C193.826 126.278 194.277 125.627 194.458 124.872C195.182 121.942 192.701 118.93 190.736 117.104C188.772 115.277 186.007 113.615 183.254 114.555C182.888 114.68 182.558 114.902 182.295 115.2C182.033 115.497 181.847 115.86 181.755 116.255C181.663 116.65 181.668 117.062 181.77 117.454C181.872 117.846 182.067 118.204 182.337 118.494C183.538 120.075 185.205 121.22 186.485 122.774C187.764 124.327 188.824 126.631 191.072 127.026L191.098 127.08ZM201.01 138.652C202.095 137.002 201.255 134.563 200.48 132.995C200.067 132.131 199.425 131.411 198.632 130.924C198.098 130.564 197.451 130.44 196.832 130.581C196.212 130.721 195.67 131.114 195.324 131.673C194.971 132.448 194.916 133.337 195.169 134.154C195.277 134.581 195.424 134.997 195.608 135.394V135.517V135.626C195.839 136.927 196.362 138.152 197.133 139.197C197.4 139.48 197.725 139.695 198.084 139.823C198.442 139.952 198.824 139.992 199.2 139.939C199.575 139.886 199.934 139.742 200.248 139.519C200.562 139.296 200.823 138.999 201.01 138.652ZM207.678 128.893C207.425 125.526 206.177 122.328 204.111 119.748C202.56 117.635 199.873 114.296 197.03 115.018C196.727 115.118 196.464 115.318 196.277 115.588C196.091 115.858 195.992 116.184 195.996 116.518C195.815 118.821 198.322 121.288 199.407 123.128C200.7 125.445 201.72 128.007 203.116 130.311C203.42 130.758 203.851 131.093 204.346 131.267C204.841 131.442 205.376 131.447 205.874 131.283C206.372 131.118 206.808 130.792 207.121 130.351C207.433 129.909 207.605 129.375 207.613 128.825L207.678 128.893ZM197.921 152.226C198.394 152.335 198.883 152.335 199.356 152.226C200.072 151.994 200.677 151.482 201.048 150.795C201.396 150.064 201.569 149.255 201.552 148.437C201.529 147.663 201.33 146.906 200.971 146.229L200.544 145.671L199.976 145.235C199.62 145.041 199.228 144.935 198.828 144.923C198.428 144.912 198.03 144.996 197.665 145.168C197.3 145.341 196.977 145.599 196.719 145.922C196.461 146.245 196.276 146.625 196.177 147.034C195.962 147.827 195.81 148.639 195.724 149.46L195.841 150.209C195.931 150.585 196.109 150.932 196.358 151.218C196.748 151.694 197.274 152.024 197.857 152.158L197.921 152.226ZM206.838 143.545C207.343 143.517 207.826 143.32 208.217 142.981C208.608 142.642 208.885 142.181 209.009 141.664C209.21 140.606 209.143 139.51 208.815 138.488C208.622 137.515 208.174 136.618 207.523 135.899C207.289 135.671 207.004 135.511 206.695 135.435C206.385 135.358 206.062 135.368 205.757 135.463C205.453 135.558 205.176 135.734 204.956 135.975C204.735 136.217 204.578 136.514 204.499 136.839C204.395 137.635 204.395 138.442 204.499 139.238C204.499 139.578 204.499 139.919 204.499 140.274C204.492 140.787 204.544 141.3 204.654 141.8C204.799 142.277 205.08 142.694 205.46 142.995C205.84 143.295 206.299 143.463 206.773 143.476L206.838 143.545Z" fill="#030402"/>
<path d="M202.301 120.633C197.377 120.156 191.071 109.062 189.869 102.016C189.792 101.525 191.756 97.4225 193.914 92.3252C195.206 89.2313 196.602 85.7422 197.636 82.4712L215.521 94.3423C213.107 98.0452 211.133 102.046 209.641 106.254C209.507 106.699 209.412 107.155 209.357 107.617C209.361 107.694 209.361 107.772 209.357 107.849C208.904 110.575 207.069 121.097 202.301 120.633Z" fill="#D3766A"/>
<path d="M209.358 107.645C209.362 107.723 209.362 107.8 209.358 107.877C208.669 107.735 207.991 107.539 207.329 107.291C196.138 103.039 198.115 87.556 198.903 83.2764L203.362 86.2475L215.573 94.4251C213.161 98.1265 211.191 102.127 209.707 106.337C209.553 106.761 209.436 107.199 209.358 107.645Z" fill="#263238"/>
<path d="M199.51 60.6234C195.814 67.6424 195.168 90.1852 199.264 96.1685C205.183 104.837 217.072 108.217 224.606 100.257C231.907 92.4613 232.243 63.063 227.487 57.3932C220.457 48.9704 204.963 50.2515 199.51 60.6234Z" fill="#D3766A"/>
<path d="M216.671 78.8462C216.671 78.8462 216.555 78.8462 216.555 78.9825C216.555 80.5362 216.297 82.308 214.953 82.7714V82.8668C216.594 82.676 216.904 80.3182 216.671 78.8462Z" fill="#263238"/>
<path d="M215.416 77.1831C213.051 76.9106 212.703 81.8989 214.886 82.1578C217.07 82.4168 217.393 77.4148 215.416 77.1831Z" fill="#263238"/>
<path d="M225.151 79.3779C225.151 79.3779 225.254 79.4597 225.254 79.5279C225.086 81.068 225.151 82.867 226.43 83.4803C226.43 83.4803 226.43 83.5894 226.43 83.5757C224.815 83.1941 224.763 80.809 225.151 79.3779Z" fill="#263238"/>
<path d="M226.585 77.8784C228.949 77.8784 228.756 82.8804 226.585 82.8804C224.414 82.8804 224.594 77.8648 226.585 77.8784Z" fill="#263238"/>
<path d="M217.331 76.1751C216.672 76.325 216.039 76.3387 215.393 76.4204C214.724 76.6051 214.015 76.5524 213.377 76.2705C213.191 76.1414 213.051 75.951 212.979 75.7291C212.906 75.5072 212.905 75.2663 212.976 75.0439C213.188 74.6374 213.498 74.2972 213.875 74.0579C214.252 73.8185 214.682 73.6885 215.122 73.681C216.014 73.4999 216.939 73.6852 217.706 74.1989C217.866 74.3255 217.988 74.4971 218.059 74.6939C218.131 74.8907 218.148 75.1048 218.108 75.3114C218.069 75.518 217.976 75.7087 217.838 75.8615C217.701 76.0143 217.525 76.123 217.331 76.1751Z" fill="#263238"/>
<path d="M228.704 73.2302C228.077 73.0445 227.46 72.8215 226.856 72.5623C226.177 72.4271 225.559 72.0581 225.099 71.5129C224.984 71.3131 224.936 71.0786 224.961 70.8465C224.987 70.6145 225.086 70.3981 225.241 70.2317C225.594 69.9472 226.014 69.769 226.455 69.7162C226.897 69.6634 227.344 69.7379 227.748 69.9319C228.621 70.1839 229.375 70.7661 229.867 71.5674C229.97 71.7575 230.017 71.9748 230.005 72.193C229.992 72.4112 229.92 72.6209 229.797 72.7968C229.674 72.9727 229.506 73.1072 229.312 73.1841C229.118 73.261 228.907 73.277 228.704 73.2302Z" fill="#263238"/>
<path d="M215.603 91.1403C217.506 90.6598 219.489 90.6598 221.392 91.1403C221.56 91.1403 221.728 90.786 221.767 90.6224L221.87 87.3514C222.271 87.5967 224.287 88.7143 224.287 88.1146C224.497 82.7982 224.19 77.4731 223.369 72.2229C223.36 72.1924 223.342 72.1658 223.318 72.1468C223.293 72.1279 223.264 72.1177 223.234 72.1177C223.203 72.1177 223.174 72.1279 223.149 72.1468C223.125 72.1658 223.107 72.1924 223.098 72.2229C222.891 77.1431 223.486 82.0496 223.343 86.997C222.63 86.5802 221.865 86.2728 221.069 86.0839C220.901 86.0839 221.069 89.5593 221.069 90.0773C219.29 89.431 217.343 89.5435 215.642 90.3907C214.97 90.8405 214.698 91.4402 215.603 91.1403Z" fill="#263238"/>
<path d="M211.775 94.3828C212.098 94.7645 212.422 95.2824 212.938 95.3641C213.482 95.3915 214.024 95.2939 214.528 95.0779C214.528 95.0779 214.618 95.0779 214.528 95.1597C214.305 95.449 214.012 95.6681 213.679 95.7932C213.346 95.9182 212.987 95.9442 212.641 95.8684C212.359 95.7732 212.109 95.5938 211.921 95.352C211.733 95.1102 211.615 94.8162 211.582 94.5055C211.607 94.3556 211.724 94.3283 211.775 94.3828Z" fill="#263238"/>
<path opacity="0.2" d="M205.755 53.4678C205.561 56.9705 204.773 67.833 203.17 70.041C201.568 72.2489 198.182 77.3871 196.463 78.2185C196.696 70.9814 197.756 64.0986 199.526 60.5005C200.977 57.6176 203.126 55.1912 205.755 53.4678Z" fill="#263238"/>
<path d="M224.169 64.0852C223.266 65.0552 222.142 65.7649 220.904 66.1467C219.667 66.5284 218.357 66.5695 217.101 66.2659C215.815 65.9641 214.624 65.3176 213.644 64.3889C212.664 63.4602 211.927 62.2806 211.505 60.9641C211.505 60.8823 211.363 60.9641 211.389 60.9641C211.717 62.3855 212.409 63.6847 213.389 64.7204C214.368 65.7561 215.599 66.4886 216.946 66.8383C218.29 67.109 219.679 66.9994 220.97 66.5206C222.262 66.0418 223.41 65.211 224.299 64.1124C224.376 64.1261 224.273 64.0034 224.169 64.0852Z" fill="#263238"/>
<path d="M217.676 43.8879C215.69 43.7462 213.703 44.1339 211.896 45.0151C210.089 45.8964 208.522 47.2429 207.338 48.9307C206.33 50.6485 205.902 52.6755 206.124 54.6823H206.292C206.316 52.9214 206.791 51.2002 207.667 49.7007C208.543 48.2012 209.787 46.9793 211.267 46.164C212.885 45.2088 214.69 44.6613 216.542 44.5644C218.393 44.4674 220.241 44.8237 221.941 45.6052C223.612 46.3321 224.986 47.66 225.818 49.3532C225.895 49.5304 226.231 49.4486 226.166 49.2715C225.107 46.3003 221.682 44.0923 217.676 43.8879Z" fill="#263238"/>
<path d="M242.363 55.7713C241.801 53.4639 240.483 51.4409 238.641 50.0607C236.057 48.1117 233.033 48.1389 230.009 48.248C229.919 48.248 229.932 48.3843 230.009 48.3706C232.58 48.0875 235.174 48.594 237.478 49.829C239.354 51.0162 240.783 52.8507 241.523 55.0217C242.227 57.2485 242.146 59.6685 241.294 61.837C240.441 64.0054 238.875 65.7765 236.884 66.8247C235.725 67.3992 234.467 67.7174 233.186 67.7596C231.906 67.8018 230.631 67.5671 229.441 67.07C229.35 67.07 229.273 67.1654 229.363 67.2199C230.974 67.9706 232.753 68.2311 234.497 67.9721C236.241 67.713 237.882 66.9447 239.234 65.7539C240.587 64.5632 241.596 62.9974 242.149 61.2334C242.702 59.4694 242.776 57.5775 242.363 55.7713Z" fill="#263238"/>
<path d="M198.22 65.0534C198.22 65.0534 194.653 56.4806 198.465 51.9829C200.624 49.4479 207.111 50.3201 207.111 50.3201C209.048 47.7257 211.884 46.0491 214.993 45.6589C220.537 44.7458 226.856 48.6983 226.856 48.6983C226.856 48.6983 232.258 45.9724 236.897 49.2843C243.358 53.9046 241.743 64.7126 234.687 67.6566C229.725 69.7418 223.548 64.7535 223.548 64.7535C222.928 64.7535 216.234 68.3517 211.827 61.9459C211.827 61.9459 207.64 65.3123 204.294 62.4502C203.657 63.4893 202.733 64.2966 201.646 64.7623C200.559 65.2281 199.363 65.3297 198.22 65.0534Z" fill="#263238"/>
<path d="M200.324 79.2958C200.324 79.2958 196.938 71.2955 193.591 72.4812C190.244 73.667 191.873 84.5431 195.181 86.6693C195.584 86.965 196.039 87.1723 196.52 87.279C197.001 87.3858 197.497 87.3897 197.979 87.2905C198.461 87.1914 198.919 86.9912 199.326 86.7019C199.733 86.4126 200.082 86.04 200.35 85.6062L200.324 79.2958Z" fill="#D3766A"/>
<path d="M194.136 75.5615V75.6569C196.436 77.2243 197.302 79.9365 197.754 82.6487C197.657 82.3565 197.501 82.09 197.296 81.8677C197.092 81.6453 196.844 81.4725 196.57 81.361C196.296 81.2496 196.002 81.2022 195.709 81.2222C195.416 81.2421 195.13 81.3289 194.872 81.4766C194.795 81.4766 194.872 81.6266 194.872 81.6266C195.343 81.5692 195.819 81.67 196.232 81.9148C196.645 82.1595 196.974 82.5357 197.173 82.9895C197.523 83.7267 197.792 84.5042 197.974 85.3064C197.974 85.5654 198.465 85.5245 198.439 85.3064C199.098 81.7901 197.483 76.5973 194.136 75.5615Z" fill="#263238"/>
<path d="M379.446 95.1753L240.318 140.121L265.403 226.495L404.53 181.549L379.446 95.1753Z" fill="#8FA3FF"/>
<path opacity="0.2" d="M379.446 95.1753L240.318 140.121L265.403 226.495L404.53 181.549L379.446 95.1753Z" fill="black"/>
<path opacity="0.2" d="M379.437 95.1749L332.682 110.279L357.767 196.653L404.522 181.549L379.437 95.1749Z" fill="black"/>
<path d="M377.197 99.5767C375.621 107.227 374.087 114.878 372.597 122.528L368.19 145.535L363.926 168.636C362.53 176.323 361.169 184.024 359.842 191.738C361.419 184.096 362.952 176.446 364.443 168.786L368.849 145.78L373.114 122.733C374.509 115.01 375.871 107.291 377.197 99.5767Z" fill="#8FA3FF"/>
<path d="M400.16 178.653C394.991 173.056 389.774 167.481 384.51 161.93L368.745 145.356L352.876 128.906C347.569 123.454 342.236 118.002 336.878 112.551C342.047 118.157 347.263 123.731 352.527 129.274L368.293 145.847L384.162 162.298C389.477 167.804 394.81 173.256 400.16 178.653Z" fill="#8FA3FF"/>
<path d="M267.038 151.251L267.804 151.004L264.507 139.653L263.741 139.901L267.038 151.251Z" fill="#263238"/>
<path d="M265.216 151.828L265.982 151.58L262.686 140.23L261.92 140.477L265.216 151.828Z" fill="#263238"/>
<path d="M263.376 152.446L264.142 152.198L260.845 140.848L260.079 141.095L263.376 152.446Z" fill="#263238"/>
<path d="M261.561 153.003L262.327 152.755L259.033 141.404L258.266 141.652L261.561 153.003Z" fill="#263238"/>
<path d="M259.728 153.602L260.494 153.355L257.198 142.004L256.432 142.252L259.728 153.602Z" fill="#263238"/>
<path d="M257.903 154.18L258.669 153.932L255.373 142.582L254.606 142.829L257.903 154.18Z" fill="#263238"/>
<path d="M256.058 154.815L256.824 154.567L253.528 143.217L252.762 143.464L256.058 154.815Z" fill="#263238"/>
<path d="M254.236 155.388L255.002 155.141L251.704 143.791L250.938 144.038L254.236 155.388Z" fill="#263238"/>
<path d="M252.392 155.999L253.158 155.751L249.861 144.401L249.095 144.648L252.392 155.999Z" fill="#263238"/>
<path d="M272.252 138.092L269.073 138.174L275.961 135.925L273.273 137.751L274.488 141.922C276.672 141.526 278.145 143.448 279.256 147.264L272.368 149.554C271.257 145.752 271.451 143.285 273.467 142.317L272.252 138.092Z" fill="#263238"/>
<path d="M279.179 140.995L280.975 140.409L279.36 134.848L283.96 133.362L285.575 138.923L287.385 138.337L284.955 145.451L279.179 140.995Z" fill="#263238"/>
<path opacity="0.1" d="M240.322 140.123L242.376 147.21L338.546 130.474L332.679 110.289L240.322 140.123Z" fill="black"/>
<path d="M422.557 191.343L375.791 206.444L357.764 196.658L404.53 181.543L422.557 191.343Z" fill="#8FA3FF"/>
<path opacity="0.2" d="M422.557 191.343L375.791 206.444L357.764 196.658L404.53 181.543L422.557 191.343Z" fill="black"/>
<path d="M255.658 245.26L302.425 230.145L312.156 211.391L265.389 226.492L255.658 245.26Z" fill="#8FA3FF"/>
<path opacity="0.1" d="M255.658 245.26L302.425 230.145L312.156 211.391L265.389 226.492L255.658 245.26Z" fill="black"/>
<path d="M178.694 126.794C185.53 150.904 204.54 192.214 211.595 197.257C217.811 201.768 247.649 197.666 260.701 194.681C265.586 193.577 255.532 154.243 250.363 155.538C244.108 157.105 225.487 160.99 224.169 159.913C222.851 158.836 204.785 134.017 191.862 119.461C180.129 106.213 176.11 117.676 178.694 126.794Z" fill="#D3766A"/>
<path d="M247.673 158.741C247.673 158.741 257.559 146.992 264.563 142.508C271.956 138.045 280.267 135.543 288.78 135.217C297.968 134.835 320.44 140.587 319.988 147.701C319.587 154.148 296.908 147.033 296.908 147.033C296.908 147.033 321.164 150.263 319.329 157.937C317.494 165.61 291.61 155.756 291.61 155.756C291.61 155.756 316.46 159.654 313.436 167.273C311.11 173.011 287.191 165.487 287.191 165.487C287.191 165.487 308.539 169.004 306.381 175.028C304.003 181.665 281.505 176.186 281.505 176.186C273.609 190.47 264.292 193.904 257.404 195.444C255.685 195.758 247.673 158.741 247.673 158.741Z" fill="#D3766A"/>
<path d="M288.586 145.344C291.442 145.617 294.35 145.876 297.18 146.407C300.01 146.939 302.814 147.593 305.592 148.411C309.232 149.397 312.752 150.82 316.086 152.65C309.947 149.856 299.842 147.757 297.012 147.198C294.182 146.639 291.378 145.971 288.56 145.44C288.483 145.467 288.509 145.344 288.586 145.344Z" fill="#263238"/>
<path d="M286.558 156.098C290.189 156.602 293.833 156.97 297.451 157.651C301.07 158.333 304.417 159.314 307.97 160.254C308.242 160.323 308.113 160.459 307.841 160.391C304.249 159.6 300.889 159.164 297.296 158.428C293.704 157.692 290.137 156.793 286.532 156.179C286.48 156.179 286.493 156.084 286.558 156.098Z" fill="#263238"/>
<path d="M283.233 164.984C288.837 165.625 294.363 166.877 299.723 168.718C299.994 168.8 299.813 168.95 299.529 168.882C294.075 167.519 289.798 166.428 283.221 165.188C283.117 165.174 283.117 164.97 283.233 164.984Z" fill="#263238"/>
<path d="M257.739 201.659L249.055 154.611L224.851 158.618C215.599 146.896 197.119 123.454 189.573 116.367C180.721 108.039 174.66 113.982 177.697 126.316C184.649 154.515 205.739 196.166 211.451 200.255C219.643 206.116 257.739 201.659 257.739 201.659Z" fill="#8FA3FF"/>
<path opacity="0.1" d="M241.354 161.14C242.548 161.414 243.764 161.565 244.985 161.59C247.57 161.958 248.707 165.979 246.355 167.505C245.12 168.307 243.724 168.793 242.279 168.923C240.833 169.054 239.379 168.825 238.033 168.255C235.449 167.192 233.265 164.548 233.82 161.44C233.917 160.861 234.153 160.318 234.508 159.863C234.862 159.409 235.321 159.059 235.842 158.848C236.362 158.637 236.926 158.571 237.477 158.658C238.029 158.744 238.55 158.979 238.989 159.341C239.705 160.04 240.5 160.644 241.354 161.14ZM238.77 156.315C239.58 156.728 240.473 156.928 241.373 156.9C242.273 156.871 243.153 156.615 243.939 156.152C244.228 155.948 244.46 155.665 244.611 155.334L238.77 156.315ZM226.196 158.387C227.225 159.18 228.495 159.544 229.763 159.409C230.2 159.346 230.602 159.123 230.899 158.78C231.197 158.436 231.371 157.993 231.391 157.528L226.196 158.387ZM253.592 179.39C253.08 179.616 252.666 180.033 252.429 180.562C251.343 182.865 252.855 185.346 255.013 186.831L253.592 179.39ZM214.669 188.44C214.256 189.952 214.204 191.302 213.131 192.528C211.976 193.51 210.943 194.641 210.056 195.895C209.906 196.204 209.834 196.548 209.848 196.895C209.863 197.241 209.962 197.578 210.136 197.872C210.311 198.166 210.555 198.407 210.844 198.572C211.134 198.736 211.459 198.819 211.787 198.812C214.039 198.519 216.104 197.346 217.574 195.523C219.043 193.7 219.81 191.362 219.722 188.971C219.649 188.359 219.381 187.79 218.963 187.359C218.544 186.927 217.998 186.659 217.416 186.597C216.833 186.535 216.248 186.684 215.756 187.019C215.264 187.354 214.895 187.854 214.708 188.44H214.669ZM210.211 175.233C209.487 177.086 209.616 179.185 209.009 181.121C208.476 182.895 207.842 184.634 207.109 186.327C206.567 187.554 207.652 189.489 209.061 188.835C211.351 187.907 213.225 186.101 214.307 183.778C215.289 181.639 216.375 178.041 215.432 175.764C214.488 173.488 211.348 172.548 210.25 175.233H210.211ZM191.034 127.026C191.756 127.187 192.509 127.047 193.135 126.636C193.762 126.224 194.213 125.573 194.394 124.818C195.117 121.888 192.636 118.876 190.672 117.05C188.708 115.223 185.942 113.56 183.19 114.501C182.823 114.626 182.493 114.848 182.231 115.146C181.969 115.443 181.783 115.806 181.691 116.201C181.599 116.595 181.604 117.008 181.706 117.4C181.808 117.792 182.003 118.15 182.272 118.44C183.474 120.021 185.141 121.166 186.42 122.719C187.7 124.273 188.824 126.631 191.073 127.026H191.034ZM201.01 138.652C202.095 137.003 201.255 134.563 200.48 132.996C200.067 132.131 199.425 131.412 198.632 130.924C198.098 130.564 197.451 130.441 196.832 130.581C196.212 130.721 195.67 131.114 195.324 131.674C194.972 132.449 194.916 133.337 195.169 134.154C195.277 134.582 195.424 134.997 195.608 135.395V135.517V135.626C195.839 136.928 196.362 138.152 197.133 139.197C197.4 139.481 197.725 139.695 198.084 139.824C198.443 139.952 198.824 139.992 199.2 139.939C199.575 139.886 199.934 139.743 200.248 139.519C200.562 139.296 200.823 138.999 201.01 138.652ZM197.921 152.281C198.394 152.39 198.883 152.39 199.356 152.281C200.072 152.049 200.678 151.537 201.049 150.85C201.396 150.119 201.569 149.31 201.553 148.492C201.529 147.718 201.33 146.961 200.971 146.284L200.545 145.726L199.976 145.289C199.62 145.096 199.228 144.989 198.828 144.978C198.428 144.967 198.031 145.05 197.665 145.223C197.3 145.396 196.977 145.654 196.719 145.977C196.462 146.299 196.276 146.68 196.177 147.088C195.962 147.882 195.811 148.694 195.725 149.514L195.841 150.264C195.931 150.64 196.109 150.987 196.358 151.273C196.756 151.728 197.281 152.039 197.857 152.159L197.921 152.281ZM208.763 138.448L206.179 135.381C205.766 135.329 205.349 135.439 205.009 135.691C204.668 135.942 204.427 136.317 204.331 136.744C204.228 137.54 204.228 138.347 204.331 139.143C204.331 139.483 204.331 139.824 204.331 140.178C204.324 140.692 204.376 141.204 204.486 141.705C204.627 142.224 204.93 142.677 205.344 142.994C205.759 143.31 206.262 143.47 206.773 143.449C207.278 143.422 207.762 143.224 208.152 142.886C208.543 142.547 208.821 142.086 208.944 141.569C209.138 140.529 209.076 139.454 208.763 138.448Z" fill="#030402"/>
<path d="M249.396 197.338C248.349 194.544 245.894 182.414 245.312 179.375C244.731 176.336 242.805 164.124 242.224 161.003C242.224 160.839 242.405 160.73 242.443 160.907C243.064 163.974 245.919 176.063 246.527 179.089C247.134 182.114 249.447 194.244 249.551 197.297C249.556 197.319 249.553 197.342 249.542 197.361C249.531 197.38 249.513 197.394 249.493 197.4C249.472 197.405 249.45 197.402 249.432 197.39C249.414 197.379 249.401 197.36 249.396 197.338Z" fill="#263238"/>
<path d="M241.406 202.982C237.438 203.227 233.471 203.323 229.504 203.296C225.522 203.314 221.543 203.073 217.589 202.573C215.563 202.362 213.583 201.81 211.722 200.938C210.05 199.692 208.598 198.147 207.432 196.372C205.09 192.961 202.97 189.387 201.087 185.673C197.21 178.327 193.876 170.681 190.62 163.076C187.363 155.47 184.404 147.647 181.69 139.77C184.986 147.388 188.242 155.021 191.628 162.585C195.014 170.149 198.438 177.686 202.134 185.06C203.978 188.737 206.015 192.305 208.233 195.745C209.269 197.458 210.581 198.966 212.11 200.202C213.872 201.059 215.752 201.615 217.68 201.851C225.55 202.857 233.481 203.235 241.406 202.982Z" fill="#263238"/>
<path d="M184.212 146.421C183.681 145.855 183.201 145.239 182.778 144.581C182.339 143.928 182.003 143.206 181.783 142.441C181.977 142.779 182.189 143.107 182.416 143.422L183.049 144.39C183.474 145.042 183.863 145.72 184.212 146.421Z" fill="#263238"/>
<path d="M204.613 133.786C207.882 137.248 210.816 141.051 213.852 144.69C216.889 148.329 219.797 152.172 222.898 155.797L224.048 157.16C224.255 157.365 224.449 157.596 224.643 157.787C224.837 157.978 224.837 157.964 224.927 158.046C224.927 158.046 225.018 158.046 225.069 158.046C226.051 158.046 227.292 157.815 228.403 157.665L235.278 156.588C239.853 155.879 244.44 155.143 249.028 154.489L249.209 155.688L248.937 154.503H249.002C244.466 155.525 239.956 156.438 235.356 157.324C233.068 157.76 230.781 158.142 228.481 158.51C227.305 158.725 226.118 158.87 224.927 158.946C224.833 158.959 224.737 158.959 224.643 158.946C224.516 158.906 224.398 158.841 224.294 158.755C224.164 158.648 224.038 158.534 223.919 158.414L223.286 157.76C222.872 157.31 222.485 156.86 222.097 156.397C219.06 152.676 216.114 148.915 213.219 145.098L208.89 139.361C207.469 137.575 206.176 135.612 204.613 133.786Z" fill="#263238"/>
<path d="M206.308 134.193C206.795 134.824 207.227 135.499 207.6 136.211C207.965 136.913 208.222 137.672 208.363 138.459C208.208 138.091 208.014 137.764 207.833 137.41L207.303 136.36C206.935 135.657 206.603 134.934 206.308 134.193Z" fill="#263238"/>
<path d="M51.3143 490.585C50.8359 477.832 51.0042 465.062 51.8182 452.328C53.6004 426.083 57.3991 400.033 63.1772 374.436C66.3432 360.017 70.2458 345.815 74.3164 331.668C74.4327 331.245 75.0788 331.368 74.9755 331.804C62.4018 381.742 52.0767 433.288 52.7874 485.188C52.9942 499.717 54.5837 513.986 55.8888 528.42C55.8888 528.815 55.3202 528.965 55.2427 528.57C52.6453 516.181 51.8053 503.206 51.3143 490.585Z" fill="#8FA3FF"/>
<path d="M74.9757 331.736C74.9757 331.736 94.0235 382.737 89.7591 394.717C85.4947 406.697 76.6944 409.26 76.6944 409.26C76.6944 409.26 88.3247 426.814 80.2093 443.333C72.094 459.851 53.9765 459.006 52.7618 477.678C52.7618 477.624 51.7538 399.583 74.9757 331.736Z" fill="#8FA3FF"/>
<path d="M54.8436 445.404C54.8118 445.316 54.8118 445.219 54.8436 445.132C57.3557 410.315 63.5585 375.904 73.3358 342.544C73.3358 342.449 73.5167 342.476 73.4909 342.544C69.7175 357.455 66.3835 372.447 63.4888 387.521C66.0343 384.972 69.144 383.135 72.5346 382.178C72.5346 382.178 72.6251 382.178 72.5346 382.273C68.9558 383.67 65.741 385.94 63.1528 388.897C62.6014 391.841 62.063 394.799 61.5375 397.77C65.789 392.754 71.6946 390.26 77.6002 387.889C77.6778 387.889 77.7295 387.998 77.6002 388.025C71.4491 390.669 65.3109 394.076 61.1498 399.664C59.6853 408.124 58.393 416.615 57.273 425.138C60.3528 421.752 64.2993 419.385 68.632 418.323C68.7612 418.323 68.8387 418.5 68.632 418.541C64.1602 419.904 60.1601 422.607 57.118 426.323H57.0404C56.6614 429.322 56.3039 432.325 55.9679 435.332C58.4226 433.195 61.1952 431.5 64.1737 430.317C64.2512 430.317 64.29 430.412 64.1737 430.439C61.2567 431.803 58.5854 433.689 56.278 436.014C56.278 436.014 56.278 436.014 56.1746 436.014C55.8645 438.862 55.5414 441.724 55.2701 444.586C59.5616 439.12 65.1286 434.925 71.4233 432.416C71.436 432.41 71.4496 432.408 71.4633 432.408C71.477 432.408 71.4905 432.411 71.5031 432.417C71.5157 432.422 71.5271 432.431 71.5367 432.441C71.5463 432.451 71.5538 432.463 71.5589 432.477C71.564 432.49 71.5666 432.505 71.5664 432.519C71.5662 432.534 71.5634 432.548 71.558 432.561C71.5526 432.574 71.5447 432.586 71.5349 432.597C71.5251 432.607 71.5135 432.615 71.5008 432.62C65.2832 435.509 59.8208 439.942 55.5802 445.541C55.5366 445.606 55.4739 445.655 55.4016 445.68C55.3293 445.704 55.2513 445.703 55.1796 445.677C54.7661 450.065 54.3913 454.468 54.0941 458.87H53.9907C54.1975 454.413 54.4947 449.902 54.8436 445.404Z" fill="#263238"/>
<path d="M70.1424 377.164C73.5909 374.897 77.533 373.602 81.5918 373.402C81.6822 373.402 81.6951 373.538 81.5918 373.552C77.6714 374.317 73.8648 375.628 70.2716 377.45C70.2378 377.457 70.2027 377.452 70.1719 377.435C70.1411 377.419 70.1163 377.392 70.1015 377.36C70.0867 377.327 70.0826 377.29 70.09 377.254C70.0974 377.219 70.1159 377.187 70.1424 377.164Z" fill="#263238"/>
<path d="M67.8296 431.149C70.482 429.551 73.3984 428.501 76.4231 428.055C76.5265 428.055 76.5394 428.205 76.4231 428.218C73.4599 428.847 70.5939 429.906 67.9072 431.367C67.8167 431.421 67.7133 431.217 67.8296 431.149Z" fill="#263238"/>
<path d="M1.24431 395.549C9.29839 401.426 16.6943 408.248 23.2902 415.884C30.1103 423.954 35.3771 433.346 38.7973 443.538C46.0252 464.777 49.9144 487.118 50.3113 509.68C50.5589 522.176 49.4182 534.659 46.9126 546.875C46.8907 546.96 46.8392 547.034 46.7684 547.081C46.6976 547.128 46.6126 547.146 46.53 547.131C46.4474 547.115 46.3733 547.068 46.3221 546.998C46.271 546.928 46.2465 546.84 46.2536 546.752C49.3748 525.193 49.2702 503.251 45.9434 481.727C42.6611 460.629 37.5309 437.677 24.8151 420.531C17.824 411.236 9.19169 403.863 0.714487 396.244C0.210507 395.862 0.779099 395.208 1.24431 395.549Z" fill="#8FA3FF"/>
<path d="M47.4646 494.497C42.8832 486.672 37.4963 479.404 31.4018 472.826C21.865 462.782 13.8401 455.64 12.5995 448.989C11.3589 442.338 22.1493 437.458 22.1493 437.458C22.1493 437.458 8.95533 439.953 5.34994 434.106C1.74455 428.259 0 394.472 0 394.472C0 394.472 23.9713 412.599 35.1752 437.854C46.3791 463.109 47.4646 494.497 47.4646 494.497Z" fill="#8FA3FF"/>
<path d="M8.56921 426.228C10.1482 425.99 11.7473 425.935 13.3376 426.064C13.5315 426.064 13.5185 426.419 13.3376 426.419C11.7611 426.419 10.1845 426.337 8.59505 426.419C8.46582 426.391 8.46582 426.228 8.56921 426.228Z" fill="#263238"/>
<path d="M25.8325 458.938C28.3692 458.994 30.8764 459.525 33.2371 460.505C33.2371 460.505 33.2371 460.628 33.2371 460.614C30.7948 460.001 28.3266 459.742 25.8583 459.32C25.6128 459.32 25.6257 458.938 25.8325 458.938Z" fill="#263238"/>
<path d="M31.0135 447.64C32.067 447.631 33.1188 447.732 34.1536 447.94C34.257 447.94 34.2441 448.144 34.1536 448.144C33.1044 448.2 32.0525 448.145 31.0135 447.981C30.9783 447.97 30.9475 447.948 30.9255 447.917C30.9035 447.887 30.8916 447.849 30.8916 447.811C30.8916 447.772 30.9035 447.735 30.9255 447.704C30.9475 447.673 30.9783 447.651 31.0135 447.64Z" fill="#263238"/>
<path d="M117.789 431.434C109.986 434.223 102.507 437.936 95.4971 442.501C88.2383 447.392 81.942 453.713 76.9533 461.119C66.449 476.548 58.4044 493.683 53.137 511.847C50.2059 521.899 48.3932 532.277 47.7354 542.772C47.7354 542.851 47.7653 542.927 47.8186 542.984C47.8719 543.04 47.9442 543.072 48.0196 543.072C48.095 543.072 48.1674 543.04 48.2207 542.984C48.274 542.927 48.3039 542.851 48.3039 542.772C50.4876 524.589 55.3581 506.879 62.7384 490.285C70.0138 474.012 79.2018 456.689 93.2486 445.922C100.899 440.048 109.492 436.218 118.06 432.157C118.564 431.938 118.305 431.271 117.789 431.434Z" fill="#8FA3FF"/>
<path d="M58.7075 500.235C64.1267 495.015 70.0772 490.444 76.4502 486.605C86.3747 480.799 94.4255 476.969 96.8937 471.899C99.3619 466.829 91.7247 460.233 91.7247 460.233C91.7247 460.233 101.843 465.466 106.043 461.596C110.243 457.725 119.056 430.807 119.056 430.807C119.056 430.807 95.6919 439.584 81.0894 457.357C66.4869 475.13 58.7075 500.235 58.7075 500.235Z" fill="#8FA3FF"/>
<path d="M78.1061 475.484C80.3996 475.315 82.7026 475.611 84.8904 476.356C84.8904 476.356 84.8904 476.479 84.8904 476.465C82.6545 476.07 80.3972 475.824 78.1319 475.73C78.1011 475.733 78.0701 475.724 78.0459 475.703C78.0216 475.683 78.0061 475.653 78.0027 475.62C77.9992 475.588 78.0082 475.555 78.0276 475.53C78.047 475.504 78.0752 475.488 78.1061 475.484Z" fill="#263238"/>
<path d="M98.4998 447.271C99.5457 447.192 100.597 447.256 101.627 447.462C101.647 447.47 101.664 447.484 101.676 447.502C101.688 447.52 101.694 447.542 101.694 447.564C101.694 447.587 101.688 447.608 101.676 447.627C101.664 447.645 101.647 447.659 101.627 447.667C100.606 447.544 99.5853 447.585 98.5515 447.558C98.5197 447.556 98.4893 447.543 98.4653 447.521C98.4413 447.499 98.425 447.469 98.419 447.436C98.4131 447.403 98.4178 447.369 98.4324 447.339C98.4471 447.309 98.4708 447.285 98.4998 447.271Z" fill="#263238"/>
<path d="M28.5562 576.763H81.3061L73.7851 518.634L71.8597 503.737H38.0025L36.0771 518.634L28.5562 576.763Z" fill="#455A64"/>
<path d="M36.0806 518.634H73.7886L71.8631 503.737H38.006L36.0806 518.634Z" fill="#263238"/>
<path d="M33.1475 511.18H76.7095V498.559H33.1475V511.18Z" fill="#455A64"/>
<path d="M309.557 30.6667C309.557 36.2756 308.079 41.7741 305.288 46.5487C302.497 51.3233 298.504 55.1862 293.753 57.7065C289.002 60.2267 283.68 61.3052 278.382 60.8216C273.084 60.338 268.017 58.3113 263.747 54.9677L249.674 58.7566L255.528 44.9502C253.468 40.8906 252.312 36.3891 252.15 31.7878C251.987 27.1865 252.821 22.6066 254.589 18.3964C256.356 14.1862 259.011 10.4565 262.351 7.49103C265.69 4.52554 269.627 2.40231 273.862 1.28279C278.097 0.163263 282.518 0.0769285 286.789 1.03035C291.06 1.98377 295.069 3.95183 298.511 6.78489C301.952 9.61794 304.736 13.2414 306.65 17.3797C308.564 21.518 309.559 26.0622 309.557 30.6667Z" fill="white"/>
<path d="M309.558 30.6527C309.557 36.2686 308.091 41.7759 305.32 46.5717C304.646 47.7806 303.904 48.9457 303.097 50.0607C302.24 51.1284 301.321 52.1389 300.345 53.0864C298.417 55.0033 296.241 56.6231 293.883 57.8976C291.518 59.1709 288.995 60.0885 286.388 60.6234C285.08 60.8982 283.754 61.0713 282.421 61.1413C281.092 61.2572 279.757 61.2572 278.428 61.1413C273.053 60.7015 267.899 58.6962 263.541 55.3489L263.929 55.4307L249.895 59.3287L248.758 59.6421L249.236 58.4973L255.038 44.6636V45.236C252.928 41.0977 251.748 36.5027 251.591 31.8066C251.435 27.1105 252.304 22.4393 254.134 18.1546C255.965 13.882 258.691 10.1028 262.107 7.10131C265.518 4.14404 269.521 2.04003 273.813 0.947131C278.106 -0.145764 282.577 -0.19916 286.892 0.790954C291.168 1.81686 295.173 3.83783 298.613 6.70606C302.035 9.56554 304.797 13.206 306.693 17.3536C308.589 21.5013 309.569 26.0482 309.558 30.6527ZM309.558 30.6527C309.556 23.7289 307.282 17.0193 303.122 11.663C298.962 6.30671 293.173 2.63386 286.737 1.26798C282.503 0.379005 278.132 0.518832 273.957 1.67686C269.795 2.81053 265.935 4.93679 262.675 7.89181C259.445 10.8788 256.87 14.5715 255.129 18.7134C253.411 22.8437 252.607 27.3319 252.777 31.8384C252.976 36.3 254.105 40.6604 256.085 44.609L256.227 44.8953L256.098 45.1815L250.192 58.9743L249.533 58.1565L263.632 54.4766H263.851L264.019 54.6129C268.198 57.9603 273.179 60.0134 278.402 60.5417C279.693 60.6418 280.988 60.6418 282.279 60.5417C286.228 60.3985 290.102 59.362 293.638 57.5023C295.997 56.2912 298.174 54.7206 300.099 52.8411C301.075 51.9076 301.994 50.9107 302.852 49.8563C303.675 48.7719 304.438 47.6388 305.139 46.4626C307.96 41.7203 309.489 36.2506 309.558 30.6527Z" fill="#263238"/>
<path d="M282.846 33.9369V37.2761C282.855 37.6098 282.799 37.9418 282.682 38.252C282.565 38.5622 282.389 38.8439 282.165 39.0799C281.942 39.316 281.675 39.5013 281.38 39.6247C281.086 39.7481 280.772 39.8069 280.455 39.7975C280.142 39.7975 279.832 39.7322 279.542 39.6053C279.253 39.4784 278.99 39.2925 278.769 39.0582C278.548 38.8239 278.373 38.5458 278.255 38.24C278.136 37.9341 278.076 37.6066 278.077 37.2761V31.947C278.077 31.947 278.077 31.947 278.077 31.838C278.077 31.729 278.077 31.838 278.077 31.7426C278.094 31.0816 278.349 30.4522 278.791 29.9834C279.233 29.5145 279.829 29.2418 280.455 29.2212C281.193 29.2591 281.93 29.1386 282.622 28.867C283.314 28.5954 283.947 28.1784 284.482 27.6412C285.016 27.104 285.442 26.4579 285.733 25.742C286.024 25.0261 286.174 24.2553 286.174 23.4764C286.174 22.6976 286.024 21.9268 285.733 21.2109C285.442 20.495 285.016 19.8489 284.482 19.3117C283.947 18.7745 283.314 18.3575 282.622 18.0859C281.93 17.8143 281.193 17.6938 280.455 17.7317C279.511 17.7286 278.583 17.9877 277.764 18.4829C276.945 18.9782 276.264 19.6921 275.79 20.553C275.631 20.8433 275.419 21.0977 275.167 21.3015C274.914 21.5053 274.626 21.6545 274.318 21.7406C274.011 21.8267 273.691 21.848 273.376 21.8032C273.06 21.7585 272.757 21.6485 272.482 21.4798C272.212 21.3113 271.977 21.0883 271.789 20.8235C271.602 20.5588 271.465 20.2575 271.389 19.9371C271.312 19.6166 271.296 19.2833 271.341 18.9563C271.387 18.6292 271.494 18.315 271.655 18.0316C272.505 16.4877 273.705 15.1906 275.148 14.2568C276.591 13.323 278.231 12.7817 279.921 12.6815C281.611 12.5813 283.298 12.9254 284.831 13.6828C286.364 14.4402 287.694 15.5872 288.703 17.0209C289.712 18.4545 290.367 20.13 290.61 21.8968C290.853 23.6635 290.677 25.4663 290.096 27.1433C289.515 28.8203 288.549 30.3189 287.283 31.5047C286.018 32.6905 284.493 33.5262 282.846 33.9369ZM282.846 45.181V46.1078C282.853 46.4404 282.796 46.771 282.678 47.0795C282.56 47.3881 282.384 47.6682 282.161 47.9027C281.937 48.1373 281.671 48.3215 281.377 48.444C281.084 48.5666 280.77 48.625 280.455 48.6156C279.825 48.6156 279.22 48.3514 278.774 47.8811C278.328 47.4108 278.077 46.7729 278.077 46.1078V45.181C278.084 44.5169 278.336 43.8817 278.78 43.4107C279.225 42.9397 279.825 42.6703 280.455 42.6596C280.77 42.656 281.083 42.7187 281.374 42.8441C281.666 42.9696 281.931 43.1551 282.153 43.39C282.376 43.6249 282.552 43.9043 282.671 44.2118C282.79 44.5194 282.849 44.8489 282.846 45.181Z" fill="#8FA3FF"/>
</svg>
