<svg width="322" height="303" viewBox="0 0 322 303" fill="none" xmlns="http://www.w3.org/2000/svg">
<path d="M176.419 239.867H102.398V296.958H176.419V239.867Z" fill="#EBEBEB"/>
<path d="M157.876 296.561C157.776 296.561 157.691 283.832 157.691 268.132C157.691 252.433 157.776 239.704 157.876 239.704C157.975 239.704 158.06 252.433 158.06 268.132C158.06 283.832 157.975 296.561 157.876 296.561Z" fill="#E0E0E0"/>
<path d="M170.145 283.966H164.474V290.384H170.145V283.966Z" fill="#FAFAFA"/>
<path d="M133.395 240.016H124.988V252.198H133.395V240.016Z" fill="#E0E0E0"/>
<path d="M133.395 284.605H124.988V296.787H133.395V284.605Z" fill="#E0E0E0"/>
<path d="M310.738 225.552H217.401V297.54H310.738V225.552Z" fill="#EBEBEB"/>
<path d="M287.35 297.029C287.25 297.029 287.165 280.988 287.165 261.195C287.165 241.402 287.25 225.361 287.35 225.361C287.449 225.361 287.534 241.402 287.534 261.195C287.534 280.988 287.456 297.029 287.35 297.029Z" fill="#E0E0E0"/>
<path d="M302.817 281.152H295.66V289.24H302.817V281.152Z" fill="#FAFAFA"/>
<path d="M256.475 225.738H245.871V241.097H256.475V225.738Z" fill="#E0E0E0"/>
<path d="M256.475 281.961H245.871V297.319H256.475V281.961Z" fill="#E0E0E0"/>
<path d="M41.5999 227.671C45.3808 225.723 49.8298 225.467 54.023 226.164C56.276 226.534 58.6213 227.209 60.1564 228.9C61.6915 230.592 61.9758 233.57 60.2204 235.026C59.1685 235.894 57.7116 236.021 56.347 236.007C53.0636 235.965 49.4247 235.389 46.8022 237.365C45.3026 238.495 44.3077 240.364 42.538 240.918C40.7683 241.473 38.8139 240.428 37.89 238.85C37.0352 237.205 36.8469 235.293 37.364 233.513C37.5733 232.279 38.0643 231.11 38.799 230.096C39.5337 229.083 40.4921 228.253 41.5999 227.671Z" fill="#EBEBEB"/>
<path d="M32.942 210.962C35.2518 214.26 39.7434 213.173 41.8258 211.154C43.9082 209.136 44.7895 206.222 45.5855 203.443C47.4191 197.082 49.2598 190.409 47.9024 183.934C47.5755 181.971 46.7122 180.136 45.4078 178.632C44.7474 177.894 43.9055 177.341 42.9656 177.028C42.0256 176.715 41.0203 176.653 40.049 176.848C37.7819 177.445 36.3747 179.691 35.3584 181.774C32.3619 187.999 30.7934 194.814 30.7672 201.723C30.7672 204.943 31.1297 208.311 32.942 210.962Z" fill="#EBEBEB"/>
<path d="M26.6045 215.695C29.1133 212.718 29.5895 208.382 28.4737 204.651C27.3579 200.92 24.8349 197.75 21.9281 195.156C18.5093 192.115 14.5311 189.769 10.2156 188.248C8.54307 187.572 6.74403 187.267 4.94218 187.352C4.04333 187.404 3.17065 187.674 2.40017 188.14C1.62968 188.606 0.984765 189.253 0.521585 190.025C-0.715045 192.377 0.471835 195.227 1.75111 197.558C4.00391 201.66 6.57509 205.578 9.44096 209.278C11.7508 212.249 14.4159 215.184 17.9055 216.527C21.3951 217.87 25.0765 217.714 26.9386 215.276" fill="#EBEBEB"/>
<path d="M32.7812 260.725C32.9046 260.236 32.9761 259.736 32.9944 259.233C33.1011 258.138 33.229 256.766 33.3924 255.139C33.5962 253.125 33.9022 251.123 34.3093 249.141C34.8433 246.716 35.573 244.34 36.4911 242.033C37.3916 239.743 38.6094 237.589 40.1086 235.637C41.3343 234.05 42.8945 232.751 44.6785 231.835C45.8917 231.237 47.1917 230.834 48.5305 230.641C49.0345 230.621 49.5348 230.547 50.023 230.42C49.5199 230.365 49.0123 230.365 48.5092 230.42C47.1189 230.525 45.7588 230.879 44.4937 231.465C42.6098 232.354 40.958 233.668 39.668 235.303C38.0989 237.281 36.8341 239.483 35.9155 241.834C34.9984 244.168 34.285 246.577 33.7833 249.034C33.3967 251.042 33.1285 253.071 32.9802 255.11C32.8523 256.852 32.8026 258.259 32.7812 259.233C32.7288 259.729 32.7288 260.229 32.7812 260.725Z" fill="#E0E0E0"/>
<path d="M33.069 257.584C33.1112 257.35 33.1255 257.111 33.1117 256.874C33.1117 256.348 33.1117 255.687 33.1117 254.884C33.1117 253.157 33.1117 250.655 33.197 247.571C33.3533 241.402 33.9077 234.778 34.9098 225.404C35.8834 216.598 37.184 206.357 38.5628 199.697C38.8542 198.183 39.1527 196.819 39.437 195.625C39.7212 194.431 39.9274 193.393 40.1477 192.562C40.368 191.73 40.4888 191.14 40.6167 190.629C40.6863 190.398 40.7269 190.159 40.7376 189.918C40.6305 190.125 40.5493 190.345 40.4959 190.572C40.3396 191.076 40.1477 191.702 39.9131 192.477C39.6786 193.251 39.3943 194.331 39.0958 195.518C38.7973 196.705 38.4562 198.07 38.1364 199.584C36.4291 207.46 35.1456 215.421 34.2914 223.435C33.268 232.816 32.8061 241.359 32.7634 247.542C32.7634 250.634 32.7634 253.142 32.87 254.869C32.9198 255.673 32.9624 256.334 32.9909 256.852C32.9874 257.099 33.0136 257.344 33.069 257.584Z" fill="#E0E0E0"/>
<path d="M33.1161 241.111C33.1703 240.418 33.1703 239.722 33.1161 239.029C33.0379 237.693 32.8531 235.767 32.4765 233.4C32.0116 230.633 31.3899 227.895 30.6144 225.199C29.7181 221.88 28.5705 218.635 27.1817 215.49C24.8038 209.697 21.3913 204.384 17.111 199.812C16.3683 199.027 15.5754 198.291 14.7372 197.609C14.3748 197.296 14.0265 196.991 13.728 196.749L12.8467 196.117C12.2936 195.694 11.7065 195.319 11.0913 194.994C10.9918 195.129 13.5717 196.65 16.8267 200.111C20.9671 204.725 24.2889 210.013 26.6487 215.746C28.0136 218.87 29.1652 222.083 30.0956 225.362C30.8771 228.034 31.5247 230.742 32.0358 233.478C32.4622 235.817 32.7465 237.743 32.8602 239.05C32.8906 239.743 32.9762 240.432 33.1161 241.111Z" fill="#E0E0E0"/>
<path d="M16.0854 267.663L17.7343 290.284H46.7951L48.4439 267.663H16.0854Z" fill="#EBEBEB"/>
<path d="M51.9006 258.75H13.2737V267.663H51.9006V258.75Z" fill="#EBEBEB"/>
<path d="M13.2737 289.417V291.883H15.0931H51.2681V289.417H13.2737Z" fill="#E0E0E0"/>
<path d="M16.8749 295.963L15.0981 291.614H49.8873L47.812 295.963H16.8749Z" fill="#E0E0E0"/>
<path d="M47.9028 275.054C47.8665 275.13 47.8212 275.202 47.7678 275.267C47.654 275.416 47.5048 275.608 47.3342 275.843L45.6427 277.975L45.5646 278.074L45.4935 277.975L41.3359 272.225H41.5704L37.4767 278.017L37.3488 278.202L37.2067 278.032L32.3525 272.254H32.6297L32.3667 272.595L28.0243 278.032L27.8751 278.216L27.7471 278.025L23.6464 272.232H23.888L18.842 277.975L18.7567 278.081L18.6856 277.961L17.1079 275.345C16.9373 275.061 16.8094 274.826 16.7028 274.634C16.6492 274.555 16.6062 274.469 16.5748 274.379C16.6413 274.447 16.6987 274.523 16.7454 274.606L17.1931 275.281L18.8491 277.889H18.6927L23.6677 272.076L23.7885 271.927L23.9022 272.083L28.0385 277.854H27.7685L32.0967 272.403C32.1891 272.289 32.2815 272.175 32.3596 272.069L32.5018 271.891L32.6439 272.062L37.4838 277.854H37.2138L41.3501 272.09L41.4709 271.92L41.5846 272.09C43.2263 274.428 44.6193 276.411 45.657 277.904H45.5077L47.2703 275.772C47.4622 275.551 47.6185 275.374 47.7393 275.224C47.7896 275.164 47.8442 275.107 47.9028 275.054Z" fill="#F5F5F5"/>
<path d="M48.8479 267.514C48.8479 267.614 41.5631 267.699 32.5869 267.699C23.6107 267.699 16.3259 267.614 16.3259 267.514C16.3259 267.415 23.6036 267.336 32.5869 267.336C41.5702 267.336 48.8479 267.415 48.8479 267.514Z" fill="#F5F5F5"/>
<path d="M252.651 11.0557L246.696 11.0879L246.856 40.7239L252.812 40.6917L252.651 11.0557Z" fill="#E0E0E0"/>
<path d="M210.521 11.1343L195.099 11.2178L195.188 27.578L210.61 27.4946L210.521 11.1343Z" fill="#EBEBEB"/>
<path d="M225.873 11.0518L210.451 11.1353L210.539 27.4955L225.961 27.412L225.873 11.0518Z" fill="#F5F5F5"/>
<path d="M195.12 15.7454C205.373 15.8307 215.631 15.7833 225.893 15.6033C225.937 15.6033 225.978 15.5861 226.009 15.5554C226.04 15.5248 226.057 15.4832 226.057 15.4398C226.057 15.3965 226.04 15.3549 226.009 15.3242C225.978 15.2936 225.937 15.2764 225.893 15.2764C215.645 15.2195 205.368 15.2764 195.12 15.4683C195.088 15.4754 195.06 15.493 195.04 15.5182C195.02 15.5434 195.009 15.5746 195.009 15.6068C195.009 15.6391 195.02 15.6703 195.04 15.6955C195.06 15.7207 195.088 15.7383 195.12 15.7454Z" fill="#E0E0E0"/>
<path d="M213.51 27.2224L185.487 27.374L185.56 40.7067L213.582 40.5551L213.51 27.2224Z" fill="#EBEBEB"/>
<path d="M241.397 27.072L213.374 27.2236L213.446 40.5563L241.469 40.4047L241.397 27.072Z" fill="#F5F5F5"/>
<path d="M185.501 31.0975C204.114 31.3036 222.792 31.0975 241.412 30.8203C241.455 30.8203 241.497 30.8031 241.528 30.7725C241.558 30.7418 241.576 30.7002 241.576 30.6569C241.576 30.6135 241.558 30.572 241.528 30.5413C241.497 30.5106 241.455 30.4934 241.412 30.4934C222.799 30.3939 204.114 30.401 185.501 30.8132C185.463 30.8132 185.427 30.8282 185.4 30.8549C185.374 30.8815 185.359 30.9177 185.359 30.9554C185.359 30.9931 185.374 31.0292 185.4 31.0559C185.427 31.0825 185.463 31.0975 185.501 31.0975Z" fill="#E0E0E0"/>
<path d="M283.589 40.7188H175.021V45.4947H283.589V40.7188Z" fill="#E0E0E0"/>
<path d="M197.2 43.0151H192.794V59.3116H197.2V43.0151Z" fill="#E0E0E0"/>
<path d="M262.989 43.0151H258.583V59.3116H262.989V43.0151Z" fill="#E0E0E0"/>
<path d="M258.46 0.000491409L252.504 0.0327148L252.724 40.7912L258.68 40.7589L258.46 0.000491409Z" fill="#EBEBEB"/>
<path d="M267.763 7.59056L258.51 7.64062L258.688 40.6738L267.942 40.6237L267.763 7.59056Z" fill="#F5F5F5"/>
<path d="M267.706 13.9674C264.63 14.1847 261.543 14.1847 258.467 13.9674C261.543 13.7596 264.63 13.7596 267.706 13.9674Z" fill="#E0E0E0"/>
<path d="M267.703 12.619C266.166 12.7746 264.62 12.8268 263.076 12.7754C261.532 12.8265 259.986 12.7743 258.449 12.619C261.525 12.4017 264.613 12.4017 267.689 12.619H267.703Z" fill="#E0E0E0"/>
<path d="M267.706 35.6671C264.63 35.8844 261.543 35.8844 258.467 35.6671C261.543 35.4593 264.63 35.4593 267.706 35.6671Z" fill="#E0E0E0"/>
<path d="M267.706 34.2811C264.63 34.4889 261.543 34.4889 258.467 34.2811C261.543 34.0638 264.63 34.0638 267.706 34.2811Z" fill="#E0E0E0"/>
<path d="M263.225 31.2521C263.14 31.2521 263.069 27.9189 263.069 23.811C263.069 19.7031 263.14 16.3628 263.225 16.3628C263.31 16.3628 263.389 19.696 263.389 23.811C263.389 27.926 263.317 31.2521 263.225 31.2521Z" fill="#E0E0E0"/>
<path d="M277.883 15.7168H267.812V40.6484H277.883V15.7168Z" fill="#EBEBEB"/>
<path d="M255.393 8.6883C256.339 8.6883 257.106 7.92145 257.106 6.9755C257.106 6.02954 256.339 5.2627 255.393 5.2627C254.447 5.2627 253.68 6.02954 253.68 6.9755C253.68 7.92145 254.447 8.6883 255.393 8.6883Z" fill="#E0E0E0"/>
<path d="M255.928 11.687H254.869V35.9363H255.928V11.687Z" fill="#E0E0E0"/>
<path d="M313.944 297.148C313.944 297.254 245.631 297.332 161.391 297.332C77.1509 297.332 8.82349 297.254 8.82349 297.148C8.82349 297.041 77.1224 296.963 161.391 296.963C245.659 296.963 313.944 297.048 313.944 297.148Z" fill="#263238"/>
<path d="M89.7533 36.3198C93.1049 40.4214 94.9197 45.5642 94.8846 50.8609C94.8491 53.8601 94.2948 57.1649 96.0431 59.6026C97.365 61.4504 99.7814 62.3814 100.855 64.3856C102.148 66.7949 101.046 69.8439 101.842 72.4593C102.965 76.1692 107.315 77.7256 109.895 80.6182C110.995 81.8973 111.764 83.4265 112.136 85.0719C112.507 86.7173 112.47 88.4287 112.027 90.0564C111.557 91.6772 110.707 93.1625 109.547 94.3887C108.388 95.6149 106.953 96.5467 105.36 97.1066C103.661 97.7767 101.764 97.746 100.087 97.0213C98.3458 96.1542 97.2442 94.3704 96.3913 92.6291C94.6785 89.2035 79.6329 70.6896 78.78 66.9513" fill="#263238"/>
<path d="M78.8044 31.9562C72.6497 30.9612 66.7224 35.0478 64.1426 40.7192C61.5627 46.3907 61.4774 52.8013 61.2997 59.0555C61.1221 65.3097 60.6672 71.7913 57.4903 77.1501C55.4719 80.5544 52.3448 83.5464 51.8544 87.4624C51.4138 90.9733 53.2332 94.5126 52.6291 98.0022C52.1032 101.044 49.7863 103.688 49.8787 106.765C49.9924 110.475 53.8089 113.268 57.5117 113.368C61.2144 113.467 64.6827 111.527 67.5895 109.224C72.3254 105.464 76.1151 100.647 78.6552 95.1594" fill="#263238"/>
<path d="M68.6785 46.6261C68.4852 45.0779 68.6048 43.5066 69.0304 42.0055C69.4559 40.5045 70.1787 39.1042 71.1558 37.8878C72.1329 36.6714 73.3444 35.6637 74.7184 34.9245C76.0924 34.1853 77.6009 33.7296 79.1543 33.5846C85.3588 32.9876 90.881 37.6143 91.812 43.7832C92.6294 49.1917 93.3258 54.65 93.3045 56.6328C93.2263 62.6099 89.751 64.9339 88.3296 65.6375C87.8183 65.821 87.2896 65.952 86.7518 66.0284V66.071L88.0737 72.9364C88.6778 77.4352 86.169 81.4649 81.6774 82.0975C77.1857 82.73 73.6535 79.2973 72.9641 74.7985L68.6785 46.6261Z" fill="#FFBE9D"/>
<path d="M90.5925 46.3981C90.493 46.5403 89.7042 46.121 88.6949 46.2702C87.6857 46.4195 87.0106 47.0307 86.8826 46.9241C86.7547 46.8175 86.8826 46.6398 87.1954 46.3555C87.584 45.9769 88.0807 45.7285 88.6168 45.6448C89.1427 45.5637 89.6807 45.6534 90.1519 45.9006C90.5073 46.1281 90.6423 46.3413 90.5925 46.3981Z" fill="#263238"/>
<path d="M81.5946 48.5864C81.4951 48.7285 80.7062 48.3021 79.6899 48.4513C78.6736 48.6006 78.0126 49.2189 77.8847 49.1123C77.7568 49.0057 77.8847 48.8209 78.1974 48.5437C78.586 48.1651 79.0828 47.9168 79.6188 47.833C80.1455 47.758 80.6823 47.85 81.154 48.096C81.5022 48.3163 81.6444 48.5224 81.5946 48.5864Z" fill="#263238"/>
<path d="M85.2852 54.009C85.7935 53.7645 86.3309 53.5854 86.8843 53.476C87.1401 53.412 87.3747 53.3267 87.396 53.1419C87.373 52.8823 87.2741 52.6351 87.1117 52.4312L86.0528 50.5408C84.5816 47.8969 83.48 45.708 83.5866 45.644C83.6932 45.58 85.008 47.6908 86.4294 50.3347C86.7919 50.9885 87.1401 51.6139 87.4528 52.2038C87.6594 52.4928 87.7598 52.8443 87.7371 53.1988C87.7137 53.2958 87.6681 53.386 87.604 53.4625C87.5399 53.5389 87.459 53.5995 87.3676 53.6394C87.229 53.7001 87.0833 53.7431 86.934 53.7674C86.3973 53.9195 85.843 54.0007 85.2852 54.009Z" fill="#263238"/>
<path d="M86.6932 66.0349C86.6932 66.0349 82.834 66.9232 77.5179 64.6987C77.5179 64.6987 79.8135 69.6381 87.0556 67.8827L86.6932 66.0349Z" fill="#EB996E"/>
<path d="M81.0704 45.9351C81.0136 46.2264 79.9831 46.2407 78.8175 46.5605C77.6519 46.8803 76.7351 47.3351 76.5432 47.1148C76.4579 47.0082 76.5859 46.7239 76.9341 46.4041C77.403 46.0031 77.9571 45.714 78.5543 45.5588C79.1515 45.4037 79.7762 45.3865 80.381 45.5086C80.8501 45.6152 81.0704 45.8 81.0704 45.9351Z" fill="#263238"/>
<path d="M89.7556 44.1589C89.6135 44.4147 88.8815 44.2797 88.0428 44.3863C87.2042 44.4929 86.5148 44.7701 86.3158 44.5498C86.2305 44.4432 86.3158 44.2015 86.5859 43.9386C86.9586 43.6081 87.4263 43.4042 87.922 43.3558C88.4115 43.2968 88.9074 43.3885 89.3434 43.6187C89.6846 43.8106 89.8196 44.031 89.7556 44.1589Z" fill="#263238"/>
<path d="M79.3931 49.8938C79.4087 50.0038 79.446 50.1096 79.5029 50.205C79.5597 50.3005 79.635 50.3837 79.7242 50.4498C79.8135 50.5159 79.915 50.5636 80.0229 50.5902C80.1307 50.6168 80.2428 50.6216 80.3526 50.6045C80.4593 50.5922 80.5625 50.5589 80.6562 50.5063C80.7499 50.4538 80.8322 50.3831 80.8983 50.2984C80.9645 50.2138 81.0131 50.1168 81.0414 50.0132C81.0697 49.9096 81.0772 49.8013 81.0633 49.6948C81.0299 49.4735 80.9102 49.2745 80.7304 49.1412C80.5505 49.008 80.3252 48.9515 80.1038 48.9841C79.9967 48.9955 79.893 49.0283 79.7988 49.0805C79.7046 49.1328 79.6219 49.2034 79.5556 49.2883C79.4893 49.3732 79.4408 49.4705 79.4128 49.5746C79.3849 49.6786 79.3782 49.7872 79.3931 49.8938Z" fill="#263238"/>
<path d="M88.3609 47.9534C88.3942 48.1747 88.5139 48.3738 88.6938 48.507C88.8736 48.6402 89.0989 48.6967 89.3203 48.6641C89.427 48.6518 89.5303 48.6184 89.624 48.5659C89.7176 48.5133 89.8 48.4427 89.8661 48.358C89.9322 48.2734 89.9809 48.1764 90.0092 48.0728C90.0375 47.9691 90.0449 47.8609 90.031 47.7544C89.9977 47.5331 89.878 47.334 89.6981 47.2008C89.5183 47.0676 89.293 47.0111 89.0716 47.0437C88.9645 47.055 88.8607 47.0878 88.7666 47.1401C88.6724 47.1923 88.5897 47.263 88.5234 47.3479C88.4571 47.4328 88.4085 47.5301 88.3806 47.6341C88.3527 47.7381 88.346 47.8467 88.3609 47.9534Z" fill="#263238"/>
<path d="M86.875 55.971C86.596 55.8842 86.2954 55.8978 86.0254 56.0095C85.7553 56.1211 85.5329 56.3238 85.3967 56.5823C85.2666 56.8196 85.2138 57.0917 85.2456 57.3605C85.2775 57.6293 85.3924 57.8815 85.5744 58.0818C85.7681 58.2721 86.0231 58.3873 86.2939 58.4068C86.5647 58.4264 86.8337 58.349 87.0526 58.1885C87.3268 57.9388 87.4926 57.592 87.5146 57.2219C87.5629 56.8826 87.4817 56.5375 87.2872 56.2553C87.1873 56.1174 87.0448 56.0161 86.8816 55.9673C86.7185 55.9185 86.5438 55.9248 86.3846 55.9853" fill="#EB996E"/>
<path d="M91.021 38.9146C90.4631 36.6628 89.0711 34.7069 87.1263 33.4422C85.5344 32.2923 83.6436 31.6283 81.6823 31.5304C79.7088 31.4454 77.7821 32.1456 76.3236 33.4777C75.2886 34.5035 74.6967 35.894 74.6747 37.351L74.7884 36.3561C74.4898 37.1657 74.4898 38.0553 74.7884 38.8649C74.9519 39.2984 75.1509 39.739 75.3215 40.1726C75.8303 41.4254 76.7741 42.4525 77.9795 43.0651C78.5254 43.358 79.1368 43.5071 79.7563 43.4987C80.0664 43.4924 80.3714 43.4186 80.65 43.2824C80.9287 43.1461 81.1742 42.9507 81.3696 42.7098C81.8109 41.9394 81.9478 41.0317 81.7534 40.1654C82.2197 41.0215 82.8852 41.7528 83.6936 42.2976C84.1063 42.5613 84.5973 42.675 85.084 42.6193C85.5707 42.5636 86.0233 42.3421 86.3658 41.992C86.9486 41.2813 86.7212 40.1583 86.3658 39.2771C86.9157 40.1083 87.6859 40.7702 88.5904 41.1889C88.8284 41.3254 89.0921 41.4111 89.3649 41.4404C89.6377 41.4698 89.9136 41.4422 90.1752 41.3594C90.3844 41.2557 90.5672 41.1059 90.7101 40.9212C90.8529 40.7366 90.9519 40.5219 90.9997 40.2934C91.1052 39.8406 91.1124 39.3704 91.021 38.9146Z" fill="#263238"/>
<path d="M85.8825 40.8045C85.8186 40.8045 85.8328 39.9588 85.5556 38.6724C85.2359 36.963 84.3765 35.4012 83.1037 34.2162C82.4041 33.5801 81.5601 33.1239 80.6446 32.8872C79.8948 32.7032 79.1141 32.6838 78.3561 32.8304C77.6575 32.9937 76.9902 33.2697 76.3804 33.6477C76.3804 33.6477 76.5012 33.47 76.8139 33.2426C77.2627 32.9286 77.7666 32.702 78.2993 32.5745C79.0964 32.3879 79.9257 32.3879 80.7228 32.5745C81.7049 32.8197 82.6093 33.3086 83.3524 33.9959C84.6851 35.2297 85.5554 36.8825 85.8186 38.6795C85.9031 39.2107 85.9459 39.7478 85.9465 40.2857C85.9553 40.461 85.9336 40.6366 85.8825 40.8045Z" fill="#455A64"/>
<path d="M151.343 123.666L124.016 112.828C124.016 112.828 110.023 94.4701 110.314 94.1147L100.485 104.875L114.77 124.199L147.882 131.96L153.568 130.382C152.317 124.348 151.343 123.666 151.343 123.666Z" fill="#FFBE9D"/>
<path d="M91.7849 71.2945L88.0608 69.873L71.9846 71.9128V74.7556L71.5226 74.8125C68.0572 75.5493 64.7334 76.8404 61.6793 78.6361C58.8185 80.3824 56.5455 82.9445 55.1523 85.993C53.7592 89.0414 53.3097 92.4368 53.8615 95.7428C54.5154 99.808 55.7804 104.747 58.2253 107.604C62.8946 113.07 67.1589 106.318 67.1589 106.318C67.1589 106.318 70.087 112.999 69.9164 116.161C69.7743 118.812 68.6087 124.327 68.232 126.047C68.2166 126.116 68.2153 126.187 68.2282 126.256C68.2411 126.326 68.268 126.392 68.3073 126.45C68.3465 126.509 68.3972 126.559 68.4564 126.597C68.5155 126.635 68.5819 126.661 68.6513 126.673L102.566 132.948L102.73 124.654L101.649 90.5404L100.121 77.2928C100.121 77.2928 100.171 70.9675 91.7849 71.2945Z" fill="#8FA3FF"/>
<path d="M99.6006 75.0898L112.535 93.7743L102.124 106.453L99.6006 75.0898Z" fill="#8FA3FF"/>
<path d="M102.392 114.406C102.346 114.005 102.329 113.601 102.343 113.198C102.343 112.359 102.343 111.257 102.3 109.914C102.237 106.309 101.979 102.71 101.525 99.1328C100.992 94.9396 100.175 91.1942 99.5568 88.4722L98.8034 85.274C98.6942 84.8872 98.6134 84.4929 98.5618 84.0942C98.7234 84.4635 98.8518 84.8464 98.9455 85.2385C99.1659 85.9492 99.4644 87.065 99.8055 88.4153C100.723 91.9219 101.421 95.4824 101.895 99.0759C102.352 102.668 102.575 106.286 102.563 109.907C102.563 111.329 102.528 112.423 102.485 113.198C102.489 113.602 102.458 114.007 102.392 114.406Z" fill="#263238"/>
<path d="M70.5554 85.9985C70.5554 86.0554 69.5746 86.0483 68.0039 86.1264C65.9545 86.2376 63.9163 86.5013 61.9061 86.9153C59.8964 87.3371 57.9201 87.9048 55.993 88.6139C54.5147 89.1612 53.6263 89.5663 53.5979 89.5094C53.7801 89.3667 53.9809 89.2495 54.1949 89.1612C54.5858 88.948 55.1686 88.6779 55.9006 88.3723C59.7356 86.7886 63.8341 85.94 67.9826 85.8706C68.7786 85.8706 69.404 85.8706 69.866 85.9132C70.0988 85.9057 70.3314 85.9345 70.5554 85.9985Z" fill="#FAFAFA"/>
<path d="M100.514 94.5487C99.9944 94.7376 99.4519 94.857 98.9009 94.904C96.2728 95.2877 93.6103 95.3783 90.9623 95.1741C90.4092 95.1646 89.8598 95.0834 89.3276 94.9325C89.8762 94.8838 90.4279 94.8838 90.9765 94.9325C91.9857 94.9325 93.3858 94.9325 94.928 94.9325C96.4702 94.9325 97.8632 94.7761 98.8724 94.6837C99.4144 94.589 99.964 94.5438 100.514 94.5487Z" fill="#FAFAFA"/>
<path d="M106.447 86.0967C105.663 87.0019 104.725 87.76 103.675 88.3355C102.684 89.0053 101.578 89.4872 100.413 89.7569C100.37 89.6574 101.834 89.0462 103.483 87.9943C105.132 86.9425 106.376 86.0115 106.447 86.0967Z" fill="#FAFAFA"/>
<path d="M101.219 77.4334C98.9766 79.4504 96.1196 80.6523 93.1097 80.8448C93.1097 80.731 95.0642 80.4325 97.31 79.4731C99.5559 78.5136 101.148 77.341 101.219 77.4334Z" fill="#FAFAFA"/>
<path d="M101.927 109.019C101.718 109.16 101.494 109.276 101.259 109.367C100.811 109.58 100.164 109.843 99.34 110.149C97.1981 110.919 94.9871 111.48 92.7375 111.826C90.4881 112.174 88.2101 112.3 85.9361 112.203C85.0619 112.167 84.3583 112.103 83.875 112.04C83.622 112.023 83.3717 111.977 83.1288 111.904C83.1288 111.841 84.2091 111.904 85.9716 111.947C90.4903 111.989 94.9859 111.298 99.2832 109.9C100.904 109.367 101.906 108.962 101.927 109.019Z" fill="#FAFAFA"/>
<path d="M102.187 118.649C102.187 118.649 102.087 118.72 101.881 118.827L100.972 119.225C100.19 119.594 99.0313 120.077 97.5815 120.646C96.1316 121.215 94.3762 121.762 92.4004 122.302C88.1051 123.459 83.6962 124.143 79.2523 124.342C77.2055 124.42 75.3648 124.413 73.8154 124.342C72.2661 124.271 71.0224 124.157 70.1624 124.036L69.1745 123.901C69.0582 123.893 68.9434 123.869 68.8334 123.83C68.9487 123.812 69.0663 123.812 69.1816 123.83L70.1766 123.894C71.0366 123.965 72.3087 124.036 73.8225 124.079C75.3363 124.121 77.2055 124.079 79.2381 124.008C81.2707 123.937 83.5024 123.681 85.8264 123.297C88.1504 122.913 90.3394 122.451 92.3151 121.954C94.2909 121.456 96.0392 120.895 97.4891 120.376C98.9389 119.857 100.119 119.424 100.915 119.097L101.839 118.734C101.951 118.694 102.068 118.665 102.187 118.649Z" fill="#FAFAFA"/>
<path d="M39.8491 269.738L36.0041 287.101L28.9895 299.958C28.8702 300.177 28.7972 300.419 28.775 300.668C28.7529 300.916 28.782 301.167 28.8606 301.404C28.9392 301.641 29.0656 301.86 29.232 302.046C29.3984 302.233 29.6013 302.383 29.8281 302.488C30.0914 302.608 30.3798 302.664 30.6691 302.651C30.9585 302.637 31.2404 302.554 31.4912 302.409C34.7462 300.533 46.6932 293.547 46.8993 292.261C47.148 290.775 52.1727 274.216 52.1727 274.216L39.8491 269.738Z" fill="#8FA3FF"/>
<g opacity="0.6">
<path d="M29.827 302.487L47.1896 291.115L47.0048 291.826C46.8529 292.46 46.48 293.02 45.953 293.404C44.5316 294.42 40.5729 297.149 31.5469 302.423C31.2878 302.574 30.9951 302.66 30.695 302.671C30.3949 302.682 30.0967 302.619 29.827 302.487Z" fill="white"/>
</g>
<g opacity="0.6">
<path d="M45.0123 284.654C44.7615 284.759 44.5583 284.952 44.4415 285.198C44.3248 285.443 44.3028 285.723 44.3798 285.983C44.4747 286.237 44.6631 286.445 44.9063 286.564C45.1495 286.683 45.429 286.704 45.6875 286.623C45.956 286.512 46.1733 286.305 46.2969 286.042C46.4204 285.779 46.4414 285.479 46.3555 285.202C46.2297 284.95 46.0123 284.756 45.748 284.66C45.4837 284.563 45.1925 284.571 44.9341 284.683" fill="white"/>
</g>
<path d="M35.6257 295.907C35.339 295.267 34.9366 294.687 34.4388 294.194C33.8655 293.794 33.2216 293.507 32.5413 293.348C32.5413 293.298 32.79 293.22 33.2093 293.263C33.755 293.333 34.2685 293.56 34.6876 293.917C35.1099 294.259 35.4215 294.719 35.5831 295.239C35.7039 295.644 35.6684 295.907 35.6257 295.907Z" fill="#263238"/>
<path d="M33.8305 297.917C33.731 297.974 33.3117 297.278 32.4802 296.801C31.9498 296.555 31.4037 296.344 30.8456 296.169C31.1524 296.068 31.4787 296.042 31.7976 296.093C32.1165 296.144 32.4187 296.27 32.6792 296.46C33.6244 297.008 33.93 297.896 33.8305 297.917Z" fill="#263238"/>
<path d="M38.6449 293.503C38.0405 292.832 37.3847 292.21 36.6834 291.641C35.9107 291.17 35.1028 290.759 34.267 290.411C35.2282 290.392 36.1651 290.714 36.9108 291.321C37.7329 291.816 38.3488 292.591 38.6449 293.503Z" fill="#263238"/>
<path d="M40.2573 288.322C40.1862 288.415 39.3263 287.782 38.1252 287.434C36.9241 287.086 35.8367 287.143 35.8296 287.022C36.6206 286.817 37.4523 286.83 38.2367 287.059C39.0211 287.287 39.7291 287.724 40.2857 288.322H40.2573Z" fill="#263238"/>
<path d="M41.515 283.255C40.8217 282.826 40.0733 282.494 39.2905 282.267C38.484 282.157 37.6664 282.157 36.8599 282.267C36.8599 282.224 37.0802 282.054 37.535 281.919C38.1329 281.756 38.7605 281.736 39.3677 281.859C39.9748 281.983 40.5447 282.246 41.0317 282.629C41.3942 282.971 41.5434 283.226 41.515 283.255Z" fill="#263238"/>
<path d="M39.5562 281.308C39.5567 281.082 39.6051 280.859 39.6983 280.654C39.8997 280.067 40.2189 279.528 40.6364 279.069C40.9096 278.705 41.2939 278.441 41.7309 278.316C41.8797 278.291 42.0325 278.312 42.1693 278.375C42.3061 278.439 42.4208 278.542 42.4985 278.671C42.6291 278.936 42.657 279.24 42.5767 279.524C42.3945 280.094 42.0197 280.583 41.5167 280.907C41.0136 281.231 40.4135 281.37 39.8191 281.301C39.233 281.217 38.6847 280.962 38.2433 280.567C37.8019 280.173 37.4872 279.656 37.3388 279.083C37.3046 278.937 37.3016 278.786 37.3297 278.639C37.3579 278.492 37.4167 278.353 37.5022 278.23C37.6004 278.116 37.7326 278.035 37.8795 278.001C38.0265 277.966 38.1806 277.979 38.3195 278.038C38.7213 278.239 39.0641 278.54 39.3145 278.913C39.6912 279.406 39.9775 279.961 40.1603 280.554C40.2469 280.766 40.288 280.994 40.2811 281.222C39.9946 280.456 39.5945 279.737 39.0942 279.09C38.8613 278.787 38.5591 278.543 38.2129 278.38C38.1368 278.347 38.052 278.339 37.9713 278.358C37.8906 278.377 37.8183 278.422 37.7652 278.486C37.7155 278.57 37.6836 278.663 37.6714 278.759C37.6591 278.856 37.6669 278.954 37.6941 279.048C37.8424 279.53 38.1238 279.961 38.506 280.29C38.8883 280.619 39.3557 280.834 39.8547 280.91C40.3574 280.968 40.865 280.854 41.2948 280.587C41.7246 280.32 42.0512 279.915 42.2213 279.438C42.2902 279.245 42.2902 279.035 42.2213 278.841C42.181 278.769 42.1189 278.71 42.0437 278.675C41.9685 278.639 41.8839 278.628 41.802 278.642C41.4316 278.744 41.1016 278.958 40.8568 279.254C40.3116 279.861 39.872 280.555 39.5562 281.308Z" fill="#263238"/>
<g opacity="0.3">
<path d="M39.3868 271.621L38.5553 275.601L51.1277 277.691L52.1796 274.215L39.8346 269.738L39.3868 271.621Z" fill="black"/>
</g>
<path d="M95.9963 276.163L94.9587 290.036C94.9587 290.036 108.718 295.722 108.775 298.337L81.7679 297.292L82.4787 275.602L95.9963 276.163Z" fill="#8FA3FF"/>
<g opacity="0.6">
<path d="M86.6745 288.542C86.4124 288.613 86.1852 288.777 86.0358 289.003C85.8865 289.23 85.8255 289.503 85.8643 289.772C85.9241 290.036 86.0823 290.268 86.3068 290.42C86.5312 290.571 86.805 290.632 87.0725 290.589C87.3513 290.515 87.5927 290.341 87.7502 290.099C87.9078 289.858 87.9701 289.566 87.9254 289.282C87.8356 289.012 87.6449 288.787 87.3932 288.655C87.1415 288.522 86.8483 288.492 86.575 288.571" fill="white"/>
</g>
<g opacity="0.6">
<path d="M81.7838 297.292L81.9402 295.103L107.774 296.901C107.774 296.901 108.961 297.47 108.791 298.323L81.7838 297.292Z" fill="white"/>
</g>
<path d="M95.4144 289.915C95.4144 290.05 94.7463 290.085 94.0853 290.483C93.4244 290.881 93.0548 291.421 92.934 291.365C92.8132 291.308 93.0406 290.554 93.8508 290.085C94.661 289.616 95.4499 289.794 95.4144 289.915Z" fill="#263238"/>
<path d="M98.2013 291.215C98.2013 291.35 97.6469 291.55 97.1778 292.09C96.7088 292.63 96.5595 293.213 96.4245 293.205C96.2895 293.198 96.2397 292.445 96.8367 291.784C97.4337 291.123 98.2013 291.073 98.2013 291.215Z" fill="#263238"/>
<path d="M99.6801 294.647C99.5592 294.647 99.4029 294 99.7654 293.296C100.128 292.593 100.76 292.323 100.81 292.436C100.86 292.55 100.469 292.92 100.178 293.502C99.8862 294.085 99.808 294.639 99.6801 294.647Z" fill="#263238"/>
<path d="M95.291 286.731C95.2341 286.845 94.6371 286.639 93.8696 286.66C93.102 286.682 92.5334 286.895 92.4482 286.781C92.3629 286.667 92.9599 286.22 93.8696 286.205C94.7793 286.191 95.3763 286.632 95.291 286.731Z" fill="#263238"/>
<g opacity="0.3">
<path d="M95.8043 278.912L95.6195 281.385L82.3649 280.746L82.4573 277.889L95.8043 278.912Z" fill="black"/>
</g>
<path d="M95.4651 283.923C95.0186 284.031 94.5507 284.011 94.1148 283.866C93.6221 283.763 93.1444 283.599 92.6934 283.375C92.4303 283.246 92.1762 283.099 91.9329 282.935C91.7846 282.844 91.6504 282.731 91.5349 282.601C91.4566 282.499 91.4141 282.374 91.4141 282.245C91.4141 282.117 91.4566 281.992 91.5349 281.89C91.604 281.8 91.6936 281.728 91.7962 281.68C91.8989 281.632 92.0115 281.609 92.1248 281.613C92.296 281.62 92.4655 281.648 92.6294 281.698C92.9138 281.781 93.1898 281.891 93.4538 282.025C93.9026 282.244 94.3131 282.535 94.6692 282.885C95.2733 283.489 95.4651 283.994 95.4225 284.015C95.3799 284.036 95.0743 283.631 94.4559 283.127C94.0929 282.843 93.6968 282.604 93.2762 282.416C93.0254 282.312 92.7692 282.222 92.5086 282.146C92.2243 282.061 91.9827 282.053 91.9045 282.146C91.8263 282.238 91.9045 282.217 91.9045 282.302C91.9897 282.396 92.0878 282.477 92.1959 282.544C92.4239 282.702 92.6612 282.847 92.9066 282.977C93.3164 283.203 93.7473 283.389 94.193 283.532C94.6258 283.632 95.0509 283.762 95.4651 283.923Z" fill="#263238"/>
<path d="M95.2858 284.109C95.0496 283.711 94.9429 283.249 94.9802 282.787C94.983 282.287 95.0645 281.791 95.2218 281.316C95.3238 281.038 95.4499 280.769 95.5985 280.513C95.6784 280.337 95.802 280.185 95.9575 280.07C96.113 279.956 96.2953 279.883 96.4869 279.859C96.6082 279.867 96.7248 279.909 96.823 279.981C96.9212 280.053 96.9969 280.151 97.0412 280.264C97.103 280.423 97.1413 280.591 97.1549 280.761C97.2016 281.063 97.2016 281.37 97.1549 281.671C97.0599 282.173 96.8427 282.645 96.5224 283.043C95.9681 283.754 95.4137 283.86 95.3995 283.818C95.3853 283.775 95.8259 283.512 96.2594 282.851C96.5082 282.474 96.6708 282.047 96.7356 281.6C96.7716 281.341 96.7716 281.078 96.7356 280.818C96.7001 280.534 96.6006 280.292 96.494 280.321C96.3874 280.349 96.1244 280.52 96.0036 280.747C95.8649 280.975 95.7437 281.212 95.6411 281.458C95.4766 281.887 95.3714 282.337 95.3284 282.794C95.236 283.59 95.3569 284.109 95.2858 284.109Z" fill="#263238"/>
<path d="M68.0843 126.544C68.0843 126.544 63.8201 126.735 60.9773 141.319C58.1344 155.903 36.465 274.072 36.465 274.072L52.1787 274.214L81.7868 161.866L79.8181 277.711L95.7806 278.933C95.7806 278.933 107.756 150.8 107.863 143.345C108.005 134.049 102.667 124.646 102.667 124.646L68.0843 126.544Z" fill="#263238"/>
<path d="M89.677 125.301C89.7765 125.301 88.1419 133.652 86.0311 143.907C83.9203 154.163 82.1293 162.464 82.0298 162.442C81.9303 162.421 83.5579 154.092 85.6687 143.836C87.7795 133.581 89.5989 125.28 89.677 125.301Z" fill="#455A64"/>
<path d="M92.1234 127.382C92.1234 127.339 92.5498 127.211 93.0402 127.645C93.1795 127.771 93.2897 127.926 93.3633 128.099C93.437 128.272 93.4722 128.459 93.4666 128.647C93.4488 128.885 93.3639 129.112 93.2217 129.304C93.0795 129.495 92.886 129.642 92.6635 129.727C92.4465 129.826 92.2062 129.861 91.97 129.83C91.7338 129.799 91.5111 129.701 91.3274 129.55C91.1899 129.421 91.0815 129.264 91.0092 129.09C90.9369 128.916 90.9024 128.729 90.9081 128.54C90.9081 127.887 91.3487 127.659 91.3558 127.702C91.236 127.963 91.173 128.246 91.171 128.533C91.1806 128.678 91.2188 128.819 91.2835 128.948C91.3481 129.077 91.438 129.192 91.5477 129.287C91.6879 129.383 91.8502 129.443 92.0196 129.461C92.189 129.478 92.3601 129.453 92.5172 129.387C92.6743 129.321 92.8123 129.217 92.9186 129.084C93.0249 128.951 93.096 128.793 93.1255 128.626C93.1359 128.482 93.1174 128.337 93.071 128.2C93.0247 128.064 92.9513 127.938 92.8554 127.83C92.5072 127.425 92.1163 127.439 92.1234 127.382Z" fill="#455A64"/>
<path d="M91.4478 133.153C91.4478 133.111 91.8885 133.153 92.1586 133.743C92.2272 133.912 92.2583 134.093 92.2498 134.275C92.2412 134.456 92.1931 134.634 92.1088 134.795C91.9866 134.987 91.8145 135.141 91.611 135.242C91.4075 135.344 91.1803 135.387 90.9537 135.369C90.7272 135.351 90.51 135.271 90.3253 135.139C90.1407 135.006 89.9955 134.826 89.9056 134.617C89.8488 134.446 89.8302 134.264 89.8511 134.085C89.8719 133.906 89.9318 133.733 90.0264 133.58C90.3605 133.047 90.8153 133.061 90.8011 133.104C90.7869 133.146 90.46 133.246 90.2539 133.701C90.1496 133.956 90.1496 134.241 90.2539 134.497C90.3281 134.638 90.4367 134.758 90.5697 134.845C90.7027 134.933 90.8558 134.986 91.0146 134.999C91.1735 135.011 91.333 134.984 91.4783 134.918C91.6236 134.853 91.7501 134.752 91.8458 134.624C91.9797 134.382 92.0129 134.096 91.9382 133.829C91.7321 133.345 91.4123 133.203 91.4478 133.153Z" fill="#455A64"/>
<path d="M76.3845 127.525C76.3553 127.769 76.2931 128.008 76.1997 128.235C75.9777 128.886 75.6995 129.516 75.3682 130.119C74.2838 132.129 72.7176 133.839 70.81 135.096C68.9023 136.352 66.7128 137.116 64.4375 137.318C63.7541 137.378 63.0669 137.378 62.3836 137.318C62.1428 137.311 61.904 137.272 61.6729 137.205C61.6729 137.134 62.746 137.254 64.4446 137.041C66.6584 136.772 68.7797 135.994 70.6418 134.767C72.5039 133.54 74.0561 131.898 75.1763 129.97C76.0078 128.534 76.3205 127.503 76.3845 127.525Z" fill="#455A64"/>
<path d="M106.963 137.894C106.963 137.894 106.778 137.808 106.487 137.609C106.08 137.316 105.699 136.988 105.35 136.629C104.181 135.445 103.269 134.034 102.671 132.482C102.073 130.93 101.802 129.271 101.874 127.61C101.891 127.11 101.955 126.612 102.066 126.124C102.145 125.776 102.194 125.591 102.223 125.598C102.251 125.605 102.137 126.373 102.137 127.617C102.139 130.881 103.352 134.03 105.542 136.451C106.373 137.368 106.999 137.837 106.963 137.894Z" fill="#455A64"/>
<path d="M162.092 138.307C162.327 137.738 162.263 137.965 158.496 135.464C158.496 135.464 163.897 139.017 163.336 137.326C162.85 136.685 162.256 136.134 161.581 135.698C163.002 136.537 163.826 136.629 164.075 136.288C164.502 135.698 161.41 133.445 159.939 132.429C161.284 133.391 162.694 134.258 164.16 135.023C165.035 135.293 164.615 134.27 164.025 133.524C163.436 132.777 158.859 128.371 157.629 127.056C157.512 126.956 157.418 126.832 157.354 126.692C157.289 126.552 157.256 126.4 157.256 126.246C157.256 126.092 157.289 125.94 157.354 125.8C157.418 125.66 157.512 125.536 157.629 125.436C159.832 124.014 160.799 121.747 160.77 121.001C160.746 120.833 160.669 120.677 160.55 120.555C160.432 120.434 160.277 120.353 160.11 120.325C159.943 120.296 159.771 120.322 159.619 120.397C159.466 120.473 159.342 120.594 159.264 120.745C158.707 121.436 158.059 122.048 157.338 122.564C156.778 123.001 156.148 123.34 155.476 123.567C154.694 123.822 150.849 123.609 150.024 123.19L147.402 132.081C147.402 132.081 156.918 136.53 158.724 137.397C160.941 138.449 161.929 138.74 162.092 138.307Z" fill="#FFBE9D"/>
<path d="M156.781 134.15C156.703 134.256 157.94 135.159 159.539 136.175C161.138 137.192 162.481 137.924 162.545 137.817C162.609 137.71 161.372 136.801 159.78 135.791C158.188 134.782 156.852 134.015 156.781 134.15Z" fill="#EB996E"/>
<path d="M157.682 132.407C157.611 132.513 158.876 133.551 160.525 134.731C162.174 135.91 163.538 136.785 163.609 136.685C163.68 136.586 162.422 135.541 160.767 134.361C159.111 133.181 157.76 132.307 157.682 132.407Z" fill="#EB996E"/>
<path d="M158.622 130.644C158.551 130.743 159.731 131.752 161.259 132.89C162.787 134.027 164.102 134.865 164.159 134.766C164.216 134.666 163.057 133.657 161.529 132.52C160.001 131.383 158.701 130.544 158.622 130.644Z" fill="#EB996E"/>
<path d="M61.836 98.4431L68.8151 98.8269C69.3095 100.775 69.9705 102.677 70.7909 104.513C76.4126 94.7616 80.7408 81.6917 81.8495 76.4396C81.6931 75.9232 81.5012 75.3404 81.2738 74.6913C81.1035 73.71 81.1325 72.7045 81.3591 71.7347C81.551 70.5692 81.8779 68.9914 81.9703 68.2665C82.2759 66.0491 82.6313 65.6937 83.3917 65.9496C84.4436 66.2907 82.9582 72.1825 83.8182 72.3104C84.2872 72.3744 84.8487 70.356 85.0192 68.7C85.1898 67.0441 85.929 61.9554 86.4762 61.5929C87.2793 61.0954 87.9758 61.8843 87.7768 63.5332C87.5778 65.182 87.3148 70.1783 88.189 70.2422C89.0632 70.3062 89.7739 61.863 89.7739 61.863C89.7739 61.863 89.6388 60.0294 90.648 60.072C92.4746 60.1502 91.0532 69.0554 90.8968 69.9011C90.7831 70.4839 91.7354 70.6118 91.8207 69.958C91.906 69.3041 92.3466 61.5077 94.2016 61.5716C95.623 61.6214 93.1 68.9061 93.9031 70.5976C94.7062 72.2891 95.2605 64.8622 96.6251 64.9617C97.1297 65.0043 97.5064 65.1038 96.5753 69.3041C95.6667 72.6441 94.5777 75.9324 93.3132 79.1545C91.1811 90.8101 81.6647 128.094 66.7967 121.271C58.4814 117.455 54.5939 98.5284 54.5939 98.5284L61.836 98.4431Z" fill="#FFBE9D"/>
<path d="M93.3262 79.2176C93.3384 79.1295 93.3623 79.0435 93.3973 78.9618C93.4612 78.777 93.5394 78.5353 93.646 78.251C93.8805 77.5759 94.2004 76.6377 94.6197 75.4082C95.039 74.1787 95.5436 72.6862 96.0411 70.9236C96.2969 70.0495 96.5102 69.0971 96.7021 68.0808C96.8016 67.5691 96.8939 67.0432 96.9579 66.5031C96.9756 66.2357 96.9756 65.9674 96.9579 65.7C96.9579 65.4228 96.8939 65.1954 96.6736 65.1882C96.4533 65.1811 96.2969 65.3162 96.1406 65.5507C95.999 65.8017 95.8824 66.0659 95.7924 66.3396C95.5934 66.901 95.437 67.498 95.2806 68.1021C95.1243 68.7063 94.9821 69.3388 94.7974 69.9784C94.7168 70.3288 94.5722 70.6613 94.3709 70.9592C94.3203 71.0175 94.2535 71.0596 94.179 71.08C94.1321 71.0903 94.0835 71.0899 94.0367 71.0788C93.99 71.0678 93.9463 71.0463 93.909 71.016C93.8273 70.9411 93.7599 70.852 93.71 70.7531C93.6349 70.5785 93.5847 70.3943 93.5607 70.2058C93.5283 68.7723 93.6715 67.3403 93.9872 65.9416C94.108 65.2309 94.2359 64.5202 94.3283 63.8095C94.3709 63.447 94.4136 63.0988 94.4207 62.715C94.4278 62.3312 94.3709 61.9261 94.2217 61.8621C94.0724 61.7982 93.71 61.9972 93.511 62.2957C93.3145 62.611 93.1593 62.9501 93.049 63.3049C92.8067 64.0473 92.6237 64.8078 92.5018 65.5791C92.3667 66.3609 92.2601 67.1569 92.1677 67.9671C92.1322 68.3722 92.0896 68.7773 92.054 69.1895L91.9972 69.8078C92.0048 69.9399 91.9832 70.072 91.9341 70.1948C91.885 70.3176 91.8095 70.4282 91.7129 70.5185C91.5912 70.6075 91.4443 70.6554 91.2936 70.6554C91.1428 70.6554 90.996 70.6075 90.8743 70.5185C90.8053 70.473 90.7469 70.4133 90.7028 70.3435C90.6587 70.2737 90.6299 70.1952 90.6184 70.1134C90.6076 70.038 90.6076 69.9614 90.6184 69.886V69.7368L90.8103 68.493C90.9311 67.6544 91.0306 66.8158 91.1088 65.9629C91.187 65.1101 91.2509 64.2501 91.2651 63.3902C91.3068 62.5387 91.2205 61.6859 91.0093 60.86C90.9603 60.6505 90.8332 60.4675 90.6539 60.3483C90.5682 60.3208 90.476 60.3211 90.3905 60.3492C90.3049 60.3773 90.2305 60.4317 90.1778 60.5047C89.9476 60.9254 89.8533 61.407 89.9077 61.8835C89.7513 63.5536 89.5737 65.1954 89.332 66.8087C89.2112 67.6118 89.0762 68.4149 88.8772 69.2037C88.8203 69.3956 88.7635 69.5946 88.6924 69.7936C88.6248 70.0348 88.4831 70.2486 88.2873 70.4048C88.2007 70.4474 88.1022 70.4593 88.008 70.4386C87.9138 70.418 87.8293 70.366 87.7685 70.2911C87.6817 70.2 87.6162 70.0908 87.5766 69.9713C87.4999 69.7742 87.4451 69.5692 87.4131 69.3601C87.2465 67.8135 87.2323 66.2543 87.3705 64.705C87.4755 63.9827 87.5159 63.2525 87.4913 62.5231C87.4683 62.2117 87.3257 61.9214 87.0933 61.7129C87.0387 61.679 86.9778 61.6564 86.9143 61.6467C86.8508 61.6369 86.786 61.6401 86.7237 61.656C86.6573 61.6784 86.593 61.707 86.5318 61.7413C86.4679 61.7982 86.475 61.7413 86.4323 61.8621C86.1753 62.5013 85.9871 63.166 85.8709 63.845C85.7287 64.5557 85.6079 65.2025 85.5013 65.8705C85.3947 66.5386 85.2952 67.1924 85.2099 67.8463C85.1246 68.5001 85.082 69.1398 84.9541 69.7794C84.8436 70.4043 84.6771 71.018 84.4566 71.613C84.398 71.7644 84.3292 71.9117 84.2505 72.0537C84.151 72.1887 84.0941 72.3593 83.824 72.4446C83.7549 72.4573 83.6836 72.4492 83.6191 72.4213C83.5546 72.3935 83.4998 72.3472 83.4616 72.2882C83.4119 72.2062 83.3736 72.1177 83.3479 72.0252C83.3159 71.8707 83.2969 71.7138 83.291 71.5562C83.291 70.3409 83.4545 69.2322 83.5184 68.159C83.5648 67.646 83.5648 67.1298 83.5184 66.6168C83.5184 66.3893 83.4118 66.1193 83.2839 66.0695C83.1943 66.0256 83.0959 66.0028 82.9961 66.0028C82.8963 66.0028 82.7978 66.0256 82.7082 66.0695C82.4099 66.3899 82.2251 66.7994 82.1823 67.2351C82.0757 67.6686 82.0331 68.1093 81.9549 68.5286C81.6564 70.2058 81.3437 71.6557 81.1944 72.8355C81.1244 73.3543 81.1244 73.8802 81.1944 74.399C81.2939 74.8254 81.4432 75.2092 81.5214 75.5077C81.5995 75.8062 81.6777 76.0194 81.7275 76.2184C81.7539 76.2946 81.773 76.3731 81.7843 76.453C81.7417 76.3842 81.7083 76.3101 81.6848 76.2326L81.4432 75.5219C81.3437 75.2163 81.1944 74.8752 81.0736 74.4061C80.9976 73.8734 80.9976 73.3326 81.0736 72.7999C81.2086 71.5988 81.4929 70.1632 81.7843 68.4788C81.8625 68.0595 81.9051 67.6189 81.9975 67.164C82.0484 66.9238 82.1125 66.6865 82.1894 66.4533C82.2605 66.1948 82.4155 65.9673 82.6301 65.8066C82.7592 65.7381 82.9032 65.7023 83.0494 65.7023C83.1956 65.7023 83.3395 65.7381 83.4687 65.8066C83.6076 65.8942 83.7218 66.016 83.8002 66.1603C83.8786 66.3047 83.9186 66.4667 83.9164 66.631C83.9662 67.1652 83.9662 67.7029 83.9164 68.2372C83.8667 69.3174 83.6961 70.4475 83.7245 71.5988C83.7297 71.735 83.7464 71.8705 83.7743 72.0039C83.7743 72.139 83.8738 72.1958 83.8596 72.1674C83.8454 72.139 83.9946 72.0537 84.0515 71.94C84.1215 71.8139 84.1833 71.6833 84.2363 71.5491C84.4468 70.973 84.6015 70.378 84.6982 69.7723C84.819 69.154 84.8617 68.5144 84.947 67.8534C85.0322 67.1924 85.1175 66.5386 85.2241 65.8634C85.3307 65.1882 85.4516 64.5131 85.5866 63.8237C85.7022 63.1037 85.9026 62.4 86.1836 61.7271C86.2404 61.6142 86.3263 61.5186 86.4323 61.4499C86.5268 61.3981 86.627 61.3576 86.7308 61.3291C86.85 61.295 86.9752 61.2869 87.0978 61.3053C87.2204 61.3237 87.3376 61.3682 87.4415 61.4357C87.6065 61.5667 87.7427 61.7301 87.8417 61.916C87.9407 62.1018 88.0005 62.3061 88.0172 62.516C88.0706 62.9027 88.0706 63.2949 88.0172 63.6816C87.9817 64.044 87.9461 64.3923 87.9248 64.7903C87.7863 66.304 87.8006 67.8279 87.9675 69.3388C87.9979 69.5182 88.0455 69.6943 88.1096 69.8647C88.1309 69.9335 88.1674 69.9966 88.2162 70.0495C88.2162 70.0495 88.2162 70.0495 88.2518 70.0495C88.2518 70.2129 88.2518 70.0495 88.2518 70.1134C88.2518 70.1774 88.2518 70.1135 88.2518 70.0566C88.3404 69.9378 88.4099 69.8059 88.4579 69.6657C88.5242 69.4904 88.581 69.3056 88.6284 69.1114C88.8203 68.358 88.9482 67.562 89.0691 66.766C89.3107 65.1669 89.4884 63.5252 89.6376 61.8621V61.8977C89.5744 61.3119 89.7015 60.7213 90.0001 60.2133C90.1141 60.0681 90.2704 59.9621 90.4475 59.9098C90.6245 59.8576 90.8134 59.8618 90.988 59.9219C91.137 60.0046 91.268 60.1164 91.3729 60.2507C91.4779 60.385 91.5549 60.5391 91.5992 60.7037C91.8268 61.5776 91.9202 62.481 91.8764 63.383C91.8764 64.2643 91.7982 65.1314 91.72 65.9913C91.6418 66.8513 91.5352 67.697 91.4144 68.5357C91.3504 68.9621 91.2865 69.3743 91.2225 69.7936C91.1656 70.0566 91.1799 70.0637 91.2225 70.1419C91.2718 70.1752 91.33 70.193 91.3895 70.193C91.449 70.193 91.5072 70.1752 91.5565 70.1419C91.6418 70.0779 91.656 69.9571 91.6774 69.7226L91.7271 69.1042L91.855 67.8747C91.9403 67.0645 92.054 66.2543 92.1891 65.4654C92.3206 64.673 92.5106 63.8915 92.7576 63.1272C92.8867 62.7409 93.0608 62.3711 93.2764 62.0256C93.3938 61.8394 93.5487 61.6796 93.7313 61.5565C93.8326 61.4832 93.95 61.4353 94.0737 61.4167C94.1973 61.3982 94.3237 61.4096 94.442 61.4499C94.5509 61.5171 94.6428 61.6085 94.7106 61.7169C94.7784 61.8254 94.8202 61.9481 94.8329 62.0753C94.8622 62.2753 94.8741 62.4774 94.8684 62.6795C94.8684 63.0703 94.8187 63.447 94.776 63.8237C94.6765 64.5344 94.5415 65.2877 94.4136 66.0056C94.1083 67.3556 93.9604 68.7365 93.9729 70.1206C93.993 70.2692 94.0312 70.4148 94.0867 70.5541C94.1124 70.6045 94.1434 70.6522 94.179 70.6962C94.179 70.6962 94.179 70.6962 94.179 70.6465C94.3386 70.3896 94.4562 70.1089 94.5273 69.8149C94.7121 69.1966 94.8613 68.5712 95.0248 67.96C95.1714 67.3519 95.3493 66.7517 95.5578 66.1619C95.6563 65.8698 95.7849 65.5887 95.9416 65.3233C96.0264 65.1786 96.1372 65.0509 96.2685 64.9466C96.34 64.8846 96.4253 64.8408 96.5173 64.8187C96.6091 64.8043 96.7026 64.8043 96.7944 64.8187C96.8914 64.8284 96.9841 64.8638 97.0628 64.9212C97.1415 64.9787 97.2034 65.0562 97.2422 65.1456C97.3016 65.295 97.3329 65.454 97.3346 65.6147C97.3401 65.9022 97.3235 66.1897 97.2848 66.4746C97.2209 67.029 97.1143 67.5549 97.0148 68.0737C96.8087 69.09 96.5812 70.0566 96.3041 70.9165C95.771 72.6791 95.238 74.1716 94.8045 75.3869C94.3709 76.6022 94.0014 77.519 93.7526 78.1729C93.6318 78.4714 93.5323 78.7059 93.4612 78.8836C93.4294 78.9998 93.3841 79.1119 93.3262 79.2176Z" fill="#EB996E"/>
<path d="M54.5251 99.2447C55.8755 104.014 58.5193 111.369 61.355 119.144C61.4444 119.395 61.6062 119.613 61.8197 119.772C62.0333 119.93 62.2892 120.022 62.5548 120.035C62.8205 120.048 63.084 119.981 63.3119 119.844C63.5399 119.707 63.7221 119.506 63.8354 119.265L70.7861 104.561C70.7861 104.561 69.1089 92.4787 69.251 92.9123C69.3931 93.3458 54.9089 94.4758 54.9089 94.4758L54.5251 99.2447Z" fill="#8FA3FF"/>
<path d="M70.1941 96.8797C70.1941 96.9365 69.3271 97.1924 67.9554 97.7183C66.1628 98.3988 64.4357 99.2409 62.7957 100.234C61.1578 101.232 59.6118 102.374 58.1761 103.646C57.0745 104.619 56.442 105.287 56.3993 105.245C56.3567 105.202 56.5201 105.046 56.7902 104.726C57.1709 104.281 57.5742 103.857 57.9984 103.454C59.3993 102.105 60.9436 100.913 62.6038 99.9002C64.2644 98.8996 66.0276 98.0799 67.863 97.4553C68.4178 97.2642 68.9825 97.1029 69.5545 96.9721C69.7614 96.9073 69.9774 96.8761 70.1941 96.8797Z" fill="#FAFAFA"/>
<path d="M72.9487 100.546C72.4971 100.091 72.1054 99.5797 71.7832 99.0253C70.9532 97.7312 70.2397 96.366 69.6511 94.9458C69.062 93.5213 68.6029 92.0465 68.2794 90.5394C68.1138 89.9229 68.0301 89.2873 68.0306 88.6489C68.2426 89.2448 68.4112 89.8553 68.5352 90.4754C68.916 91.9471 69.3908 93.3928 69.9567 94.8037C70.5479 96.2071 71.2268 97.572 71.9893 98.8902C72.3442 99.4211 72.6647 99.9742 72.9487 100.546Z" fill="#263238"/>
<path d="M77.5852 35.431C76.3794 37.4183 75.6319 39.6494 75.3971 41.9619C75.1623 44.2745 75.446 46.6103 76.2277 48.7994C76.9384 50.7539 78.0755 52.6799 77.8694 54.7551C77.6633 56.8304 76.0429 58.8843 76.6115 60.9312C76.9526 62.1465 77.9903 63.0633 78.3954 64.2431C78.8573 65.6645 78.3954 67.1641 78.1466 68.621C77.5781 72.3451 78.772 76.0905 79.0634 79.8431C79.3548 83.5956 78.3527 87.9949 74.9982 89.6295C73.9819 90.127 72.6528 90.2692 71.8071 89.5087C70.7268 88.5492 71.0253 86.8151 71.3238 85.3937C74.2662 71.1796 65.1762 57.3066 67.2515 42.9219C67.5855 40.6192 68.8719 36.7103 70.5278 35.1041C72.1838 33.4979 76.7821 33.6827 78.3456 35.3884" fill="#263238"/>
<path d="M63.5831 76.6663C63.5831 76.6663 64.0167 76.1546 64.6563 75.1454C65.5539 73.7201 66.1826 72.1423 66.5112 70.4902C66.7257 69.3522 66.7997 68.1922 66.7316 67.0362C66.6072 65.692 66.5574 64.342 66.5823 62.9923C66.6247 62.2531 66.7608 61.5223 66.9874 60.8175C67.2472 60.0914 67.5756 59.3917 67.9682 58.728C68.7642 57.3848 69.7663 56.1339 70.6902 54.7978C71.639 53.535 72.2989 52.0794 72.6233 50.5336C72.7809 49.0776 72.6968 47.6055 72.3746 46.1769C72.1057 44.8492 72.0007 43.4935 72.0619 42.1401C72.1464 40.958 72.3854 39.792 72.7726 38.6719C73.3155 37.0465 74.17 35.5425 75.2885 34.2442C75.5855 33.8912 75.9086 33.561 76.255 33.2563C76.3649 33.1393 76.489 33.0366 76.6246 32.9507C76.6246 32.9507 76.1484 33.4126 75.3951 34.3721C73.6008 36.5993 72.5516 39.334 72.3959 42.1899C72.3483 43.5211 72.4653 44.8531 72.7441 46.1556C73.0832 47.6226 73.1744 49.136 73.0142 50.6331C72.6773 52.222 71.9982 53.7184 71.0242 55.0181C70.0932 56.3756 69.0911 57.6193 68.3093 58.927C67.9248 59.5661 67.6057 60.2423 67.357 60.9454C67.1322 61.6215 66.996 62.3238 66.9519 63.0349C66.9204 64.3697 66.9584 65.7053 67.0656 67.0362C67.122 68.2155 67.0313 69.3973 66.7955 70.5542C66.4394 72.2288 65.7637 73.819 64.8055 75.2378C64.5461 75.6213 64.2612 75.9869 63.9527 76.3322C63.8421 76.4568 63.7182 76.5688 63.5831 76.6663Z" fill="#455A64"/>
<path d="M56.8477 77.7256C56.9049 77.5599 56.9787 77.4003 57.068 77.2494C57.2457 76.9154 57.4731 76.4748 57.7787 75.9204C58.3757 74.762 59.2641 73.0776 60.1382 70.9455C61.2075 68.4553 61.8006 65.7867 61.8866 63.0779C61.887 62.2975 61.8276 61.5182 61.7089 60.7468C61.5881 59.9508 61.4033 59.1477 61.2825 58.3091C61.1347 57.4416 61.154 56.5539 61.3393 55.6937C61.5797 54.8105 62.0739 54.0173 62.7607 53.4123C64.0969 52.197 65.7102 51.401 66.5488 49.9725C67.2754 48.556 67.7035 47.0055 67.8068 45.4169C67.9572 43.9605 68.2866 42.5283 68.7875 41.1526C69.9141 38.1993 71.9213 35.6636 74.5372 33.8892C74.9542 33.6085 75.3886 33.3545 75.8377 33.1287C75.9894 33.0379 76.1517 32.9663 76.321 32.9155C76.321 32.9155 75.6814 33.2567 74.6224 34.01C73.1299 35.0751 71.8378 36.3961 70.8059 37.9118C70.0904 38.9508 69.5078 40.0754 69.0718 41.2592C68.5929 42.6382 68.2827 44.07 68.1479 45.5235C67.9347 47.0373 67.7641 48.7288 66.8544 50.2283C65.9447 51.7279 64.2817 52.5808 63.0095 53.7819C62.3612 54.3445 61.8938 55.0863 61.6662 55.914C61.4935 56.7279 61.4766 57.5671 61.6165 58.3873C61.7302 59.2046 61.9079 60.0148 62.0287 60.8179C62.1517 61.6078 62.2087 62.4065 62.1993 63.2059C62.1027 65.9642 61.4778 68.6784 60.3585 71.2013C59.6315 72.9063 58.8057 74.5674 57.8853 76.1763L57.1319 77.2921C57.0528 77.4462 56.9575 77.5915 56.8477 77.7256Z" fill="#455A64"/>
<path d="M291.988 278.549C292.021 278.445 292.064 278.345 292.116 278.25C292.215 278.037 292.35 277.753 292.514 277.39C293.008 276.28 293.405 275.129 293.701 273.95C294.482 270.894 294.76 266.225 293.601 260.681C292.972 257.658 292.148 254.679 291.135 251.762C290.097 248.599 288.882 245.245 287.894 241.613C286.779 237.825 286.24 233.891 286.295 229.943C286.444 225.814 287.667 221.699 289.01 217.591C290.353 213.483 291.739 209.482 292.151 205.431C292.61 201.546 291.829 197.616 289.92 194.202C288.143 190.925 285.904 188.118 284.234 185.218C282.67 182.524 281.518 179.611 280.816 176.576C279.807 172.182 279.732 167.626 280.595 163.201C280.91 161.582 281.386 159.998 282.017 158.475C281.998 158.581 281.969 158.686 281.931 158.787L281.647 159.69C281.405 160.486 281.086 161.68 280.78 163.243C279.986 167.648 280.104 172.169 281.128 176.527C281.841 179.525 282.998 182.399 284.561 185.055C286.231 187.898 288.477 190.741 290.296 194.031C292.252 197.515 293.055 201.527 292.592 205.495C292.173 209.603 290.78 213.647 289.436 217.748C288.093 221.848 286.885 225.921 286.736 229.979C286.672 233.888 287.199 237.784 288.299 241.535C289.273 245.145 290.467 248.5 291.497 251.677C292.501 254.609 293.308 257.606 293.914 260.646C295.044 266.232 294.724 270.951 293.914 274.014C293.597 275.195 293.171 276.344 292.642 277.447L292.201 278.293C292.14 278.386 292.068 278.472 291.988 278.549Z" fill="#263238"/>
<path d="M286.511 188.082C286.511 188.082 283.113 177.202 289.211 170.834C289.259 170.782 289.319 170.745 289.386 170.726C289.453 170.708 289.524 170.708 289.591 170.727C289.659 170.746 289.719 170.783 289.766 170.835C289.813 170.886 289.845 170.95 289.858 171.018C290.185 172.816 290.59 178.289 286.511 188.082Z" fill="#8FA3FF"/>
<path d="M288.545 174.458C288.534 175.132 288.458 175.803 288.317 176.462C288.09 177.848 287.827 179.468 287.543 181.259C287.258 183.05 286.995 184.678 286.775 186.057C286.713 186.729 286.594 187.395 286.42 188.047C286.353 187.375 286.367 186.697 286.462 186.028C286.576 184.785 286.796 183.079 287.102 181.203C287.408 179.326 287.742 177.649 288.005 176.42C288.108 175.747 288.289 175.089 288.545 174.458Z" fill="#263238"/>
<path d="M290.5 213.747C290.5 213.747 292.582 202.539 300.954 199.768C301.02 199.745 301.091 199.74 301.159 199.755C301.228 199.771 301.29 199.804 301.34 199.853C301.391 199.902 301.426 199.963 301.443 200.031C301.46 200.099 301.458 200.17 301.437 200.237C300.883 201.964 298.687 206.988 290.5 213.747Z" fill="#8FA3FF"/>
<path d="M298.674 202.646C298.349 203.238 297.968 203.798 297.537 204.317L294.601 208.19L291.687 212.078C291.321 212.642 290.904 213.172 290.444 213.662C290.703 213.037 291.037 212.445 291.439 211.9C292.149 210.855 293.116 209.448 294.282 207.934C295.447 206.42 296.506 205.091 297.309 204.125C297.708 203.583 298.166 203.088 298.674 202.646Z" fill="#263238"/>
<path d="M288.241 241.841C288.241 241.841 286.976 230.513 294.183 225.431C294.238 225.388 294.305 225.361 294.375 225.354C294.445 225.348 294.516 225.361 294.579 225.393C294.641 225.425 294.694 225.475 294.729 225.536C294.765 225.596 294.782 225.666 294.78 225.737C294.758 227.563 294.112 233.007 288.241 241.841Z" fill="#8FA3FF"/>
<path d="M292.862 228.856C292.73 229.518 292.528 230.164 292.258 230.782L290.581 235.345C289.955 237.051 289.394 238.593 288.918 239.908C288.736 240.555 288.498 241.185 288.207 241.791C288.273 241.117 288.421 240.454 288.648 239.816C288.996 238.622 289.536 236.973 290.197 235.196C290.858 233.419 291.505 231.82 291.995 230.676C292.222 230.041 292.512 229.432 292.862 228.856Z" fill="#263238"/>
<path d="M294.548 270.113C294.548 270.113 293.695 258.741 301.072 253.923C301.13 253.883 301.197 253.86 301.267 253.857C301.337 253.853 301.407 253.87 301.468 253.904C301.53 253.938 301.58 253.988 301.614 254.049C301.649 254.11 301.665 254.18 301.662 254.25C301.577 256.076 300.738 261.499 294.548 270.113Z" fill="#8FA3FF"/>
<path d="M299.605 257.306C299.445 257.962 299.219 258.6 298.929 259.21C298.404 260.504 297.778 262.053 297.089 263.709C296.399 265.365 295.795 266.907 295.269 268.208C295.059 268.849 294.79 269.47 294.466 270.063C294.56 269.391 294.735 268.732 294.985 268.101C295.376 266.922 295.973 265.301 296.698 263.546C297.423 261.79 298.119 260.212 298.652 259.09C298.905 258.463 299.225 257.865 299.605 257.306Z" fill="#263238"/>
<path d="M281.617 178.524C281.617 178.524 271.539 173.236 271.319 164.43C271.318 164.361 271.336 164.293 271.371 164.234C271.406 164.174 271.456 164.125 271.517 164.092C271.577 164.058 271.645 164.042 271.714 164.044C271.783 164.046 271.85 164.066 271.909 164.103C273.408 165.141 277.573 168.723 281.617 178.524Z" fill="#8FA3FF"/>
<path d="M273.418 167.458C273.891 167.942 274.313 168.473 274.676 169.043C275.5 170.173 276.46 171.51 277.519 172.981L280.362 176.904C280.795 177.42 281.18 177.974 281.513 178.56C280.993 178.127 280.528 177.633 280.127 177.089C279.324 176.136 278.272 174.772 277.164 173.229C276.055 171.687 275.081 170.259 274.413 169.214C274.021 168.665 273.688 168.077 273.418 167.458Z" fill="#263238"/>
<path d="M292.472 201.885C292.472 201.885 282.068 197.229 281.336 188.438C281.33 188.369 281.343 188.3 281.374 188.238C281.405 188.176 281.452 188.123 281.511 188.087C281.57 188.05 281.638 188.03 281.707 188.029C281.776 188.029 281.845 188.047 281.904 188.083C283.461 189.028 287.831 192.34 292.472 201.885Z" fill="#8FA3FF"/>
<path d="M283.622 191.338C284.124 191.789 284.576 192.292 284.973 192.837L288.057 196.597L291.149 200.343C291.612 200.833 292.03 201.363 292.4 201.927C291.854 201.525 291.358 201.06 290.921 200.542C290.068 199.632 288.931 198.338 287.73 196.867C286.529 195.396 285.477 194.024 284.738 193.022C284.305 192.504 283.931 191.939 283.622 191.338Z" fill="#263238"/>
<path d="M286.465 227.961C286.465 227.961 279.358 219.077 282.677 210.904C282.703 210.84 282.746 210.784 282.802 210.743C282.858 210.702 282.924 210.677 282.993 210.671C283.062 210.665 283.132 210.679 283.194 210.71C283.256 210.741 283.308 210.788 283.345 210.847C284.332 212.389 286.699 217.336 286.465 227.961Z" fill="#8FA3FF"/>
<path d="M283.395 214.514C283.638 215.145 283.815 215.801 283.921 216.469C284.22 217.833 284.568 219.439 284.952 221.216C285.336 222.993 285.698 224.592 285.997 225.957C286.187 226.604 286.317 227.268 286.387 227.939C286.075 227.335 285.837 226.696 285.677 226.035C285.328 224.834 284.902 223.192 284.504 221.301C284.106 219.411 283.793 217.748 283.594 216.525C283.455 215.864 283.388 215.19 283.395 214.514Z" fill="#263238"/>
<path d="M293.572 258.6C293.572 258.6 283.245 253.774 282.663 244.975C282.656 244.905 282.669 244.835 282.7 244.771C282.731 244.708 282.78 244.655 282.84 244.618C282.9 244.581 282.969 244.562 283.039 244.562C283.11 244.562 283.179 244.582 283.238 244.62C284.766 245.594 289.08 248.984 293.572 258.6Z" fill="#8FA3FF"/>
<path d="M284.885 247.903C285.373 248.369 285.816 248.881 286.206 249.431L289.227 253.234L292.255 257.036C292.71 257.533 293.119 258.071 293.477 258.642C292.948 258.227 292.471 257.75 292.056 257.221C291.21 256.297 290.101 254.982 288.921 253.489C287.742 251.997 286.718 250.611 285.993 249.595C285.559 249.076 285.187 248.508 284.885 247.903Z" fill="#263238"/>
<path d="M314.117 213.797C314.117 213.797 314.117 213.883 314.117 214.046C314.117 214.21 314.117 214.48 314.117 214.757C314.117 215.468 314.046 216.37 313.996 217.521C313.868 219.952 313.676 223.342 313.456 227.393C312.745 231.515 310.613 236.085 307.77 240.527C305.702 243.796 303.506 246.767 301.658 249.532C299.972 251.958 298.457 254.499 297.124 257.136C296.242 258.918 295.528 260.779 294.992 262.694C294.814 263.369 294.672 263.902 294.594 264.265C294.56 264.453 294.51 264.639 294.445 264.819C294.447 264.627 294.471 264.437 294.516 264.25C294.566 263.881 294.672 263.341 294.836 262.651C295.314 260.703 295.993 258.81 296.861 257.001C298.182 254.343 299.695 251.785 301.388 249.347C303.25 246.561 305.404 243.583 307.465 240.335C310.272 235.915 312.362 231.416 313.15 227.358C313.435 223.314 313.669 219.931 313.861 217.5C313.954 216.349 314.032 215.432 314.089 214.743C314.089 214.458 314.138 214.217 314.16 214.032C314.136 213.956 314.121 213.877 314.117 213.797Z" fill="#263238"/>
<path d="M307.967 239.709C307.967 239.709 312.338 229.19 306.844 222.289C306.802 222.234 306.745 222.192 306.679 222.167C306.614 222.142 306.543 222.136 306.474 222.149C306.406 222.163 306.342 222.195 306.291 222.242C306.24 222.289 306.202 222.35 306.183 222.417C305.693 224.18 304.79 229.588 307.967 239.709Z" fill="#8FA3FF"/>
<path d="M307.175 225.963C307.364 226.612 307.481 227.279 307.524 227.953C307.68 229.19 307.851 230.903 307.986 232.8C308.121 234.698 308.185 236.418 308.185 237.669C308.227 238.344 308.187 239.022 308.064 239.687C307.941 239.024 307.882 238.35 307.886 237.676C307.794 236.254 307.68 234.641 307.559 232.829C307.438 231.017 307.325 229.375 307.225 227.982C307.142 227.312 307.126 226.636 307.175 225.963Z" fill="#263238"/>
<g opacity="0.3">
<path d="M307.968 239.709C307.968 239.709 312.338 229.19 306.845 222.289C306.802 222.234 306.745 222.192 306.68 222.167C306.614 222.142 306.543 222.136 306.475 222.149C306.406 222.163 306.343 222.195 306.291 222.242C306.24 222.289 306.203 222.35 306.184 222.417C305.693 224.18 304.791 229.588 307.968 239.709Z" fill="black"/>
</g>
<path d="M294.432 265.074C294.432 265.074 297.936 254.228 291.895 247.804C291.848 247.752 291.788 247.715 291.721 247.696C291.655 247.677 291.584 247.676 291.517 247.695C291.45 247.713 291.39 247.749 291.342 247.8C291.295 247.851 291.262 247.913 291.248 247.981C290.907 249.772 290.445 255.245 294.432 265.074Z" fill="#8FA3FF"/>
<path d="M292.521 251.415C292.768 252.046 292.939 252.705 293.033 253.376C293.289 254.591 293.595 256.29 293.886 258.166C294.177 260.043 294.376 261.755 294.483 262.999C294.575 263.67 294.587 264.35 294.519 265.025C294.35 264.372 294.236 263.706 294.177 263.035C293.971 261.649 293.73 260.028 293.467 258.23C293.204 256.432 292.948 254.812 292.756 253.426C292.612 252.765 292.533 252.091 292.521 251.415Z" fill="#263238"/>
<g opacity="0.3">
<path d="M294.433 265.074C294.433 265.074 297.937 254.228 291.896 247.804C291.849 247.752 291.789 247.715 291.723 247.696C291.656 247.677 291.585 247.676 291.518 247.695C291.452 247.713 291.391 247.749 291.344 247.8C291.296 247.851 291.264 247.913 291.249 247.981C290.908 249.772 290.446 255.245 294.433 265.074Z" fill="black"/>
</g>
<path d="M313.54 226.851C313.54 226.851 322.871 220.313 321.933 211.543C321.926 211.474 321.9 211.408 321.857 211.353C321.815 211.298 321.759 211.256 321.694 211.231C321.629 211.206 321.559 211.199 321.491 211.212C321.423 211.224 321.359 211.255 321.308 211.301C319.95 212.524 316.311 216.589 313.54 226.851Z" fill="#8FA3FF"/>
<g opacity="0.3">
<path d="M313.541 226.851C313.541 226.851 322.872 220.313 321.934 211.543C321.927 211.474 321.901 211.408 321.859 211.353C321.817 211.298 321.76 211.256 321.695 211.231C321.631 211.206 321.56 211.199 321.492 211.212C321.424 211.224 321.361 211.255 321.309 211.301C319.951 212.524 316.313 216.589 313.541 226.851Z" fill="black"/>
</g>
<path d="M320.248 214.82C320.063 215.471 319.803 216.098 319.473 216.689C318.94 217.812 318.165 219.347 317.263 221.024C316.36 222.702 315.493 224.187 314.825 225.239C314.497 225.829 314.098 226.378 313.638 226.873C313.888 226.248 314.197 225.648 314.562 225.082C315.23 223.853 316.019 222.417 316.886 220.818L319.203 216.554C319.494 215.943 319.844 215.362 320.248 214.82Z" fill="#263238"/>
<path d="M298.201 254.321C298.201 254.321 309.459 252.566 312.472 244.279C312.496 244.214 312.503 244.144 312.49 244.076C312.477 244.008 312.446 243.945 312.4 243.894C312.353 243.842 312.294 243.805 312.228 243.785C312.162 243.765 312.091 243.764 312.024 243.781C310.269 244.307 305.18 246.333 298.201 254.321Z" fill="#8FA3FF"/>
<g opacity="0.3">
<path d="M298.2 254.321C298.2 254.321 309.457 252.565 312.471 244.278C312.495 244.214 312.501 244.144 312.489 244.076C312.476 244.008 312.445 243.945 312.398 243.893C312.352 243.842 312.293 243.804 312.226 243.784C312.16 243.765 312.09 243.763 312.023 243.781C310.267 244.307 305.179 246.332 298.2 254.321Z" fill="black"/>
</g>
<path d="M309.516 246.476C309.06 246.974 308.55 247.419 307.995 247.805C307.021 248.586 305.65 249.624 304.107 250.733C302.565 251.841 301.122 252.787 300.056 253.441C299.501 253.828 298.899 254.146 298.265 254.386C298.77 253.936 299.315 253.534 299.893 253.185L303.859 250.384L307.817 247.542C308.344 247.127 308.913 246.77 309.516 246.476Z" fill="#263238"/>
<path d="M287.455 275.045L284.172 297.148H304.64L301.989 275.045H287.455Z" fill="#455A64"/>
<path d="M302.815 281.89C302.815 282.011 299.119 282.104 294.564 282.104C290.008 282.104 286.305 282.011 286.305 281.89C289.053 281.68 291.809 281.609 294.564 281.677C297.316 281.609 300.07 281.68 302.815 281.89Z" fill="#263238"/>
<path d="M303.208 283.652C303.208 283.773 299.391 283.865 294.679 283.865C289.967 283.865 286.151 283.773 286.151 283.652C286.151 283.531 289.967 283.438 294.679 283.438C299.391 283.438 303.208 283.531 303.208 283.652Z" fill="#263238"/>
<path d="M223.619 60.6185C223.619 60.6185 223.427 60.6185 223.058 60.6185C222.518 60.5864 221.977 60.5864 221.437 60.6185C219.35 60.7407 217.299 61.2215 215.375 62.0399C212.325 63.3183 209.671 65.3864 207.685 68.0311C206.461 69.6825 205.55 71.5447 204.999 73.5249C203.755 78.242 204.427 83.2596 206.868 87.4832C207.533 88.6525 208.345 89.7321 209.284 90.6956C210.232 91.7163 211.335 92.58 212.554 93.2541C213.804 93.9578 215.22 94.3136 216.654 94.2846C218.133 94.2669 219.551 93.6935 220.627 92.6784C221.147 92.1336 221.555 91.4916 221.827 90.7892C222.099 90.0868 222.23 89.3378 222.212 88.5848C222.201 87.0203 221.705 85.4979 220.791 84.2281C218.95 81.6341 215.965 79.8928 212.788 78.9547C209.494 78.0295 206.015 77.9805 202.696 78.8126C201.002 79.2533 199.369 79.9026 197.835 80.7457C196.286 81.6197 194.879 82.7245 193.663 84.022C193.372 84.3561 193.038 84.6617 192.775 85.0312L191.972 86.1115C191.483 86.8727 191.046 87.6658 190.664 88.4853C189.904 90.1491 189.384 91.9128 189.122 93.7232C188.606 97.3398 189.098 101.029 190.543 104.384C191.925 107.662 194.331 110.405 197.401 112.202C198.89 113.052 200.552 113.555 202.263 113.673C203.94 113.767 205.608 113.366 207.06 112.521C208.501 111.725 209.64 110.476 210.301 108.968C210.924 107.481 210.967 105.815 210.421 104.299C209.86 102.835 208.941 101.535 207.749 100.518C206.593 99.5184 205.26 98.7446 203.819 98.2362C201.009 97.3501 198.002 97.2982 195.163 98.0869C192.506 98.8068 190.066 100.166 188.056 102.046C186.224 103.8 184.83 105.959 183.983 108.35C182.503 112.497 182.571 117.041 184.175 121.142C185.426 124.204 187.44 126.896 190.024 128.96C191.652 130.266 193.465 131.322 195.404 132.094C196.072 132.343 196.591 132.528 196.946 132.627L197.472 132.798C197.472 132.798 197.288 132.762 196.932 132.663C196.407 132.522 195.89 132.354 195.383 132.158C193.419 131.42 191.582 130.379 189.939 129.074C187.311 127.011 185.257 124.306 183.976 121.22C182.344 117.08 182.26 112.49 183.742 108.293C184.589 105.866 186 103.674 187.857 101.896C189.895 99.9789 192.372 98.5883 195.07 97.8453C197.969 97.0365 201.04 97.0859 203.911 97.9874C205.395 98.5047 206.767 99.2981 207.955 100.326C209.194 101.377 210.147 102.724 210.727 104.242C211.312 105.826 211.286 107.571 210.656 109.138C209.955 110.706 208.766 112.005 207.266 112.841C205.76 113.719 204.031 114.139 202.291 114.049C200.539 113.927 198.837 113.407 197.316 112.528C194.175 110.707 191.709 107.916 190.287 104.576C188.811 101.159 188.304 97.4017 188.823 93.7161C189.094 91.8691 189.626 90.0698 190.401 88.3716C190.791 87.5346 191.238 86.725 191.737 85.948L192.561 84.8465C192.824 84.4698 193.166 84.1357 193.464 83.8088C194.709 82.4867 196.147 81.3605 197.728 80.4685C199.298 79.6093 200.969 78.9504 202.703 78.507C206.086 77.6593 209.631 77.7108 212.987 78.6562C216.228 79.6228 219.263 81.3924 221.174 84.0789C222.135 85.4017 222.657 86.9925 222.667 88.6274C222.702 90.2364 222.096 91.7933 220.983 92.9556C219.846 94.023 218.349 94.6242 216.789 94.64C215.297 94.6739 213.824 94.303 212.525 93.5668C211.278 92.8785 210.15 91.9929 209.185 90.9443C208.234 89.9592 207.41 88.8585 206.733 87.668C204.248 83.3659 203.573 78.2533 204.857 73.4538C205.425 71.4507 206.358 69.5692 207.607 67.9032C209.629 65.2384 212.329 63.1645 215.425 61.8977C217.365 61.0951 219.432 60.6428 221.53 60.5616C222.074 60.5257 222.62 60.5257 223.164 60.5616L223.619 60.6185Z" fill="#263238"/>
<path d="M247.349 131.732H147.701V208.588H247.349V131.732Z" fill="#8FA3FF"/>
<path d="M147.701 131.732L166.108 148.903H264.065L247.349 131.732H147.701Z" fill="#8FA3FF"/>
<path d="M147.701 131.732L247.378 131.554H247.456L247.513 131.604L264.058 148.597L264.229 148.775L264.534 149.087H264.094L166.137 149.009H166.094L147.701 131.732L166.179 148.789H166.101L264.058 148.718L263.93 149.03L263.752 148.853L247.214 131.86L247.342 131.917L147.701 131.732Z" fill="#263238"/>
<path d="M177.639 167.174C177.099 167.194 176.588 167.425 176.217 167.817C175.845 168.209 175.643 168.731 175.652 169.271C175.662 169.811 175.884 170.326 176.269 170.705C176.654 171.083 177.173 171.295 177.713 171.295C178.253 171.295 178.772 171.083 179.157 170.705C179.543 170.326 179.764 169.811 179.774 169.271C179.784 168.731 179.581 168.209 179.21 167.817C178.838 167.425 178.328 167.194 177.788 167.174" fill="#263238"/>
<path d="M201.183 167.174C200.645 167.195 200.137 167.425 199.768 167.816C199.398 168.208 199.197 168.728 199.208 169.266C199.218 169.804 199.439 170.316 199.823 170.693C200.207 171.07 200.723 171.281 201.261 171.281C201.799 171.281 202.316 171.07 202.7 170.693C203.084 170.316 203.304 169.804 203.315 169.266C203.325 168.728 203.124 168.208 202.754 167.816C202.385 167.425 201.877 167.195 201.339 167.174" fill="#263238"/>
<path d="M201.318 185.567C200.907 183.997 200.239 182.506 199.342 181.154C198.344 179.708 197.062 178.479 195.575 177.543C193.781 176.353 191.688 175.69 189.536 175.631C187.383 175.572 185.258 176.119 183.401 177.209C181.867 178.066 180.521 179.221 179.442 180.607C178.47 181.909 177.723 183.365 177.232 184.913C177.237 184.798 177.256 184.683 177.289 184.572C177.357 184.252 177.445 183.936 177.552 183.627C177.941 182.486 178.51 181.413 179.236 180.45C180.307 179 181.67 177.789 183.237 176.897C185.142 175.76 187.331 175.188 189.548 175.248C191.766 175.309 193.92 175.999 195.76 177.238C197.273 178.21 198.566 179.489 199.555 180.99C200.23 181.993 200.741 183.096 201.069 184.26C201.156 184.575 201.225 184.896 201.275 185.219C201.3 185.334 201.314 185.45 201.318 185.567Z" fill="#263238"/>
<path opacity="0.5" d="M147.929 132.578L165.554 154.923H247.349V148.903H166.108L147.929 132.578Z" fill="black"/>
<path d="M227.699 208.419C227.6 208.419 227.515 195.05 227.515 178.569C227.515 162.088 227.6 148.719 227.699 148.719C227.799 148.719 227.891 162.081 227.891 178.569C227.891 195.057 227.806 208.419 227.699 208.419Z" fill="#263238"/>
<path d="M243.344 190.991H234.559V200.92H243.344V190.991Z" fill="#F5F5F5"/>
<path d="M147.7 131.732L127.245 148.903H147.7V131.732Z" fill="#8FA3FF"/>
<g opacity="0.4">
<path d="M147.699 131.732L127.245 148.903H147.699V131.732Z" fill="black"/>
</g>
<path d="M250.293 208.588H135.72V296.957H250.293V208.588Z" fill="#8FA3FF"/>
<path opacity="0.3" d="M250.293 208.588H135.72V296.957H250.293V208.588Z" fill="black"/>
<path d="M221.586 296.331C221.487 296.331 221.401 276.638 221.401 252.346C221.401 228.054 221.487 208.353 221.586 208.353C221.686 208.353 221.771 228.047 221.771 252.346C221.771 276.645 221.686 296.331 221.586 296.331Z" fill="#263238"/>
<path d="M240.579 276.844H231.795V286.772H240.579V276.844Z" fill="#F5F5F5"/>
<path d="M183.681 208.823H170.668V227.678H183.681V208.823Z" fill="#263238"/>
<path d="M183.681 277.839H170.668V296.694H183.681V277.839Z" fill="#263238"/>
<path d="M249.298 208.587H248.999H248.139L244.834 208.623L232.66 208.679L192.512 208.772L152.35 208.722L140.183 208.665L136.878 208.63L140.183 208.594L152.35 208.537L192.512 208.48L232.66 208.537L244.834 208.594L248.139 208.63H248.999L249.298 208.587Z" fill="#263238"/>
<path d="M52.9408 55.5938L40.4608 52.5235H40.5532C37.3308 54.5733 33.6045 55.6924 29.786 55.7572C27.5254 55.7675 25.2759 55.4393 23.1125 54.7836C19.3088 53.5623 15.9344 51.2776 13.3878 48.1996C10.8413 45.1216 9.22917 41.3789 8.74196 37.4139C8.3593 34.4151 8.64099 31.3689 9.56707 28.4912C10.4931 25.6135 12.0409 22.9748 14.1007 20.762C15.1834 19.5727 16.397 18.5094 17.7182 17.5923C18.3863 17.1729 19.0543 16.7394 19.7508 16.377L20.8098 15.8652L21.3357 15.6094L21.89 15.4104C24.7438 14.3042 27.8052 13.836 30.8592 14.0387C34.9521 14.3045 38.8747 15.7759 42.1328 18.2674C45.3908 20.759 47.8383 24.1593 49.167 28.0397C49.9051 30.2103 50.2937 32.4845 50.3183 34.7772C50.3361 38.5873 49.3006 42.3283 47.3262 45.587V45.4733C50.7945 51.7346 52.5428 54.8973 52.9337 55.5938C52.5286 54.8831 50.7163 51.7773 47.1272 45.5799V45.5231V45.4662C49.0308 42.239 50.0139 38.5521 49.9701 34.8056C49.9371 32.5496 49.5436 30.3135 48.8045 28.1818C47.4903 24.3808 45.084 21.0519 41.8869 18.612C38.6897 16.1721 34.8438 14.7296 30.8307 14.4652C27.8369 14.27 24.8366 14.7309 22.0393 15.8155L21.4991 16.0074L20.9803 16.2632L19.9427 16.7607C19.232 17.1232 18.6066 17.5425 17.9456 17.9547C16.6499 18.8473 15.458 19.8819 14.3921 21.0392C12.37 23.2114 10.8501 25.8016 9.94004 28.6263C9.02998 31.4511 8.75198 34.4414 9.12574 37.3855C9.78464 42.7792 12.5519 47.6928 16.8227 51.0524C18.7321 52.5653 20.899 53.7209 23.2191 54.4637C25.3437 55.1205 27.5551 55.4536 29.7789 55.4516C33.5516 55.4112 37.2403 54.3317 40.4395 52.3316H40.4821H40.5603L52.9408 55.5938Z" fill="#263238"/>
<path d="M27.7688 25.623L28.4013 36.0704C28.4266 36.4825 28.6016 36.8711 28.8936 37.163C29.1855 37.4549 29.5741 37.63 29.9862 37.6553C30.4198 37.6798 30.8463 37.5373 31.1781 37.257C31.5098 36.9768 31.7217 36.5801 31.7701 36.1486L32.9285 25.6798C32.9487 25.4925 32.9288 25.3031 32.8702 25.1241C32.8116 24.945 32.7156 24.7805 32.5886 24.6414C32.4616 24.5023 32.3064 24.3918 32.1335 24.3172C31.9605 24.2426 31.7736 24.2056 31.5853 24.2087H29.048C28.87 24.214 28.6949 24.2552 28.5332 24.3299C28.3715 24.4046 28.2265 24.5111 28.1071 24.6432C27.9876 24.7753 27.896 24.9302 27.8379 25.0986C27.7798 25.2669 27.7562 25.4453 27.7688 25.623Z" fill="#8FA3FF"/>
<path d="M32.7452 43.4903C32.5861 43.9676 32.2892 44.387 31.8919 44.6955C31.4945 45.004 31.0147 45.1879 30.5129 45.2238C30.0111 45.2597 29.51 45.146 29.0728 44.8972C28.6356 44.6484 28.282 44.2755 28.0566 43.8258C27.8312 43.3761 27.7442 42.8696 27.8066 42.3704C27.869 41.8713 28.0779 41.4018 28.4071 41.0213C28.7362 40.6409 29.1707 40.3665 29.6557 40.233C30.1406 40.0994 30.6543 40.1125 31.1318 40.2708C31.4493 40.3761 31.7429 40.5428 31.9959 40.7617C32.2489 40.9805 32.4562 41.247 32.606 41.5461C32.7559 41.8451 32.8453 42.1707 32.8692 42.5043C32.893 42.838 32.8509 43.173 32.7452 43.4903Z" fill="#8FA3FF"/>
</svg>
