<?xml version="1.0" encoding="UTF-8"?>
<svg id="Calque_1" data-name="Calque 1" xmlns="http://www.w3.org/2000/svg" viewBox="0 0 465.68 131.14">
  <defs>
    <style>
      .cls-1 {
        fill: #231f20;
      }
    </style>
  </defs>
  <path class="cls-1" d="m59.93,85.91h-13.45l-15.85-36.57-.24.04-5.43,36.53h-13.49l8.7-58.13h13.49l15.81,36.53.24-.04,5.47-36.49h13.45l-8.7,58.13Z"/>
  <path class="cls-1" d="m87.44,86.75c-6.28,0-11.05-2-14.29-6.01-3.25-4-4.42-9-3.51-14.99l.2-1.52c1.01-6.84,3.56-12.28,7.65-16.31s9.47-6.03,16.15-6.01c5.59,0,9.78,1.76,12.58,5.29,2.79,3.53,3.75,8.28,2.87,14.27l-1.08,7.07h-24.79l-.08.24c-.13,2.32.43,4.16,1.68,5.53,1.25,1.37,3.26,2.06,6.03,2.06,2.48,0,4.64-.22,6.51-.66,1.86-.44,3.94-1.11,6.23-2.02l2,8.22c-2.05,1.36-4.72,2.5-8,3.43-3.29.93-6.66,1.4-10.12,1.4Zm4.63-34.45c-2.08,0-3.73.69-4.97,2.06-1.24,1.37-2.14,3.21-2.69,5.53l.08.24h11.62l.16-1.04c.35-2.32.21-4.02-.42-5.13-.63-1.1-1.88-1.66-3.77-1.66Z"/>
  <path class="cls-1" d="m139.78,64.08l15.73-21.36h-15.13l-7.38,12.74-.24-.05-3.35-12.69h-15.05l9.19,20.93.25.33,2.97-3.82-2.47-1.92,10.67-.24,2.39,10.39-2.28-1.77-4.64,5.95h0s.07.08.07.08l-.18.13h.24l3.79,13.14h15.13l-9.25-20.81-.46-1.03Z"/>
  <path class="cls-1" d="m182.98,48.23c1.65-2.02,3.59-3.58,5.81-4.67,2.22-1.09,4.68-1.64,7.37-1.64s4.72.58,6.51,1.74c1.78,1.16,3.01,2.92,3.67,5.29,1.65-2.26,3.62-4,5.91-5.21,2.29-1.21,4.86-1.82,7.71-1.82,4.05,0,7.09,1.52,9.12,4.57,2.04,3.05,2.59,7.69,1.66,13.91l-3.83,25.51h-13.53l3.83-25.51c.48-3.22.38-5.38-.3-6.47-.68-1.09-1.91-1.64-3.69-1.64-1.28,0-2.45.25-3.53.74-1.08.49-2.03,1.16-2.85,2.02l-.24,2.04-4.31,28.82h-13.49l3.83-25.51c.48-3.22.38-5.38-.3-6.47-.68-1.09-1.92-1.64-3.73-1.64-1.17,0-2.29.24-3.35.72-1.06.48-2.04,1.14-2.91,2l-4.63,30.9h-13.49l6.47-43.2h12.7l-.36,5.51Z"/>
  <path class="cls-1" d="m259.56,85.87c-.35-.9-.62-1.93-.82-3.07s-.3-2.34-.3-3.59c-1.52,2.29-3.23,4.12-5.15,5.49s-4.26,2.06-7.03,2.06c-4.36,0-7.67-1.18-9.9-3.53-2.24-2.36-3.06-5.52-2.48-9.48.67-4.44,2.75-7.79,6.27-10.04,3.51-2.25,8.58-3.37,15.21-3.37h5.55l.48-3.07c.27-1.92.04-3.35-.68-4.29-.72-.94-2-1.42-3.83-1.42-1.52,0-2.73.37-3.63,1.12s-1.46,1.88-1.68,3.39l-13.09-.04-.04-.24c.45-4.1,2.59-7.43,6.41-10,3.82-2.57,8.6-3.85,14.35-3.85,5.16,0,9.25,1.34,12.26,4.03,3.01,2.69,4.14,6.48,3.39,11.38l-2.44,16.29c-.37,2.37-.51,4.51-.4,6.41.11,1.9.4,3.87.88,5.89l-13.33-.04Zm-8.18-8.74c1.57,0,3.07-.39,4.49-1.18,1.42-.78,2.47-1.71,3.13-2.77l.84-5.67h-5.43c-2.05,0-3.66.53-4.83,1.58-1.17,1.05-1.88,2.36-2.12,3.93-.19,1.28.09,2.28.82,3.01.73.73,1.76,1.1,3.09,1.1Z"/>
  <path class="cls-1" d="m296.48,48.58c1.73-2.13,3.72-3.77,5.97-4.93,2.25-1.16,4.65-1.74,7.21-1.74,4.07,0,7.12,1.45,9.14,4.35,2.02,2.9,2.58,7.45,1.68,13.65l-3.91,25.99h-13.49l3.91-26.03c.43-2.85.29-4.82-.42-5.93-.71-1.1-1.91-1.66-3.61-1.66-1.41,0-2.73.27-3.95.8-1.22.53-2.3,1.26-3.23,2.2l-4.59,30.62h-13.45l6.47-43.2h12.65l-.36,5.87Z"/>
  <path class="cls-1" d="m348.86,85.87c-.35-.9-.62-1.93-.82-3.07s-.3-2.34-.3-3.59c-1.52,2.29-3.23,4.12-5.15,5.49s-4.26,2.06-7.03,2.06c-4.36,0-7.67-1.18-9.9-3.53-2.24-2.36-3.06-5.52-2.48-9.48.67-4.44,2.75-7.79,6.27-10.04,3.51-2.25,8.58-3.37,15.21-3.37h5.55l.48-3.07c.27-1.92.04-3.35-.68-4.29-.72-.94-2-1.42-3.83-1.42-1.52,0-2.73.37-3.63,1.12s-1.46,1.88-1.68,3.39l-13.09-.04-.04-.24c.45-4.1,2.59-7.43,6.41-10,3.82-2.57,8.6-3.85,14.35-3.85,5.16,0,9.25,1.34,12.26,4.03,3.01,2.69,4.14,6.48,3.39,11.38l-2.44,16.29c-.37,2.37-.51,4.51-.4,6.41.11,1.9.4,3.87.88,5.89l-13.33-.04Zm-8.18-8.74c1.57,0,3.07-.39,4.49-1.18,1.42-.78,2.47-1.71,3.13-2.77l.84-5.67h-5.43c-2.05,0-3.66.53-4.83,1.58-1.17,1.05-1.88,2.36-2.12,3.93-.19,1.28.09,2.28.82,3.01.73.73,1.76,1.1,3.09,1.1Z"/>
  <path class="cls-1" d="m368.66,64.39c1.04-6.97,3.31-12.46,6.83-16.47,3.51-4.01,7.97-6.01,13.37-6.01,2.21,0,4.09.56,5.65,1.68,1.56,1.12,2.83,2.7,3.81,4.75l1.76-5.63h11.9l-6.39,42.72c-.91,5.91-3.51,10.37-7.83,13.39-4.31,3.02-9.93,4.53-16.85,4.53-2.16,0-4.44-.31-6.87-.92-2.42-.61-4.64-1.44-6.67-2.47l3.83-9.98c1.81.85,3.57,1.48,5.27,1.9,1.7.41,3.7.62,5.99.62,2.77,0,4.96-.58,6.59-1.74,1.62-1.16,2.62-2.96,2.99-5.41l.48-3.31c-1.46,1.54-3.06,2.71-4.79,3.51-1.73.8-3.62,1.2-5.67,1.2-5.11,0-8.89-2-11.34-5.99-2.45-3.99-3.18-9.17-2.2-15.53l.12-.84Zm13.33.84c-.56,3.62-.47,6.38.26,8.28.73,1.9,2.34,2.85,4.81,2.85,1.44,0,2.72-.24,3.85-.72,1.13-.48,2.1-1.2,2.89-2.16l2.71-18c-.51-1.04-1.24-1.83-2.2-2.38-.96-.54-2.16-.82-3.59-.82-2.29,0-4.17,1.12-5.63,3.37-1.46,2.25-2.46,5.16-2.99,8.72l-.12.84Z"/>
  <path class="cls-1" d="m432.26,86.75c-6.28,0-11.04-2-14.29-6.01-3.25-4-4.42-9-3.51-14.99l.2-1.52c1.01-6.84,3.56-12.28,7.65-16.31,4.08-4.03,9.47-6.03,16.15-6.01,5.59,0,9.78,1.76,12.58,5.29,2.79,3.53,3.75,8.28,2.87,14.27l-1.08,7.07h-24.79l-.08.24c-.13,2.32.43,4.16,1.68,5.53,1.25,1.37,3.26,2.06,6.03,2.06,2.48,0,4.64-.22,6.51-.66,1.86-.44,3.94-1.11,6.23-2.02l2,8.22c-2.05,1.36-4.72,2.5-8,3.43-3.29.93-6.66,1.4-10.12,1.4Zm4.63-34.45c-2.08,0-3.73.69-4.97,2.06s-2.14,3.21-2.69,5.53l.08.24h11.62l.16-1.04c.35-2.32.21-4.02-.42-5.13-.63-1.1-1.88-1.66-3.77-1.66Z"/>
</svg>