<svg width="738" height="540" viewBox="0 0 738 540" fill="none" xmlns="http://www.w3.org/2000/svg">
<path d="M664.052 503.063H615.167V503.43H664.052V503.063Z" fill="#EBEBEB"/>
<path d="M488.881 507.047H476.055V507.413H488.881V507.047Z" fill="#EBEBEB"/>
<path d="M613.692 489.473H585.367V489.839H613.692V489.473Z" fill="#EBEBEB"/>
<path d="M141.179 491.934H77.4307V492.3H141.179V491.934Z" fill="#EBEBEB"/>
<path d="M163.674 491.934H154.331V492.3H163.674V491.934Z" fill="#EBEBEB"/>
<path d="M332.321 498.113H194.05V498.479H332.321V498.113Z" fill="#EBEBEB"/>
<path d="M349.812 414.179H64.8264C62.5912 414.179 60.4475 413.298 58.8669 411.73C57.2864 410.162 56.3984 408.034 56.3984 405.817V8.28944C56.4179 6.08424 57.3144 3.97593 58.8929 2.42342C60.4713 0.870922 62.6039 -8.45434e-05 64.8264 6.15491e-09H349.812C352.048 6.15493e-09 354.191 0.881065 355.772 2.44937C357.353 4.01767 358.24 6.14475 358.24 8.36267V405.817C358.24 408.034 357.353 410.162 355.772 411.73C354.191 413.298 352.048 414.179 349.812 414.179ZM64.8264 0.292914C62.6902 0.296786 60.6427 1.14052 59.1322 2.63932C57.6217 4.13812 56.7713 6.16982 56.7674 8.28944V405.817C56.7713 407.936 57.6217 409.968 59.1322 411.467C60.6427 412.965 62.6902 413.809 64.8264 413.813H349.812C351.949 413.809 353.996 412.965 355.507 411.467C357.017 409.968 357.868 407.936 357.871 405.817V8.28944C357.868 6.16982 357.017 4.13812 355.507 2.63932C353.996 1.14052 351.949 0.296786 349.812 0.292914H64.8264Z" fill="#EBEBEB"/>
<path d="M669.085 6.15491e-09H384.07C381.836 0.00387203 379.694 0.886177 378.114 2.45364C376.535 4.02111 375.646 6.14594 375.642 8.36267V405.817C375.646 408.033 376.535 410.158 378.114 411.726C379.694 413.293 381.836 414.175 384.07 414.179H669.085C671.32 414.179 673.464 413.298 675.045 411.73C676.625 410.162 677.513 408.034 677.513 405.817V8.28944C677.494 6.08424 676.597 3.97593 675.019 2.42342C673.44 0.870922 671.308 -8.45434e-05 669.085 6.15491e-09ZM677.144 405.89C677.14 408.009 676.29 410.041 674.779 411.54C673.269 413.039 671.221 413.882 669.085 413.886H384.07C381.933 413.882 379.886 413.039 378.375 411.54C376.865 410.041 376.015 408.009 376.011 405.89V8.28944C376.015 6.16982 376.865 4.13812 378.375 2.63932C379.886 1.14052 381.933 0.296786 384.07 0.292914H669.085C671.221 0.296786 673.269 1.14052 674.779 2.63932C676.29 4.13812 677.14 6.16982 677.144 8.28944V405.89Z" fill="#EBEBEB"/>
<path d="M738 479.499H0V479.865H738V479.499Z" fill="#EBEBEB"/>
<path d="M199.082 26.5088H88.4268V398.992H199.082V26.5088Z" fill="#FAFAFA"/>
<path d="M182.61 26.5088H176.145L137.548 398.992H144.013L182.61 26.5088Z" fill="#F5F5F5"/>
<path d="M200.234 21.793H87.7188V26.8457H200.234V21.793Z" fill="#EBEBEB"/>
<path d="M200.234 398.67H87.7188V405.187H200.234V398.67Z" fill="#EBEBEB"/>
<path d="M204.603 413.241H82.6562V12.5654H204.633L204.603 413.241ZM91.9255 404.014H195.246V21.7629H91.9255V404.014Z" fill="#F0F0F0"/>
<path d="M332.986 26.5088H222.33V398.992H332.986V26.5088Z" fill="#FAFAFA"/>
<path d="M302.3 26.5088H267.023L228.426 398.992H263.702L302.3 26.5088Z" fill="#F5F5F5"/>
<path d="M334.137 21.793H221.621V26.8457H334.137V21.793Z" fill="#EBEBEB"/>
<path d="M334.137 398.67H221.621V405.187H334.137V398.67Z" fill="#EBEBEB"/>
<path d="M338.521 413.241H216.529V12.5654H338.521V413.241ZM225.828 404.014H329.222V21.7629H225.828V404.014Z" fill="#F0F0F0"/>
<path d="M466.903 26.5088H356.247V398.992H466.903V26.5088Z" fill="#FAFAFA"/>
<path d="M417.177 26.5088H410.712L372.114 398.992H378.594L417.177 26.5088Z" fill="#F5F5F5"/>
<path d="M468.055 21.793H355.539V26.8457H468.055V21.793Z" fill="#EBEBEB"/>
<path d="M468.055 398.67H355.539V405.187H468.055V398.67Z" fill="#EBEBEB"/>
<path d="M472.423 413.241H350.446V12.5654H472.423V413.241ZM359.745 404.014H463.065V21.7629H359.745V404.014Z" fill="#F0F0F0"/>
<path d="M511.273 110.517L510.727 214.061L631.683 214.689L632.229 111.146L511.273 110.517Z" fill="#E0E0E0"/>
<path d="M511.272 110.529L632.229 111.157L632.331 91.7813L511.374 91.1529L511.272 110.529Z" fill="#E6E6E6"/>
<path d="M507.212 211.147L628.17 211.777L632.244 111.146L511.286 110.517L507.212 211.147Z" fill="#F5F5F5"/>
<path d="M538.194 135.384L598.061 135.707L598.784 117.985L538.903 117.678L538.194 135.384Z" fill="#EBEBEB"/>
<path d="M607.212 158.627L623.212 158.715L623.846 142.839L607.861 142.766L607.212 158.627Z" fill="#E0E0E0"/>
<path d="M584.525 158.51L600.525 158.598L601.16 142.722L585.175 142.648L584.525 158.51Z" fill="#E0E0E0"/>
<path d="M606.355 180.024L622.341 180.112L622.975 164.251L606.99 164.163L606.355 180.024Z" fill="#E0E0E0"/>
<path d="M605.484 201.422L621.469 201.51L622.119 185.648L606.119 185.561L605.484 201.422Z" fill="#EBEBEB"/>
<path d="M583.669 179.907L599.654 179.995L600.303 164.119L584.304 164.046L583.669 179.907Z" fill="#E0E0E0"/>
<path d="M560.983 179.79L576.968 179.878L577.618 164.002L561.618 163.929L560.983 179.79Z" fill="#E0E0E0"/>
<path d="M538.297 179.673L554.282 179.761L554.931 163.885L538.932 163.812L538.297 179.673Z" fill="#E0E0E0"/>
<path d="M515.61 179.556L531.595 179.643L532.245 163.768L516.245 163.694L515.61 179.556Z" fill="#E0E0E0"/>
<path d="M582.799 201.305L598.784 201.392L599.433 185.531L583.433 185.443L582.799 201.305Z" fill="#EBEBEB"/>
<path d="M560.112 201.187L576.097 201.275L576.747 185.399L560.747 185.326L560.112 201.187Z" fill="#EBEBEB"/>
<path d="M537.427 201.07L553.412 201.158L554.061 185.282L538.061 185.209L537.427 201.07Z" fill="#E0E0E0"/>
<path d="M561.84 158.392L577.84 158.48L578.474 142.604L562.489 142.531L561.84 158.392Z" fill="#EBEBEB"/>
<path d="M539.153 158.275L555.153 158.349L555.788 142.487L539.803 142.414L539.153 158.275Z" fill="#EBEBEB"/>
<path d="M516.468 158.158L532.468 158.231L533.102 142.37L517.117 142.282L516.468 158.158Z" fill="#EBEBEB"/>
<path d="M514.74 200.953L530.725 201.041L531.375 185.165L515.39 185.092L514.74 200.953Z" fill="#E0E0E0"/>
<path d="M571.492 86.1748C570.108 86.1719 568.754 86.5766 567.601 87.3376C566.449 88.0987 565.55 89.1819 565.018 90.4501C564.486 91.7183 564.346 93.1146 564.614 94.4622C564.882 95.8098 565.548 97.0481 566.525 98.0204C567.503 98.9928 568.75 99.6554 570.107 99.9244C571.465 100.193 572.872 100.057 574.152 99.5319C575.431 99.0069 576.524 98.1171 577.294 96.9752C578.063 95.8332 578.474 94.4905 578.474 93.1169C578.474 91.2783 577.739 89.5147 576.43 88.2133C575.121 86.9118 573.345 86.1787 571.492 86.1748ZM571.492 98.3747C570.44 98.3776 569.411 98.0704 568.535 97.4922C567.659 96.914 566.975 96.0907 566.571 95.1267C566.167 94.1627 566.061 93.1013 566.265 92.0772C566.47 91.0531 566.976 90.1123 567.72 89.3741C568.464 88.6358 569.413 88.1334 570.445 87.9304C571.477 87.7274 572.546 87.8331 573.518 88.234C574.489 88.6348 575.319 89.3129 575.902 90.1822C576.485 91.0515 576.794 92.0728 576.791 93.1169C576.791 94.5113 576.233 95.8487 575.239 96.8347C574.246 97.8207 572.898 98.3747 571.492 98.3747Z" fill="#E6E6E6"/>
<path d="M361.887 540C519.94 540 648.068 532.577 648.068 523.421C648.068 514.264 519.94 506.842 361.887 506.842C203.833 506.842 75.7051 514.264 75.7051 523.421C75.7051 532.577 203.833 540 361.887 540Z" fill="#F5F5F5"/>
<path d="M466.946 390.307H553.012C553.012 390.307 533.647 394.7 519.846 396.575V404.366H500.112V396.575C486.311 394.642 466.946 390.307 466.946 390.307Z" fill="#263238"/>
<path d="M555.492 370.271H538.872C540.761 358.855 540.761 347.21 538.872 335.795H555.492C557.366 347.212 557.366 358.854 555.492 370.271Z" fill="#263238"/>
<path d="M522.755 404.367H497.205V462.042H522.755V404.367Z" fill="#263238"/>
<path opacity="0.2" d="M522.755 404.367H497.205V462.042H522.755V404.367Z" fill="white"/>
<path d="M583.197 339.779H511.611C509.673 339.804 507.754 339.401 505.993 338.6C504.231 337.799 502.672 336.618 501.427 335.145C500.182 333.671 499.283 331.941 498.796 330.081C498.308 328.22 498.243 326.275 498.607 324.386C502.023 298.936 503.856 273.302 504.098 247.628C504.037 245.885 504.335 244.149 504.972 242.524C505.61 240.899 506.573 239.419 507.805 238.176C509.036 236.932 510.51 235.949 512.136 235.288C513.762 234.627 515.507 234.301 517.264 234.33H577.544C581.312 234.392 584.941 235.752 587.81 238.179C590.678 240.605 592.606 243.946 593.263 247.628C596.791 273.071 598.738 298.706 599.093 324.386C598.945 328.487 597.212 332.375 594.251 335.241C591.291 338.107 587.332 339.732 583.197 339.779Z" fill="#A7BDE9"/>
<path d="M586.385 324.342C586.037 298.661 584.09 273.027 580.555 247.584C579.888 243.91 577.956 240.579 575.089 238.162C572.222 235.744 568.597 234.39 564.835 234.33H517.264C515.507 234.301 513.762 234.627 512.136 235.288C510.51 235.949 509.036 236.932 507.805 238.176C506.573 239.419 505.61 240.899 504.972 242.524C504.335 244.149 504.037 245.885 504.098 247.628C503.856 273.302 502.023 298.936 498.607 324.386C498.243 326.275 498.308 328.22 498.796 330.081C499.283 331.941 500.182 333.671 501.427 335.145C502.672 336.618 504.231 337.799 505.993 338.6C507.754 339.401 509.673 339.804 511.611 339.779H570.503C574.645 339.732 578.608 338.1 581.567 335.224C584.526 332.348 586.252 328.45 586.385 324.342Z" fill="#A7BDE9"/>
<path opacity="0.5" d="M586.385 324.342C586.037 298.661 584.09 273.027 580.555 247.584C579.888 243.91 577.956 240.579 575.089 238.162C572.222 235.744 568.597 234.39 564.835 234.33H517.264C515.507 234.301 513.762 234.627 512.136 235.288C510.51 235.949 509.036 236.932 507.805 238.176C506.573 239.419 505.61 240.899 504.972 242.524C504.335 244.149 504.037 245.885 504.098 247.628C503.856 273.302 502.023 298.936 498.607 324.386C498.243 326.275 498.308 328.22 498.796 330.081C499.283 331.941 500.182 333.671 501.427 335.145C502.672 336.618 504.231 337.799 505.993 338.6C507.754 339.401 509.673 339.804 511.611 339.779H570.503C574.645 339.732 578.608 338.1 581.567 335.224C584.526 332.348 586.252 328.45 586.385 324.342Z" fill="white"/>
<path d="M553.012 470.126C553.013 470.442 552.942 470.754 552.805 471.039C552.668 471.324 552.468 471.575 552.22 471.774C551.972 471.972 551.682 472.112 551.372 472.184C551.062 472.257 550.74 472.259 550.429 472.191C542.591 470.507 519.138 465.6 509.986 465.6C500.835 465.6 477.367 470.507 469.529 472.191C469.218 472.259 468.896 472.257 468.586 472.184C468.276 472.112 467.986 471.972 467.738 471.774C467.49 471.575 467.29 471.324 467.153 471.039C467.016 470.754 466.945 470.442 466.946 470.126C466.945 468.854 467.384 467.62 468.191 466.631C468.997 465.642 470.121 464.957 471.374 464.692C480.54 462.73 501.455 458.482 509.986 458.482C518.518 458.482 539.418 462.73 548.584 464.692C549.838 464.957 550.962 465.642 551.768 466.631C552.574 467.62 553.013 468.854 553.012 470.126Z" fill="#263238"/>
<path d="M466.946 465.819C465.487 465.819 464.06 466.249 462.846 467.053C461.633 467.858 460.687 469.002 460.128 470.34C459.57 471.678 459.423 473.15 459.708 474.571C459.993 475.991 460.696 477.296 461.728 478.32C462.76 479.344 464.075 480.042 465.507 480.324C466.938 480.607 468.422 480.462 469.771 479.908C471.119 479.353 472.272 478.415 473.083 477.211C473.894 476.006 474.326 474.59 474.326 473.142C474.326 471.2 473.549 469.337 472.165 467.964C470.781 466.591 468.904 465.819 466.946 465.819ZM466.946 477.082C466.158 477.082 465.388 476.85 464.732 476.415C464.077 475.981 463.566 475.363 463.265 474.641C462.963 473.918 462.884 473.123 463.038 472.356C463.192 471.589 463.571 470.884 464.128 470.331C464.686 469.778 465.396 469.402 466.169 469.249C466.942 469.097 467.743 469.175 468.471 469.474C469.2 469.773 469.822 470.28 470.26 470.931C470.698 471.581 470.932 472.345 470.932 473.128C470.932 474.176 470.512 475.182 469.764 475.924C469.017 476.665 468.003 477.082 466.946 477.082Z" fill="#A7BDE9"/>
<path d="M509.986 465.819C508.527 465.819 507.1 466.249 505.886 467.053C504.673 467.858 503.727 469.002 503.168 470.34C502.61 471.678 502.463 473.15 502.748 474.571C503.033 475.991 503.736 477.296 504.768 478.32C505.8 479.344 507.115 480.042 508.547 480.324C509.978 480.607 511.462 480.462 512.811 479.908C514.159 479.353 515.312 478.415 516.123 477.211C516.934 476.006 517.366 474.59 517.366 473.142C517.366 471.2 516.589 469.337 515.205 467.964C513.821 466.591 511.944 465.819 509.986 465.819ZM509.986 477.082C509.198 477.082 508.428 476.85 507.772 476.415C507.117 475.981 506.606 475.363 506.305 474.641C506.003 473.918 505.924 473.123 506.078 472.356C506.232 471.589 506.611 470.884 507.168 470.331C507.726 469.778 508.436 469.402 509.209 469.249C509.982 469.097 510.783 469.175 511.512 469.474C512.24 469.773 512.862 470.28 513.3 470.931C513.738 471.581 513.972 472.345 513.972 473.128C513.972 474.176 513.552 475.182 512.804 475.924C512.057 476.665 511.043 477.082 509.986 477.082Z" fill="#A7BDE9"/>
<path d="M552.126 465.819C550.666 465.819 549.24 466.249 548.026 467.053C546.812 467.858 545.866 469.002 545.308 470.34C544.749 471.678 544.603 473.15 544.888 474.571C545.173 475.991 545.876 477.296 546.908 478.32C547.94 479.344 549.255 480.042 550.686 480.324C552.118 480.607 553.602 480.462 554.95 479.908C556.299 479.353 557.451 478.415 558.262 477.211C559.073 476.006 559.506 474.59 559.506 473.142C559.506 471.2 558.729 469.337 557.345 467.964C555.961 466.591 554.083 465.819 552.126 465.819ZM552.126 477.082C551.338 477.082 550.567 476.85 549.912 476.415C549.257 475.981 548.746 475.363 548.444 474.641C548.143 473.918 548.064 473.123 548.217 472.356C548.371 471.589 548.751 470.884 549.308 470.331C549.865 469.778 550.576 469.402 551.349 469.249C552.122 469.097 552.923 469.175 553.651 469.474C554.379 469.773 555.002 470.28 555.44 470.931C555.878 471.581 556.111 472.345 556.111 473.128C556.111 474.176 555.691 475.182 554.944 475.924C554.197 476.665 553.183 477.082 552.126 477.082Z" fill="#A7BDE9"/>
<path d="M531.772 369.173C503.062 370.261 474.311 369.247 445.751 366.141C444.414 365.949 443.051 366.049 441.757 366.433C440.462 366.818 439.268 367.478 438.258 368.368C437.247 369.257 436.445 370.355 435.906 371.584C435.367 372.814 435.105 374.145 435.139 375.485V376.95C435.212 379.837 436.321 382.603 438.266 384.751C440.212 386.898 442.866 388.287 445.751 388.666C474.293 391.745 503.024 392.749 531.713 391.668L531.772 369.173Z" fill="#A7BDE9"/>
<path opacity="0.5" d="M531.772 369.173C503.062 370.261 474.311 369.247 445.751 366.141C444.414 365.949 443.051 366.049 441.757 366.433C440.462 366.818 439.268 367.478 438.258 368.368C437.247 369.257 436.445 370.355 435.906 371.584C435.367 372.814 435.105 374.145 435.139 375.485V376.95C435.212 379.837 436.321 382.603 438.266 384.751C440.212 386.898 442.866 388.287 445.751 388.666C474.293 391.745 503.024 392.749 531.713 391.668L531.772 369.173Z" fill="white"/>
<path d="M574.709 388.637C558.296 390.101 542.104 391.229 525.632 391.888C524.312 391.921 522.998 391.691 521.768 391.211C520.539 390.73 519.42 390.01 518.476 389.092C517.533 388.174 516.786 387.077 516.278 385.867C515.771 384.656 515.513 383.357 515.522 382.046V379.556C515.521 376.875 516.579 374.3 518.469 372.384C520.359 370.467 522.931 369.362 525.632 369.304C542.104 368.66 558.296 367.576 574.709 366.053C575.968 365.883 577.25 365.983 578.466 366.348C579.683 366.713 580.806 367.333 581.76 368.167C582.713 369 583.475 370.028 583.993 371.179C584.511 372.331 584.772 373.58 584.761 374.841V377.33C584.739 380.1 583.71 382.769 581.864 384.847C580.017 386.924 577.476 388.27 574.709 388.637Z" fill="#A7BDE9"/>
<path d="M619.86 499.9H615.078L613.794 323.259H619.86V499.9Z" fill="#A7BDE9"/>
<path opacity="0.5" d="M619.86 499.9H615.078L613.794 323.259H619.86V499.9Z" fill="white"/>
<path d="M624.643 499.9H619.86V323.259H625.927L624.643 499.9Z" fill="#A7BDE9"/>
<path opacity="0.3" d="M624.643 499.9H619.86V323.259H625.927L624.643 499.9Z" fill="white"/>
<path d="M340.262 499.9H335.479L334.195 323.259H340.262V499.9Z" fill="#A7BDE9"/>
<path opacity="0.5" d="M340.262 499.9H335.479L334.195 323.259H340.262V499.9Z" fill="white"/>
<path d="M345.029 499.9H340.262V323.259H346.328L345.029 499.9Z" fill="#A7BDE9"/>
<path opacity="0.3" d="M345.029 499.9H340.262V323.259H346.328L345.029 499.9Z" fill="white"/>
<path d="M567.049 311.718H285.531V323.244H567.049V311.718Z" fill="#263238"/>
<path opacity="0.2" d="M567.049 311.718H285.531V323.244H567.049V311.718Z" fill="white"/>
<path d="M635.535 311.718H562.163V323.244H635.535V311.718Z" fill="#263238"/>
<path opacity="0.5" d="M635.535 311.718H562.163V323.244H635.535V311.718Z" fill="black"/>
<path d="M581.912 323.259H302.313V342.269H581.912V323.259Z" fill="#A7BDE9"/>
<path d="M581.927 342.269H619.86V323.258H581.927V342.269Z" fill="#A7BDE9"/>
<mask id="mask0_2016_4691" style="mask-type:luminance" maskUnits="userSpaceOnUse" x="581" y="323" width="39" height="20">
<path d="M581.927 342.269H619.86V323.258H581.927V342.269Z" fill="white"/>
</mask>
<g mask="url(#mask0_2016_4691)">
<path opacity="0.3" d="M581.927 342.269H619.86V323.258H581.927V342.269Z" fill="#A7BDE9"/>
</g>
<g opacity="0.3">
<path d="M581.926 342.269H619.859V323.258H581.926V342.269Z" fill="black"/>
<mask id="mask1_2016_4691" style="mask-type:luminance" maskUnits="userSpaceOnUse" x="581" y="323" width="39" height="20">
<path d="M581.926 342.269H619.859V323.258H581.926V342.269Z" fill="white"/>
</mask>
<g mask="url(#mask1_2016_4691)">
<path opacity="0.3" d="M581.926 342.269H619.859V323.258H581.926V342.269Z" fill="black"/>
</g>
</g>
<path d="M302.313 511.617H297.546L296.247 323.259H302.313V511.617Z" fill="#A7BDE9"/>
<path opacity="0.5" d="M302.313 511.617H297.546L296.247 323.259H302.313V511.617Z" fill="white"/>
<path d="M307.096 511.617H302.313V323.259H308.38L307.096 511.617Z" fill="#A7BDE9"/>
<path opacity="0.3" d="M307.096 511.617H302.313V323.259H308.38L307.096 511.617Z" fill="white"/>
<path d="M581.927 511.617H577.144L575.86 323.259H581.927V511.617Z" fill="#A7BDE9"/>
<path opacity="0.5" d="M581.927 511.617H577.144L575.86 323.259H581.927V511.617Z" fill="white"/>
<path d="M586.694 511.617H581.927V323.259H587.993L586.694 511.617Z" fill="#A7BDE9"/>
<path opacity="0.3" d="M586.694 511.617H581.927V323.259H587.993L586.694 511.617Z" fill="white"/>
<path d="M480.481 192.355H471.994L478.223 281.196H486.695C487.022 281.201 487.346 281.139 487.647 281.011C487.948 280.884 488.219 280.696 488.441 280.458C488.664 280.221 488.834 279.94 488.94 279.633C489.046 279.326 489.086 279 489.057 278.677L483.153 194.875C483.095 194.203 482.792 193.576 482.299 193.111C481.807 192.647 481.16 192.378 480.481 192.355Z" fill="#263238"/>
<path opacity="0.3" d="M480.481 192.355H471.994L478.223 281.196H486.695C487.022 281.201 487.346 281.139 487.647 281.011C487.948 280.884 488.219 280.696 488.441 280.458C488.664 280.221 488.834 279.94 488.94 279.633C489.046 279.326 489.086 279 489.057 278.677L483.153 194.875C483.095 194.203 482.792 193.576 482.299 193.111C481.807 192.647 481.16 192.378 480.481 192.355Z" fill="white"/>
<path d="M481.869 281.196H354.829C354.14 281.188 353.479 280.925 352.974 280.46C352.469 279.994 352.157 279.359 352.099 278.677L346.195 194.875C346.166 194.552 346.206 194.226 346.312 193.919C346.418 193.612 346.587 193.331 346.81 193.093C347.033 192.856 347.303 192.667 347.604 192.54C347.905 192.413 348.229 192.35 348.556 192.356H475.61C476.298 192.365 476.958 192.628 477.46 193.094C477.962 193.56 478.271 194.195 478.326 194.875L484.23 278.677C484.257 279 484.216 279.325 484.109 279.631C484.002 279.936 483.832 280.217 483.61 280.454C483.387 280.691 483.118 280.879 482.818 281.007C482.518 281.135 482.195 281.199 481.869 281.196Z" fill="#263238"/>
<path opacity="0.6" d="M481.869 281.196H354.829C354.14 281.188 353.479 280.925 352.974 280.46C352.469 279.994 352.157 279.359 352.099 278.677L346.195 194.875C346.166 194.552 346.206 194.226 346.312 193.919C346.418 193.612 346.587 193.331 346.81 193.093C347.033 192.856 347.303 192.667 347.604 192.54C347.905 192.413 348.229 192.35 348.556 192.356H475.61C476.298 192.365 476.958 192.628 477.46 193.094C477.962 193.56 478.271 194.195 478.326 194.875L484.23 278.677C484.257 279 484.216 279.325 484.109 279.631C484.002 279.936 483.832 280.217 483.61 280.454C483.387 280.691 483.118 280.879 482.818 281.007C482.518 281.135 482.195 281.199 481.869 281.196Z" fill="white"/>
<path opacity="0.1" d="M415.212 259.726C396.423 260.165 354.829 281.197 354.829 281.197H481.868C481.868 281.197 435.286 259.228 415.212 259.726Z" fill="black"/>
<path d="M431.7 264.676C431.658 263.83 431.29 263.033 430.671 262.45C430.053 261.866 429.232 261.541 428.379 261.542H405.633C404.779 261.537 403.956 261.861 403.337 262.445C402.718 263.03 402.351 263.829 402.312 264.676L399.995 311.718H433.943L431.7 264.676Z" fill="#263238"/>
<path opacity="0.4" d="M431.7 264.676C431.658 263.83 431.29 263.033 430.671 262.45C430.053 261.866 429.232 261.541 428.379 261.542H405.633C404.779 261.537 403.956 261.861 403.337 262.445C402.718 263.03 402.351 263.829 402.312 264.676L399.995 311.718H433.943L431.7 264.676Z" fill="white"/>
<path d="M434.268 264.676C434.226 263.83 433.858 263.033 433.24 262.45C432.621 261.866 431.8 261.541 430.947 261.542H428.379C429.232 261.541 430.053 261.866 430.672 262.45C431.29 263.033 431.658 263.83 431.7 264.676L433.943 311.718H436.497L434.268 264.676Z" fill="#263238"/>
<path d="M449.914 315.613H446.268C446.083 315.613 445.905 315.541 445.772 315.413C445.64 315.284 445.563 315.109 445.56 314.925V311.088C445.563 310.904 445.64 310.729 445.772 310.6C445.905 310.471 446.083 310.399 446.268 310.399H448.881C449.035 310.398 449.186 310.447 449.309 310.54C449.432 310.633 449.52 310.764 449.56 310.912L450.593 314.749C450.62 314.852 450.623 314.959 450.602 315.063C450.58 315.167 450.535 315.265 450.469 315.348C450.403 315.432 450.319 315.499 450.223 315.545C450.126 315.591 450.021 315.615 449.914 315.613Z" fill="#263238"/>
<path d="M454.961 315.613H451.315C451.224 315.613 451.134 315.596 451.049 315.561C450.965 315.526 450.889 315.476 450.824 315.412C450.76 315.348 450.709 315.272 450.674 315.188C450.639 315.105 450.621 315.015 450.621 314.925V311.088C450.621 310.997 450.639 310.908 450.674 310.824C450.709 310.741 450.76 310.665 450.824 310.601C450.889 310.537 450.965 310.486 451.049 310.452C451.134 310.417 451.224 310.399 451.315 310.399H453.927C454.082 310.398 454.233 310.447 454.356 310.54C454.479 310.633 454.567 310.764 454.606 310.912L455.64 314.749C455.667 314.852 455.67 314.959 455.648 315.063C455.627 315.167 455.582 315.265 455.516 315.348C455.45 315.432 455.366 315.499 455.269 315.545C455.173 315.591 455.067 315.615 454.961 315.613Z" fill="#263238"/>
<path d="M460.009 315.613H456.364C456.273 315.613 456.182 315.596 456.098 315.561C456.014 315.526 455.938 315.476 455.873 315.412C455.809 315.348 455.758 315.272 455.723 315.188C455.688 315.105 455.67 315.015 455.67 314.925V311.088C455.67 310.997 455.688 310.908 455.723 310.824C455.758 310.741 455.809 310.665 455.873 310.601C455.938 310.537 456.014 310.486 456.098 310.452C456.182 310.417 456.273 310.399 456.364 310.399H459.035C459.19 310.398 459.34 310.447 459.463 310.54C459.586 310.633 459.675 310.764 459.714 310.912L460.747 314.749C460.777 314.857 460.779 314.97 460.755 315.078C460.73 315.187 460.679 315.288 460.607 315.373C460.534 315.458 460.442 315.525 460.338 315.566C460.234 315.608 460.121 315.624 460.009 315.613Z" fill="#263238"/>
<path d="M465.057 315.613H461.411C461.227 315.613 461.051 315.541 460.921 315.412C460.791 315.283 460.718 315.107 460.718 314.925V311.088C460.718 310.905 460.791 310.73 460.921 310.601C461.051 310.472 461.227 310.399 461.411 310.399H464.039C464.191 310.401 464.338 310.452 464.458 310.544C464.578 310.637 464.664 310.766 464.703 310.912L465.736 314.749C465.763 314.852 465.766 314.959 465.745 315.063C465.724 315.167 465.678 315.265 465.613 315.348C465.547 315.432 465.462 315.499 465.366 315.545C465.27 315.591 465.164 315.615 465.057 315.613Z" fill="#263238"/>
<path d="M470.105 315.613H466.415C466.231 315.613 466.055 315.541 465.925 315.412C465.795 315.283 465.722 315.107 465.722 314.925V311.088C465.722 310.905 465.795 310.73 465.925 310.601C466.055 310.472 466.231 310.399 466.415 310.399H469.043C469.195 310.401 469.342 310.452 469.462 310.544C469.582 310.637 469.668 310.766 469.707 310.912L470.74 314.749C470.767 314.848 470.77 314.952 470.751 315.053C470.732 315.153 470.691 315.248 470.63 315.331C470.569 315.414 470.491 315.482 470.4 315.531C470.309 315.58 470.209 315.608 470.105 315.613Z" fill="#263238"/>
<path d="M475.153 315.614H471.507C471.415 315.611 471.324 315.589 471.241 315.549C471.157 315.51 471.082 315.455 471.02 315.387C470.958 315.319 470.91 315.239 470.88 315.152C470.85 315.065 470.837 314.974 470.843 314.882V311.045C470.843 310.954 470.861 310.865 470.896 310.781C470.931 310.698 470.982 310.622 471.046 310.558C471.111 310.494 471.187 310.443 471.271 310.409C471.356 310.374 471.446 310.356 471.537 310.356H474.164C474.316 310.358 474.464 310.409 474.584 310.501C474.704 310.594 474.79 310.723 474.828 310.869L475.862 314.706C475.899 314.814 475.908 314.929 475.889 315.041C475.87 315.153 475.824 315.259 475.753 315.349C475.683 315.439 475.592 315.51 475.487 315.557C475.382 315.603 475.268 315.623 475.153 315.614Z" fill="#263238"/>
<path d="M480.201 315.613H476.555C476.464 315.613 476.374 315.595 476.29 315.561C476.205 315.526 476.129 315.476 476.065 315.412C476 315.348 475.949 315.272 475.914 315.188C475.879 315.105 475.861 315.015 475.861 314.925V311.088C475.861 310.997 475.879 310.908 475.914 310.824C475.949 310.741 476 310.665 476.065 310.601C476.129 310.537 476.205 310.486 476.29 310.452C476.374 310.417 476.464 310.399 476.555 310.399H479.182C479.334 310.401 479.482 310.452 479.602 310.544C479.722 310.637 479.808 310.766 479.847 310.912L480.88 314.749C480.907 314.852 480.91 314.959 480.889 315.063C480.867 315.167 480.822 315.265 480.756 315.348C480.69 315.432 480.606 315.499 480.51 315.545C480.413 315.591 480.308 315.615 480.201 315.613Z" fill="#263238"/>
<path d="M485.249 315.613H481.603C481.512 315.613 481.422 315.595 481.337 315.561C481.253 315.526 481.177 315.476 481.112 315.412C481.048 315.348 480.997 315.272 480.962 315.188C480.927 315.105 480.909 315.015 480.909 314.925V311.088C480.909 310.997 480.927 310.908 480.962 310.824C480.997 310.741 481.048 310.665 481.112 310.601C481.177 310.537 481.253 310.486 481.337 310.452C481.422 310.417 481.512 310.399 481.603 310.399H484.23C484.382 310.401 484.53 310.452 484.65 310.544C484.77 310.637 484.856 310.766 484.894 310.912L485.928 314.749C485.955 314.852 485.958 314.959 485.936 315.063C485.915 315.167 485.87 315.265 485.804 315.348C485.738 315.432 485.654 315.499 485.558 315.545C485.461 315.591 485.356 315.615 485.249 315.613Z" fill="#263238"/>
<path d="M490.296 315.613H486.651C486.56 315.613 486.469 315.595 486.385 315.561C486.301 315.526 486.225 315.476 486.16 315.412C486.096 315.348 486.045 315.272 486.01 315.188C485.975 315.105 485.957 315.015 485.957 314.925V311.088C485.957 310.997 485.975 310.908 486.01 310.824C486.045 310.741 486.096 310.665 486.16 310.601C486.225 310.537 486.301 310.486 486.385 310.452C486.469 310.417 486.56 310.399 486.651 310.399H489.278C489.43 310.401 489.577 310.452 489.697 310.544C489.817 310.637 489.903 310.766 489.942 310.912L490.975 314.749C491.003 314.852 491.006 314.959 490.984 315.063C490.963 315.167 490.918 315.265 490.852 315.348C490.786 315.432 490.702 315.499 490.605 315.545C490.509 315.591 490.403 315.615 490.296 315.613Z" fill="#263238"/>
<path d="M495.345 315.613H491.7C491.608 315.613 491.518 315.595 491.434 315.561C491.35 315.526 491.273 315.476 491.209 315.412C491.145 315.348 491.094 315.272 491.059 315.188C491.024 315.105 491.006 315.015 491.006 314.925V311.088C491.006 310.997 491.024 310.908 491.059 310.824C491.094 310.741 491.145 310.665 491.209 310.601C491.273 310.537 491.35 310.486 491.434 310.452C491.518 310.417 491.608 310.399 491.7 310.399H494.327C494.479 310.401 494.626 310.452 494.746 310.544C494.866 310.637 494.952 310.766 494.991 310.912L496.024 314.749C496.052 314.852 496.055 314.959 496.033 315.063C496.012 315.167 495.966 315.265 495.901 315.348C495.835 315.432 495.751 315.499 495.654 315.545C495.558 315.591 495.452 315.615 495.345 315.613Z" fill="#263238"/>
<path d="M500.363 315.613H496.717C496.533 315.613 496.357 315.541 496.227 315.412C496.097 315.283 496.023 315.107 496.023 314.925V311.088C496.023 310.905 496.097 310.73 496.227 310.601C496.357 310.472 496.533 310.399 496.717 310.399H499.344C499.496 310.401 499.644 310.452 499.764 310.544C499.884 310.637 499.97 310.766 500.009 310.912L501.042 314.749C501.069 314.852 501.072 314.959 501.051 315.063C501.029 315.167 500.984 315.265 500.918 315.348C500.853 315.432 500.768 315.499 500.672 315.545C500.576 315.591 500.47 315.615 500.363 315.613Z" fill="#263238"/>
<path d="M505.44 315.613H501.838C501.654 315.613 501.478 315.541 501.348 315.412C501.218 315.283 501.145 315.107 501.145 314.925V311.088C501.145 310.905 501.218 310.73 501.348 310.601C501.478 310.472 501.654 310.399 501.838 310.399H504.466C504.618 310.401 504.765 310.452 504.885 310.544C505.005 310.637 505.091 310.766 505.13 310.912L506.163 314.749C506.192 314.855 506.194 314.967 506.17 315.074C506.147 315.182 506.097 315.282 506.026 315.367C505.956 315.451 505.865 315.518 505.763 315.561C505.661 315.604 505.55 315.622 505.44 315.613Z" fill="#263238"/>
<path d="M510.504 315.613H506.843C506.659 315.613 506.483 315.541 506.353 315.412C506.222 315.283 506.149 315.107 506.149 314.925V311.088C506.149 310.905 506.222 310.73 506.353 310.601C506.483 310.472 506.659 310.399 506.843 310.399H509.47C509.622 310.401 509.77 310.452 509.89 310.544C510.01 310.637 510.096 310.766 510.135 310.912L511.168 314.749C511.195 314.851 511.198 314.957 511.177 315.059C511.157 315.162 511.113 315.259 511.049 315.342C510.985 315.426 510.902 315.493 510.808 315.54C510.713 315.587 510.609 315.612 510.504 315.613Z" fill="#263238"/>
<path d="M515.551 315.613H511.89C511.706 315.613 511.53 315.541 511.399 315.412C511.269 315.283 511.196 315.107 511.196 314.925V311.088C511.196 310.905 511.269 310.73 511.399 310.601C511.53 310.472 511.706 310.399 511.89 310.399H514.517C514.669 310.401 514.817 310.452 514.937 310.544C515.057 310.637 515.143 310.766 515.182 310.912L516.215 314.749C516.242 314.851 516.245 314.957 516.224 315.059C516.204 315.162 516.16 315.259 516.096 315.342C516.032 315.426 515.949 315.493 515.855 315.54C515.76 315.587 515.656 315.612 515.551 315.613Z" fill="#263238"/>
<path d="M520.599 315.613H516.939C516.755 315.613 516.578 315.541 516.448 315.412C516.318 315.283 516.245 315.107 516.245 314.925V311.088C516.245 310.905 516.318 310.73 516.448 310.601C516.578 310.472 516.755 310.399 516.939 310.399H519.551C519.703 310.401 519.851 310.452 519.971 310.544C520.091 310.637 520.177 310.766 520.216 310.912L521.249 314.749C521.275 314.849 521.279 314.954 521.259 315.056C521.239 315.158 521.197 315.254 521.134 315.337C521.072 315.42 520.991 315.488 520.899 315.536C520.806 315.584 520.704 315.61 520.599 315.613Z" fill="#263238"/>
<g opacity="0.8">
<path d="M449.914 315.614H446.268C446.083 315.614 445.905 315.542 445.772 315.414C445.64 315.285 445.563 315.11 445.56 314.926V311.089C445.563 310.905 445.64 310.73 445.772 310.601C445.905 310.472 446.083 310.4 446.268 310.4H448.881C449.035 310.399 449.186 310.448 449.309 310.541C449.432 310.634 449.52 310.765 449.56 310.913L450.593 314.75C450.62 314.853 450.623 314.96 450.602 315.064C450.58 315.168 450.535 315.266 450.469 315.349C450.403 315.433 450.319 315.5 450.223 315.546C450.126 315.592 450.021 315.616 449.914 315.614Z" fill="white"/>
<path d="M454.962 315.614H451.316C451.225 315.614 451.135 315.596 451.05 315.562C450.966 315.527 450.89 315.477 450.825 315.413C450.761 315.349 450.71 315.273 450.675 315.189C450.64 315.106 450.622 315.016 450.622 314.926V311.089C450.622 310.998 450.64 310.909 450.675 310.825C450.71 310.742 450.761 310.666 450.825 310.602C450.89 310.538 450.966 310.487 451.05 310.453C451.135 310.418 451.225 310.4 451.316 310.4H453.928C454.083 310.399 454.234 310.448 454.357 310.541C454.48 310.634 454.568 310.765 454.607 310.913L455.641 314.75C455.668 314.853 455.671 314.96 455.649 315.064C455.628 315.168 455.583 315.266 455.517 315.349C455.451 315.433 455.367 315.5 455.27 315.546C455.174 315.592 455.068 315.616 454.962 315.614Z" fill="white"/>
<path d="M460.009 315.614H456.364C456.273 315.614 456.182 315.596 456.098 315.562C456.014 315.527 455.938 315.477 455.873 315.413C455.809 315.349 455.758 315.273 455.723 315.189C455.688 315.106 455.67 315.016 455.67 314.926V311.089C455.67 310.998 455.688 310.909 455.723 310.825C455.758 310.742 455.809 310.666 455.873 310.602C455.938 310.538 456.014 310.487 456.098 310.453C456.182 310.418 456.273 310.4 456.364 310.4H459.035C459.19 310.399 459.34 310.448 459.463 310.541C459.586 310.634 459.675 310.765 459.714 310.913L460.747 314.75C460.777 314.858 460.779 314.971 460.755 315.079C460.73 315.188 460.679 315.289 460.607 315.374C460.534 315.459 460.442 315.526 460.338 315.567C460.234 315.609 460.121 315.625 460.009 315.614Z" fill="white"/>
<path d="M465.057 315.615H461.411C461.227 315.615 461.051 315.543 460.921 315.414C460.791 315.285 460.718 315.109 460.718 314.927V311.09C460.718 310.907 460.791 310.732 460.921 310.603C461.051 310.474 461.227 310.401 461.411 310.401H464.039C464.191 310.403 464.338 310.454 464.458 310.546C464.578 310.639 464.664 310.768 464.703 310.914L465.736 314.751C465.763 314.854 465.766 314.961 465.745 315.065C465.724 315.169 465.678 315.267 465.613 315.35C465.547 315.434 465.462 315.501 465.366 315.547C465.27 315.593 465.164 315.616 465.057 315.615Z" fill="white"/>
<path d="M470.105 315.615H466.415C466.231 315.615 466.055 315.543 465.925 315.414C465.795 315.285 465.722 315.109 465.722 314.927V311.09C465.722 310.907 465.795 310.732 465.925 310.603C466.055 310.474 466.231 310.401 466.415 310.401H469.043C469.195 310.403 469.342 310.454 469.462 310.546C469.582 310.639 469.668 310.768 469.707 310.914L470.74 314.751C470.767 314.85 470.77 314.954 470.751 315.054C470.732 315.155 470.691 315.25 470.63 315.333C470.569 315.416 470.491 315.484 470.4 315.533C470.309 315.582 470.209 315.61 470.105 315.615Z" fill="white"/>
<path d="M475.153 315.614H471.507C471.415 315.611 471.324 315.589 471.241 315.549C471.157 315.51 471.082 315.455 471.02 315.387C470.958 315.319 470.91 315.239 470.88 315.152C470.85 315.065 470.837 314.974 470.843 314.882V311.045C470.843 310.954 470.861 310.865 470.896 310.781C470.931 310.698 470.982 310.622 471.046 310.558C471.111 310.494 471.187 310.443 471.271 310.409C471.356 310.374 471.446 310.356 471.537 310.356H474.164C474.316 310.358 474.464 310.409 474.584 310.501C474.704 310.594 474.79 310.723 474.828 310.869L475.862 314.706C475.899 314.814 475.908 314.929 475.889 315.041C475.87 315.153 475.824 315.259 475.753 315.349C475.683 315.439 475.592 315.51 475.487 315.557C475.382 315.603 475.268 315.623 475.153 315.614Z" fill="white"/>
<path d="M480.201 315.615H476.555C476.464 315.615 476.374 315.597 476.29 315.563C476.205 315.528 476.129 315.478 476.065 315.414C476 315.35 475.949 315.274 475.914 315.19C475.879 315.107 475.861 315.017 475.861 314.927V311.09C475.861 310.999 475.879 310.91 475.914 310.826C475.949 310.743 476 310.667 476.065 310.603C476.129 310.539 476.205 310.488 476.29 310.454C476.374 310.419 476.464 310.401 476.555 310.401H479.182C479.334 310.403 479.482 310.454 479.602 310.546C479.722 310.639 479.808 310.768 479.847 310.914L480.88 314.751C480.907 314.854 480.91 314.961 480.889 315.065C480.867 315.169 480.822 315.267 480.756 315.35C480.69 315.434 480.606 315.501 480.51 315.547C480.413 315.593 480.308 315.616 480.201 315.615Z" fill="white"/>
<path d="M485.25 315.615H481.604C481.513 315.615 481.423 315.597 481.338 315.563C481.254 315.528 481.178 315.478 481.113 315.414C481.049 315.35 480.998 315.274 480.963 315.19C480.928 315.107 480.91 315.017 480.91 314.927V311.09C480.91 310.999 480.928 310.91 480.963 310.826C480.998 310.743 481.049 310.667 481.113 310.603C481.178 310.539 481.254 310.488 481.338 310.454C481.423 310.419 481.513 310.401 481.604 310.401H484.231C484.383 310.403 484.531 310.454 484.651 310.546C484.771 310.639 484.857 310.768 484.895 310.914L485.929 314.751C485.956 314.854 485.959 314.961 485.937 315.065C485.916 315.169 485.871 315.267 485.805 315.35C485.739 315.434 485.655 315.501 485.559 315.547C485.462 315.593 485.356 315.616 485.25 315.615Z" fill="white"/>
<path d="M490.296 315.615H486.651C486.56 315.615 486.469 315.597 486.385 315.563C486.301 315.528 486.225 315.478 486.16 315.414C486.096 315.35 486.045 315.274 486.01 315.19C485.975 315.107 485.957 315.017 485.957 314.927V311.09C485.957 310.999 485.975 310.91 486.01 310.826C486.045 310.743 486.096 310.667 486.16 310.603C486.225 310.539 486.301 310.488 486.385 310.454C486.469 310.419 486.56 310.401 486.651 310.401H489.278C489.43 310.403 489.577 310.454 489.697 310.546C489.817 310.639 489.903 310.768 489.942 310.914L490.975 314.751C491.003 314.854 491.006 314.961 490.984 315.065C490.963 315.169 490.918 315.267 490.852 315.35C490.786 315.434 490.702 315.501 490.605 315.547C490.509 315.593 490.403 315.616 490.296 315.615Z" fill="white"/>
<path d="M495.345 315.615H491.7C491.608 315.615 491.518 315.597 491.434 315.563C491.35 315.528 491.273 315.478 491.209 315.414C491.145 315.35 491.094 315.274 491.059 315.19C491.024 315.107 491.006 315.017 491.006 314.927V311.09C491.006 310.999 491.024 310.91 491.059 310.826C491.094 310.743 491.145 310.667 491.209 310.603C491.273 310.539 491.35 310.488 491.434 310.454C491.518 310.419 491.608 310.401 491.7 310.401H494.327C494.479 310.403 494.626 310.454 494.746 310.546C494.866 310.639 494.952 310.768 494.991 310.914L496.024 314.751C496.052 314.854 496.055 314.961 496.033 315.065C496.012 315.169 495.966 315.267 495.901 315.35C495.835 315.434 495.751 315.501 495.654 315.547C495.558 315.593 495.452 315.616 495.345 315.615Z" fill="white"/>
<path d="M500.363 315.615H496.717C496.533 315.615 496.357 315.543 496.227 315.414C496.097 315.285 496.023 315.109 496.023 314.927V311.09C496.023 310.907 496.097 310.732 496.227 310.603C496.357 310.474 496.533 310.401 496.717 310.401H499.344C499.496 310.403 499.644 310.454 499.764 310.546C499.884 310.639 499.97 310.768 500.009 310.914L501.042 314.751C501.069 314.854 501.072 314.961 501.051 315.065C501.029 315.169 500.984 315.267 500.918 315.35C500.853 315.434 500.768 315.501 500.672 315.547C500.576 315.593 500.47 315.616 500.363 315.615Z" fill="white"/>
<path d="M505.441 315.615H501.839C501.655 315.615 501.479 315.543 501.349 315.414C501.219 315.285 501.146 315.109 501.146 314.927V311.09C501.146 310.907 501.219 310.732 501.349 310.603C501.479 310.474 501.655 310.401 501.839 310.401H504.467C504.619 310.403 504.766 310.454 504.886 310.546C505.006 310.639 505.092 310.768 505.131 310.914L506.164 314.751C506.193 314.857 506.195 314.969 506.171 315.076C506.148 315.184 506.098 315.284 506.027 315.369C505.957 315.453 505.866 315.52 505.764 315.563C505.662 315.606 505.551 315.624 505.441 315.615Z" fill="white"/>
<path d="M510.504 315.615H506.843C506.659 315.615 506.483 315.543 506.353 315.414C506.222 315.285 506.149 315.109 506.149 314.927V311.09C506.149 310.907 506.222 310.732 506.353 310.603C506.483 310.474 506.659 310.401 506.843 310.401H509.47C509.622 310.403 509.77 310.454 509.89 310.546C510.01 310.639 510.096 310.768 510.135 310.914L511.168 314.751C511.195 314.852 511.198 314.959 511.177 315.061C511.157 315.164 511.113 315.261 511.049 315.344C510.985 315.428 510.902 315.495 510.808 315.542C510.713 315.589 510.609 315.614 510.504 315.615Z" fill="white"/>
<path d="M515.551 315.615H511.891C511.707 315.615 511.531 315.543 511.4 315.414C511.27 315.285 511.197 315.109 511.197 314.927V311.09C511.197 310.907 511.27 310.732 511.4 310.603C511.531 310.474 511.707 310.401 511.891 310.401H514.518C514.67 310.403 514.818 310.454 514.938 310.546C515.058 310.639 515.144 310.768 515.182 310.914L516.216 314.751C516.243 314.852 516.246 314.959 516.225 315.061C516.205 315.164 516.161 315.261 516.097 315.344C516.032 315.428 515.95 315.495 515.856 315.542C515.761 315.589 515.657 315.614 515.551 315.615Z" fill="white"/>
<path d="M520.599 315.615H516.939C516.755 315.615 516.578 315.543 516.448 315.414C516.318 315.285 516.245 315.109 516.245 314.927V311.09C516.245 310.907 516.318 310.732 516.448 310.603C516.578 310.474 516.755 310.401 516.939 310.401H519.551C519.703 310.403 519.851 310.454 519.971 310.546C520.091 310.639 520.177 310.768 520.216 310.914L521.249 314.751C521.275 314.851 521.279 314.956 521.259 315.058C521.239 315.16 521.197 315.256 521.134 315.339C521.072 315.422 520.991 315.49 520.899 315.538C520.806 315.586 520.704 315.612 520.599 315.615Z" fill="white"/>
</g>
<path d="M524.274 313.007H442.592V319.041H524.274V313.007Z" fill="#263238"/>
<path opacity="0.5" d="M524.274 313.007H442.592V319.041H524.274V313.007Z" fill="white"/>
<path d="M377.857 359.11V350.718C377.642 350.718 377.435 350.634 377.283 350.483C377.131 350.331 377.045 350.127 377.045 349.913C377.045 349.699 377.131 349.494 377.283 349.343C377.435 349.192 377.642 349.107 377.857 349.107H387.51V360.736H377.857C377.64 360.736 377.432 360.65 377.278 360.498C377.124 360.346 377.038 360.139 377.038 359.923C377.038 359.708 377.124 359.501 377.278 359.348C377.432 359.196 377.64 359.11 377.857 359.11Z" fill="#A7BDE9"/>
<path opacity="0.3" d="M377.857 359.11V350.718C377.642 350.718 377.435 350.634 377.283 350.483C377.131 350.331 377.045 350.127 377.045 349.913C377.045 349.699 377.131 349.494 377.283 349.343C377.435 349.192 377.642 349.107 377.857 349.107H387.51V360.736H377.857C377.64 360.736 377.432 360.65 377.278 360.498C377.124 360.346 377.038 360.139 377.038 359.923C377.038 359.708 377.124 359.501 377.278 359.348C377.432 359.196 377.64 359.11 377.857 359.11Z" fill="white"/>
<path d="M385.311 350.719H377.812V359.096H385.311V350.719Z" fill="#A7BDE9"/>
<path opacity="0.8" d="M385.311 350.719H377.812V359.096H385.311V350.719Z" fill="white"/>
<path d="M383.761 359.901H409.753C411.539 359.901 412.986 357.675 412.986 354.907C412.986 352.139 411.51 349.913 409.753 349.913H383.761V359.901Z" fill="#A7BDE9"/>
<path opacity="0.9" d="M383.761 359.901H409.753C411.539 359.901 412.986 357.675 412.986 354.907C412.986 352.139 411.51 349.913 409.753 349.913H383.761V359.901Z" fill="white"/>
<path d="M383.761 349.108C392.278 349.108 400.794 348.962 409.296 349.108C415.2 349.211 415.436 360.327 409.724 360.707C405.739 360.986 401.65 360.707 397.65 360.707H383.761C383.566 360.681 383.388 360.586 383.259 360.439C383.13 360.292 383.058 360.104 383.058 359.909C383.058 359.714 383.13 359.526 383.259 359.379C383.388 359.233 383.566 359.137 383.761 359.111H407.953C409.827 359.111 411.156 359.111 411.879 356.9C412.499 354.996 412.307 351.144 409.753 350.719C409.463 350.697 409.172 350.697 408.883 350.719H383.761C383.546 350.719 383.339 350.634 383.187 350.483C383.035 350.332 382.949 350.127 382.949 349.914C382.949 349.7 383.035 349.495 383.187 349.344C383.339 349.193 383.546 349.108 383.761 349.108Z" fill="#A7BDE9"/>
<path d="M416.042 372.586V362.07C416.312 362.07 416.571 361.963 416.762 361.774C416.953 361.584 417.06 361.327 417.06 361.059C417.06 360.791 416.953 360.534 416.762 360.345C416.571 360.155 416.312 360.049 416.042 360.049H403.953V374.694H416.042C416.323 374.694 416.594 374.583 416.793 374.386C416.992 374.188 417.104 373.92 417.104 373.64C417.104 373.36 416.992 373.092 416.793 372.894C416.594 372.697 416.323 372.586 416.042 372.586Z" fill="#A7BDE9"/>
<path opacity="0.3" d="M416.042 372.586V362.07C416.312 362.07 416.571 361.963 416.762 361.774C416.953 361.584 417.06 361.327 417.06 361.059C417.06 360.791 416.953 360.534 416.762 360.345C416.571 360.155 416.312 360.049 416.042 360.049H403.953V374.694H416.042C416.323 374.694 416.594 374.583 416.793 374.386C416.992 374.188 417.104 373.92 417.104 373.64C417.104 373.36 416.992 373.092 416.793 372.894C416.594 372.697 416.323 372.586 416.042 372.586Z" fill="white"/>
<path d="M416.041 362.069H406.653V372.57H416.041V362.069Z" fill="#A7BDE9"/>
<path opacity="0.8" d="M416.041 362.069H406.653V372.57H416.041V362.069Z" fill="white"/>
<path d="M408.617 373.582H376.056C373.813 373.582 371.997 370.784 371.997 367.328C371.997 363.872 373.813 361.06 376.056 361.06H408.617V373.582Z" fill="#A7BDE9"/>
<path opacity="0.9" d="M408.617 373.582H376.056C373.813 373.582 371.997 370.784 371.997 367.328C371.997 363.872 373.813 361.06 376.056 361.06H408.617V373.582Z" fill="white"/>
<path d="M408.617 360.048C397.96 360.048 387.274 359.858 376.617 360.048C369.311 360.18 368.912 374.108 376.086 374.592C381.075 374.928 386.211 374.592 391.215 374.592H408.617C408.864 374.562 409.092 374.444 409.257 374.259C409.422 374.074 409.513 373.835 409.513 373.588C409.513 373.341 409.422 373.103 409.257 372.918C409.092 372.733 408.864 372.615 408.617 372.585H378.3C375.968 372.585 374.285 372.585 373.385 369.802C372.602 367.43 372.853 362.597 376.056 362.07C376.42 362.04 376.785 362.04 377.148 362.07H408.617C408.887 362.07 409.146 361.963 409.337 361.774C409.528 361.584 409.635 361.327 409.635 361.059C409.635 360.791 409.528 360.534 409.337 360.344C409.146 360.155 408.887 360.048 408.617 360.048Z" fill="#A7BDE9"/>
<g opacity="0.3">
<path d="M408.617 360.048C397.96 360.048 387.274 359.858 376.617 360.048C369.311 360.18 368.912 374.108 376.086 374.592C381.075 374.928 386.211 374.592 391.215 374.592H408.617C408.864 374.562 409.092 374.444 409.257 374.259C409.422 374.074 409.513 373.835 409.513 373.588C409.513 373.341 409.422 373.103 409.257 372.918C409.092 372.733 408.864 372.615 408.617 372.585H378.3C375.968 372.585 374.285 372.585 373.385 369.802C372.602 367.43 372.853 362.597 376.056 362.07C376.42 362.04 376.785 362.04 377.148 362.07H408.617C408.887 362.07 409.146 361.963 409.337 361.774C409.528 361.584 409.635 361.327 409.635 361.059C409.635 360.791 409.528 360.534 409.337 360.344C409.146 360.155 408.887 360.048 408.617 360.048Z" fill="black"/>
</g>
<path d="M408.956 368.807H356.366V421.092H408.956V368.807Z" fill="#A7BDE9"/>
<path opacity="0.5" d="M408.956 368.807H356.366V421.092H408.956V368.807Z" fill="white"/>
<path d="M441.251 368.807H408.956V421.092H441.251V368.807Z" fill="#A7BDE9"/>
<path opacity="0.2" d="M441.251 368.807H408.956V421.092H441.251V368.807Z" fill="white"/>
<path d="M398.905 383.511H346.33L356.367 368.807H408.957L398.905 383.511Z" fill="#A7BDE9"/>
<path opacity="0.8" d="M398.905 383.511H346.33L356.367 368.807H408.957L398.905 383.511Z" fill="white"/>
<path d="M418.476 383.511H450.771L441.251 368.807H408.956L418.476 383.511Z" fill="#A7BDE9"/>
<path opacity="0.7" d="M418.476 383.511H450.771L441.251 368.807H408.956L418.476 383.511Z" fill="white"/>
<path d="M412.499 421.092H324.189V508.893H412.499V421.092Z" fill="#A7BDE9"/>
<path opacity="0.6" d="M412.499 421.092H324.189V508.893H412.499V421.092Z" fill="white"/>
<path d="M466.741 421.092H412.498V508.893H466.741V421.092Z" fill="#A7BDE9"/>
<path opacity="0.3" d="M466.741 421.092H412.498V508.893H466.741V421.092Z" fill="white"/>
<path d="M434.195 421.077V454.308L435.597 453.049L438.077 454.586L440.247 453.049L443.037 454.586L445.974 453.049L447.834 454.586L450.003 453.459V421.077H434.195Z" fill="#A7BDE9"/>
<path opacity="0.7" d="M434.195 421.077V454.308L435.597 453.049L438.077 454.586L440.247 453.049L443.037 454.586L445.974 453.049L447.834 454.586L450.003 453.459V421.077H434.195Z" fill="white"/>
</svg>
