<svg width="40" height="40" viewBox="0 0 40 40" fill="none" xmlns="http://www.w3.org/2000/svg">
<path d="M18.3448 35.0003H16.0098C10.0343 35.0003 7.04663 35.0003 5.1903 33.1087C3.33398 31.2172 3.33398 28.1727 3.33398 22.0837C3.33398 15.9947 3.33398 12.9502 5.1903 11.0586C7.04663 9.16699 10.0343 9.16699 16.0098 9.16699H22.3477C28.323 9.16699 31.3108 9.16699 33.1672 11.0586C34.5953 12.514 34.9247 14.6518 35.0007 18.3337" stroke="#142938" stroke-width="2.5" stroke-linecap="round" stroke-linejoin="round"/>
<path d="M31.416 31.417L29.166 29.917V26.167M21.666 29.167C21.666 33.3092 25.0238 36.667 29.166 36.667C33.3082 36.667 36.666 33.3092 36.666 29.167C36.666 25.0248 33.3082 21.667 29.166 21.667C25.0238 21.667 21.666 25.0248 21.666 29.167Z" stroke="#142938" stroke-width="2.5" stroke-linecap="round" stroke-linejoin="round"/>
<path d="M26.666 9.16634L26.5005 8.65124C25.6753 6.08449 25.2628 4.80112 24.2808 4.06706C23.2987 3.33301 21.9943 3.33301 19.3853 3.33301H18.9467C16.3377 3.33301 15.0333 3.33301 14.0512 4.06706C13.0691 4.80112 12.6566 6.08449 11.8316 8.65124L11.666 9.16634" stroke="#142938" stroke-width="2.5" stroke-linecap="round" stroke-linejoin="round"/>
</svg>
